<?xml version="1.0" encoding="UTF-8"?>
<svg id="Capa_2" data-name="Capa 2" xmlns="http://www.w3.org/2000/svg" viewBox="0 0 16 16">
  <defs>
    <style>
      .cls-1 {
        fill: #1d381e;
      }

      .cls-1, .cls-2 {
        stroke-width: 0px;
      }

      .cls-2 {
        fill: #c7b8a7;
      }
    </style>
  </defs>
  <g id="Capa_1-2" data-name="Capa 1">
    <rect class="cls-1" width="16" height="16"/>
    <g>
      <path class="cls-2" d="m9.6,10.73c0,1.07.73.76,1.02,1.22.01.57-.93-.02-1.69.28-.39,0-.2-.49-.44-.32-1.69,1.24-4,.16-4.07-1.82-.06-1.69,1.89-2.96,3.41-2.22.39.15.66.56.25.67-.2-.02-.82-.36-1.08-.31-.91-.01-1.55.93-1.53,1.81,0,1.79,1.93,2.59,2.98,1.1.27-.58.08-5.8.13-6.54.07-1.26-.94-.8-1.18-1.36.1-.39.74-.11,1.03-.14.37.05.84-.19,1.07.08.22.96.02,6.47.09,7.56Z"/>
      <path class="cls-2" d="m15.13,11.28c.79.55-1.32,1.16-1.81,1.09-3.6-.01-3.78-4.71-.16-4.86.42-.02,1.94.27,2.07.68-.08.41.33,1.05-.19,1.12-.13,0-.24-.13-.31-.38-.34-1.03-1.82-1.06-2.56-.35-1.27,1.1-.24,3.28,1.38,3.23.51.08,1.14-.41,1.58-.52"/>
      <path class="cls-2" d="m2.02,5.95c.01-.87.11-1.4.64-2.01.21-.25,1.53-1.42,1.48-.71-1.44.96-1.07,3.1-1.11,4.6.07.18.47,0,.65.04.34-.03.5.27.25.44-.37.13-.95.05-.9.56.08.4-.2,2.53.21,2.75.07.11.69.13.77.23.17.2.02.44-.3.42-.66-.11-1.57-.16-2.24,0-.33.02-.5-.21-.34-.43.2-.14.85-.07.88-.43.04-.28.02-2.23.02-2.58,0-.3-.19-.46-.57-.46-.81-.06-.47-.73.49-.49.17.08.04-1.9.08-1.94Z"/>
    </g>
  </g>
</svg>