<?xml version="1.0" encoding="utf-8"?>
<!-- Generator: Adobe Illustrator 27.8.1, SVG Export Plug-In . SVG Version: 6.00 Build 0)  -->
<svg version="1.1" id="Capa_1" xmlns="http://www.w3.org/2000/svg" xmlns:xlink="http://www.w3.org/1999/xlink" x="0px" y="0px"
	 viewBox="0 0 200 200" style="enable-background:new 0 0 200 200;" xml:space="preserve">
<style type="text/css">
	.st0{fill:#FFFFFF;}
</style>
<path class="st0" d="M195.8,110.7l-5-8.5c0,0,0,0,0,0c-0.1-0.2-0.2-0.3-0.4-0.4c-0.1,0-0.1-0.1-0.2-0.1c-0.1,0-0.1-0.1-0.2-0.1
	l-25.2-6.7l-1.5-13.3c0-0.3-0.1-0.5-0.3-0.7l-5.5-6c-0.2-0.2-0.5-0.4-0.8-0.4l-8.5-1.1l-0.6-2.4l17.8-32.2l3.8-2.1
	c0.3,0.1,0.7,0.1,1.1-0.1l5-3c0.3-0.2,0.5-0.5,0.6-0.8c0.1-0.3,0-0.7-0.2-1l-12.1-16.1c-0.2-0.2-0.4-0.4-0.7-0.5L100.5,0
	c-0.2,0-0.4,0-0.6,0L42.7,14.6c-0.2,0-0.3,0.1-0.5,0.2L22,30.3c-0.3,0.2-0.5,0.6-0.5,1c0,0.4,0.2,0.8,0.5,1l14.3,10L50.2,76
	l-0.5,2.8L34,84.3c-0.5,0.2-0.8,0.7-0.8,1.2v16.9l-10.4,5.9c0,0,0,0,0,0c0,0,0,0,0,0C11,114.9,4.8,118.5,4.4,119
	c-0.3,0.3-0.5,0.8-0.3,1.3c0.2,0.5,0.6,0.8,1,0.8c5,0.6,11.6,1.4,18.1,2.2l14.6,18L28.2,192c-0.1,0.7,0.3,1.3,1,1.5
	c0.1,0,0.2,0,0.2,0c0.6,0,1.1-0.4,1.2-1l0.5-2.5l17.1-37.7l5.3,0L44.7,197c-0.1,0.7,0.3,1.3,1,1.5c0.1,0,0.2,0,0.2,0
	c0.6,0,1.1-0.4,1.2-1l0.3-1.3l8.8-13l-1,4.9c-0.1,0.7,0.3,1.3,1,1.5c0.1,0,0.2,0,0.2,0c0.6,0,1.1-0.4,1.2-1l2.1-10.7l17.7-26.2
	l7.2-0.3l9.4,17.5l1.3,30.1c0,0.7,0.6,1.2,1.3,1.2c0,0,0,0,0.1,0c0.7,0,1.2-0.6,1.2-1.3l-1.1-24.9l12.6,23.3l0.1,1.2
	c0,0.7,0.6,1.2,1.3,1.2c0,0,0,0,0.1,0c0.7,0,1.2-0.6,1.2-1.3l-0.1-1.4c1.7-4.7,3.7-10.3,5.7-16l1.4,16c0.1,0.7,0.6,1.1,1.3,1.1
	c0,0,0.1,0,0.1,0c0.7-0.1,1.2-0.7,1.1-1.4l-1.9-21.5c4-11.2,7.7-21.6,8.9-24.8h9l2.7,3.6c0.6,4.2,1.8,12.3,4.2,28.1
	c0.1,0.6,0.6,1.1,1.2,1.1c0.1,0,0.1,0,0.2,0c0.7-0.1,1.2-0.7,1.1-1.4c-1.1-7.3-2.5-16.7-3.5-23.5l24.7,33.2l0.2,0.6
	c0.1,0.6,0.7,0.9,1.2,0.9c0.1,0,0.2,0,0.3,0c0.7-0.2,1.1-0.9,0.9-1.5L160.3,150l4.5-1.1l9.7,38.1c0.1,0.6,0.7,0.9,1.2,0.9
	c0.1,0,0.2,0,0.3,0c0.7-0.2,1.1-0.9,0.9-1.5l-10-39.3c0,0,0,0,0,0c0,0,0,0,0,0l-2.8-10.9l15.5-20.8l15.3-2.8
	c0.4-0.1,0.7-0.3,0.9-0.7C196,111.5,196,111,195.8,110.7z M155.9,76.8l4.9,5.4l1.3,11.9l-6.1-1.6l-2.3-15.9L155.9,76.8z M152.5,76.4
	l2.3,15.8l-2-0.5l-4-15.7L152.5,76.4z M150.1,91.3l-4.9-0.2l-4.1-16.1l5,0.6L150.1,91.3z M112.2,69.8h-5.9l-0.6-12.3l0.6-5.5
	l27.1,2.7l4.4,17.4L112.2,69.8z M125,90.1l-10.8-0.5v-17l10.1,0.9L125,90.1z M112.9,72.4v17.1l-5.8-0.3l-0.8-16.9l5.7,0L112.9,72.4z
	 M71.3,74.5l3-15.2l27.2-6.8l1.7,5.7l0.5,11.7h-5c-0.1,0-0.1,0-0.2,0L71.3,74.5z M98.4,90.2l-9.6,1.3V74.1l9-1.5L98.4,90.2z
	 M87.6,74.3v17.4l-9.7,1.4l0.9-17.3L87.6,74.3z M145,48.5c0.1,0.1,0.1,0.1,0.2,0.2L143,53l-0.6-2.3l9-30.5l3.5,0.8l2.7,2.9
	l-11.2,22.3l-0.9,0.5C144.9,47.1,144.6,47.9,145,48.5z M119.4,35.4l4.6,1l2.7,15.1l-5.2-0.5L119.4,35.4z M120.3,50.8l-9-0.9
	l-0.9-16.4l7.7,1.6L120.3,50.8z M125.4,36.7l3.9,0.8c-0.1,0.2-0.1,0.5-0.1,0.8l3.5,13.8l-4.6-0.5L125.4,36.7z M132,39l3,2.1l2.2,12
	l-1.7-0.8c0,0,0,0-0.1,0L132,39z M138.2,44.3l2.2,8.8l-0.4,1.3l-1.5-0.7l-2.1-11.6l1.9,1.4C138.2,43.7,138.2,44,138.2,44.3z
	 M140.5,57.3l0.3,0.1l-0.8,1.6L140.5,57.3z M139.3,56.8l-1.5,5.2l-1.7-6.6L139.3,56.8z M141.8,58.3l3.7,14.6l-5-0.6l-1.9-7.5
	L141.8,58.3z M141.8,48.3l-1.2-4.6c-0.1-0.4-0.3-0.6-0.6-0.8l-9.2-6.5c-0.1-0.1-0.2-0.1-0.3-0.1l-22-4.6l2.3-20.6l39.4,8.9
	L141.8,48.3z M110.1,49.8l-3.5-0.3l1.8-16.4l0.8,0.2L110.1,49.8z M107.3,31.3l-3.9-0.8c-0.1,0-0.2,0-0.3,0l-6.3,1.6L90.6,11l9.7-2.4
	l9.3,2.1L107.3,31.3z M99.8,42.2l-0.6-9.1l2.9-0.7l0.8,17.2l-0.8,0.2L99.8,42.2z M100.8,50.1l-0.5,0.1l-0.1-2.2L100.8,50.1z
	 M102.9,52.1l0,0.8l-0.2-0.8L102.9,52.1z M98.6,42.5l0.6,8l-4.1,1l-0.6-17.2l1.6-0.4L98.6,42.5z M97.2,33.6l0.7-0.2l0.2,3.3
	L97.2,33.6z M95.6,32.5L77,37.2c-0.1,0-0.2,0-0.2,0.1l-12.9,3.9l-7.4-21.5l32.9-8.3L95.6,32.5z M93.8,51.8l-7.9,2V36.5l7.3-1.9
	L93.8,51.8z M58.8,44.2l2-0.6l-0.5,4.1c-0.5-0.9-1-1.8-1.6-2.7l0-0.3C58.8,44.5,58.8,44.4,58.8,44.2z M61.1,51.6
	c1.5,2.6,3,5.1,4.3,7.4L60,60.3L61.1,51.6z M61.3,49.5l0.8-6.3l1-0.3l5.2,15.3l-1.7,0.4C65.1,55.9,63.2,52.8,61.3,49.5z M64.3,42.6
	l6.3-1.9l-1.5,15.6L64.3,42.6z M69.2,60.6l1.5,4.3l-0.1,0.5c-0.7-1.2-1.6-2.7-2.6-4.5L69.2,60.6z M70.4,60.3l1.2-0.3l-0.5,2.4
	L70.4,60.3z M70.2,57.7l1.7-17.4l3.8-1.1l-3.5,18.1L70.2,57.7z M78.4,38.7c0-0.1,0-0.2,0-0.3l6.2-1.6v17.3l-9.7,2.4L78.4,38.7z
	 M62.6,41.5L57.6,43c-5.1-8.8-9.9-17.1-11.2-19.4l2.7-2.1l6.2-1.6L62.6,41.5z M57,55.2c0.3-0.4,0.3-1,0-1.4l1.3-6.9
	c0.6,1,1.1,1.9,1.7,2.9l-1.3,10.8l-3.1,0.8l1.1-5.9C56.8,55.4,56.9,55.3,57,55.2z M66.7,61.2c1.6,2.8,2.8,4.9,3.5,6.1L68.7,75
	l-5.3,0.9l-9.5,1.5c-0.1,0-0.1,0-0.2,0.1l-1.2,0.4l2.6-13.8L66.7,61.2z M63.8,78.4l4.4-0.8L64.8,95l-8.3,1.8L59.6,79L63.8,78.4z
	 M70.8,77.2l6.6-1.1l-0.9,17.2l-9.2,1.3L70.8,77.2z M103.8,72.4l0.8,17L99.7,90L99,72.4L103.8,72.4z M104.5,32.3l2.6,0.5l-1.8,16.5
	l0,0L104.5,32.3z M134.7,74.3l2,16.4l-10.4-0.5l-0.7-16.6L134.7,74.3z M135.9,74.4l2.5,0.2l4.2,16.3l-4.7-0.2L135.9,74.4z
	 M147.1,69.1l-3-11.7c0.1-0.5,0-0.9-0.3-1.3l-0.3-1.3l2.9-5.8c0.1,0,0.2,0,0.3-0.1l16.7-9.2L147.1,69.1z M165.6,35.7l-17.3,9.5
	l10.1-20.3l8.2,8.8L165.6,35.7z M29.2,34.2l-4.3-3L43.5,17l56.7-14.4l61.6,14.9l11,14.6l-2.7,1.6L156.4,19c-0.2-0.2-0.4-0.3-0.6-0.4
	L100.5,6.1c-0.2,0-0.4,0-0.6,0L48.2,19.1c-0.2,0-0.3,0.1-0.5,0.2L29.6,33.4C29.4,33.6,29.2,33.9,29.2,34.2z M31,35.5
	c0.1,0,0.1,0,0.2-0.1l1.7-1.4l1.6,3.9L31,35.5z M33.9,33.3l11.4-8.9c1.4,2.4,6.1,10.5,11.1,19.2c-0.1,0.2-0.2,0.4-0.1,0.6
	c0,0,0,0,0,0c0,0,0,0,0,0l-1.5,7.9L36.4,39.3L33.9,33.3z M38.2,43.6l16.1,11.2l-3.6,19L38.2,43.6z M51.9,80.7l2.4-0.8l4-0.6
	l-3.2,17.8l-6.6,1.4L51.9,80.7z M46.1,82.7l3.1-1.1l-3.3,17.4l-0.5,0.1L46.1,82.7z M44.8,83.2l-0.7,16.3l-3.5,0.8V84.7c0,0,0,0,0,0
	L44.8,83.2z M35.7,86.3l3.6-1.3v15.4l-3.6,0.8V86.3z M35.4,104l9.8-2.1l2.9-0.6l0,0l16.2-3.5l2.7-0.5l37.8-5.3l2.5-0.1l36,1.7
	l2.6,0.1l4.9,0.2l2.7,0.6l25.9,6.9l-24.2-0.5l-2.6,0l-4.9-0.1l-2.6,0l-34.4-0.7l-3.1,0.3l-2.5,0.2l-39.6,3.6l-2.6,0.2l-15.8,1.5
	l-2.6,0.2l-15.4,1.4L35.4,104z M159,141l-1,0l-1.9-7.3l3.6-4.8l2.1,8.3L159,141z M162.2,138.8l0.5,2l-2.1,0.1L162.2,138.8z
	 M150.3,121.1l-41.7,1.5l-0.9-19.9l3-0.3l35,0.7L150.3,121.1z M148.3,103.2l4.9,0.1l3.6,14.3l-4.2,2.4L148.3,103.2z M130,124.4
	l2.6,17.2l-11.4,0.3l-2.2-17.1L130,124.4z M131.2,124.3l11.2-0.4l2.7,17.4l-11.3,0.2L131.2,124.3z M143.7,123.9l7.3-0.3l2.8,11.1
	l-4.9,6.5l-2.6,0.1L143.7,123.9z M154.2,136.3l1.2,4.8l-4.9,0.1L154.2,136.3z M153.3,122.5l4.2-2.4l1.8,7.2l-3.6,4.8L153.3,122.5z
	 M159.8,119l6.7-1.2l-5.2,7L159.8,119z M159.1,116.6l-3.3-13.2l21.1,0.4l-8.2,11L159.1,116.6z M84.2,123.5c-5.1,0-14.4,0-22.5,0
	l3.3-16.8l40.2-3.7l0.9,19.7L84.2,123.5z M96.9,142.7l-11,0.5V126l10.7-0.4L96.9,142.7z M84.7,126v17.2l-11.3,0.5l1.2-17.7
	c3.2,0,6.5,0,9.6,0L84.7,126z M40.2,142.2l3.1-16.5c0.4,0.1,0.8,0.1,1.2,0.1l1.4,1.9L43,144.4c-0.4,0-0.7,0-1.1,0L40.2,142.2z
	 M40.3,144.4c-0.2,0-0.4,0-0.6,0l0.1-0.6L40.3,144.4z M50.4,123.6l-5.2-7.6l1.4-7.5l15.8-1.5l-3.3,16.6
	C55.7,123.6,52.7,123.6,50.4,123.6z M54.5,126.1L54,129l-2-2.9C52.8,126.1,53.6,126.1,54.5,126.1z M48.9,123.6c-1.5,0-2.5,0-2.7,0
	c-0.1,0-0.8-0.1-1.9-0.2l-0.4-0.5l1-5.1L48.9,123.6z M46.2,126.1L46.2,126.1L46.2,126.1C46.2,126.1,46.2,126.1,46.2,126.1z
	 M43.2,113l-2.7-4l3.5-0.3L43.2,113z M42.9,114.7l-1,5.2l-7.3-10.4l4.5-0.4L42.9,114.7z M46.9,129.3l5.8,8.3l-1.1,6.9
	c-3.1-0.1-5.5-0.1-7.4-0.1L46.9,129.3z M47.2,127.5l0.2-1.4c0.8,0,1.8,0,3.1,0l3.2,4.8l-0.8,4.9L47.2,127.5z M53.8,139l1.8,2.6
	l-0.6,2.9c-0.7,0-1.4,0-2.1,0L53.8,139z M54,137.3l0.7-4.9l2,3l-0.9,4.6L54,137.3z M55.1,130.5l0.7-4.5c0.6,0,1.1,0,1.7,0
	c0.4,0,0.8,0,1.2,0l-1.5,7.6L55.1,130.5z M58.8,138.3l4,5.9l-3.7,0.2l-1.1-1.6L58.8,138.3z M59.2,136.6l2.1-10.5c1.8,0,3.6,0,5.6,0
	L64.2,144L59.2,136.6z M68,126.1c1.7,0,3.5,0,5.3,0l-1.2,17.7l-6.8,0.3L68,126.1z M106.2,125.3l0.8,16.9l-8.9,0.4l-0.3-17
	L106.2,125.3z M9,119c1.9-1.1,4.6-2.7,7.3-4.2l4.6,5.7C16.3,119.9,12,119.4,9,119z M22.7,120.7l-5.3-6.5c2.2-1.3,4.4-2.6,6.3-3.6
	l9.4-0.9l8.4,12l-0.2,1.3C36.7,122.4,29.5,121.5,22.7,120.7z M25,123.5c6.1,0.7,11.9,1.4,15.8,1.9l-2.7,14.2L25,123.5z M32.1,184.7
	l6.2-32.5l8.5,0L32.1,184.7z M38.8,149.7l0.5-2.8c2.4-0.1,9.8,0,15.3,0.1l-0.5,2.7H38.8z M56.9,179.9L48.1,193l8-40.7l6.4-0.2
	L56.9,179.9z M60.5,174.5l4.5-22.6l11-0.4L60.5,174.5z M86.1,151.1l7.3-0.3l0.6,15L86.1,151.1z M94.6,148.3
	C94.6,148.3,94.6,148.3,94.6,148.3C94.6,148.3,94.6,148.3,94.6,148.3l-38,1.4l0.5-2.7l50-2.3l0.1,3.2L94.6,148.3z M96.8,170.9
	l-0.9-20.1l11.4-0.4l2,43.9L96.8,170.9z M109.5,142.1l-0.8-16.9l8.9-0.3l2.2,17L109.5,142.1z M111.8,193.5l-2-43.1h5.1l2.4,27.5
	C115.8,182.3,114,187.5,111.8,193.5z M119.5,172.1l-1.9-21.8h9.8C126.4,152.8,124.3,158.6,119.5,172.1z M139.2,150.3h0.6
	c0,0.3,0.1,0.6,0.1,1L139.2,150.3z M109.8,147.8l-0.1-3.2l46.4-1l1.1,4.2L109.8,147.8z M167.4,188.2l-24.3-32.6
	c-0.4-2.4-0.6-4.3-0.8-5.3h15.4L167.4,188.2z M164.1,146.5l-4.5,1.1l-1-4.1l4.7-0.2L164.1,146.5z M163.7,134.6l-2.1-8.3l6.6-8.9
	l9.6-1.8L163.7,134.6z M170.4,114.5l8-10.7L189,104l3.8,6.4L170.4,114.5z"/>
</svg>
