<?xml version="1.0" encoding="UTF-8"?>
<svg id="Capa_2" data-name="Capa 2" xmlns="http://www.w3.org/2000/svg" xmlns:xlink="http://www.w3.org/1999/xlink" viewBox="0 0 65.07 43.63">
  <defs>
    <style>
      .cls-1 {
        fill: url(#Degradado_sin_nombre_37);
      }

      .cls-1, .cls-2 {
        stroke-width: 0px;
      }

      .cls-2 {
        fill: #fff;
      }
    </style>
    <linearGradient id="Degradado_sin_nombre_37" data-name="Degradado sin nombre 37" x1="32.53" y1=".43" x2="32.53" y2="21.24" gradientUnits="userSpaceOnUse">
      <stop offset=".02" stop-color="#98ce00"/>
      <stop offset="1" stop-color="#439615"/>
    </linearGradient>
  </defs>
  <g id="Footer">
    <g>
      <g>
        <path class="cls-2" d="m.04,32.29c.02-.06.03-.12.05-.17.02-.05.04-.1.05-.14l2.48-6.16s.03-.07.08-.11c.04-.04.1-.06.17-.06h.74c.07,0,.13.02.16.06.03.04.06.07.07.1l.15.36,2.43,6.07s0,.03,0,.05,0,.04,0,.06c0,.09-.07.14-.2.14h-.9c-.07,0-.12-.01-.16-.04-.04-.03-.07-.07-.09-.13l-.08-.21c-.06-.15-.12-.29-.17-.44-.06-.15-.11-.3-.17-.45H1.81c-.08.21-.16.42-.23.6-.08.19-.14.35-.19.49-.04.11-.12.17-.24.17H.23c-.06,0-.1-.01-.14-.03-.04-.02-.05-.05-.05-.1,0-.02,0-.03,0-.04Zm3.2-4.9c-.17.42-.33.86-.49,1.31-.16.45-.33.89-.49,1.31h1.96l-.97-2.62Z"/>
        <path class="cls-2" d="m11.28,27.45s-.08,0-.11-.03c-.03-.02-.07-.05-.11-.08h0c-.06-.06-.13-.13-.23-.2-.09-.07-.19-.14-.31-.2-.11-.06-.24-.11-.37-.16-.13-.04-.26-.06-.4-.06-.17,0-.32.02-.45.06-.13.04-.24.09-.33.16s-.16.14-.2.23c-.05.09-.07.18-.07.28,0,.11.03.21.1.29s.16.16.28.22c.12.06.25.12.41.18.15.05.31.11.48.16.19.06.38.12.57.19.19.07.37.14.54.23.17.08.33.18.48.28.15.1.28.22.39.35.11.13.19.28.26.45.06.16.09.35.09.55,0,.33-.07.64-.2.9-.13.27-.32.5-.56.69s-.52.34-.84.44c-.32.1-.66.15-1.03.15-.24,0-.47-.03-.7-.08-.23-.06-.46-.13-.67-.23-.21-.1-.42-.22-.61-.37-.19-.14-.36-.3-.51-.48h0s0-.01,0-.01c-.07-.08-.1-.15-.1-.21,0-.03,0-.07.03-.1.02-.03.05-.06.08-.1l.15-.15s.09-.08.15-.13c.05-.05.1-.09.16-.13.05-.04.1-.07.14-.1.04-.03.08-.04.11-.04.04,0,.08.01.12.04.04.03.07.05.09.08l.02.02h0c.11.1.23.2.36.29.13.09.27.17.41.25.14.07.28.13.42.17.14.04.27.06.39.06.17,0,.33-.02.47-.06.15-.04.27-.1.38-.18.11-.08.19-.17.25-.28.06-.11.09-.23.09-.37s-.04-.25-.12-.35c-.08-.1-.18-.18-.31-.25-.13-.07-.27-.13-.43-.19-.16-.05-.32-.1-.48-.15-.37-.11-.7-.24-.98-.37-.28-.13-.51-.28-.7-.44-.19-.16-.33-.35-.42-.55-.09-.2-.14-.43-.14-.69,0-.28.06-.54.17-.78s.28-.43.49-.6c.21-.17.47-.3.76-.39.3-.09.63-.14,1-.14.28,0,.56.04.85.13.29.09.55.21.8.36.07.05.15.1.23.16.08.06.15.12.21.18.06.06.12.12.16.17.04.06.06.1.06.14,0,.04,0,.07-.03.11-.02.04-.04.07-.07.1l-.14.15h0s-.09.09-.14.15c-.05.05-.1.1-.15.14-.05.04-.09.08-.13.1-.04.03-.07.04-.1.04Z"/>
        <path class="cls-2" d="m13.2,29.05c0-.32.04-.63.12-.93.08-.3.2-.58.35-.84.15-.26.34-.5.55-.71.21-.21.45-.4.71-.55.26-.15.54-.27.84-.35.3-.08.61-.13.93-.13s.63.04.93.13c.3.08.58.2.84.35.26.15.5.33.71.55.21.21.4.45.55.71.15.26.27.54.35.84.08.3.13.61.13.94s-.04.64-.13.93c-.08.3-.2.58-.35.84-.15.26-.33.5-.55.71-.21.21-.45.39-.71.55-.26.15-.54.27-.84.35s-.61.12-.93.12-.64-.04-.93-.12c-.3-.08-.58-.2-.84-.35-.26-.15-.5-.34-.71-.55-.21-.21-.39-.45-.55-.71-.15-.26-.27-.54-.35-.84-.08-.3-.12-.61-.12-.93Zm1.33,0c0,.31.06.6.17.87.11.27.26.5.46.7.19.2.42.36.69.47.26.12.55.17.86.17s.59-.06.86-.17c.26-.12.5-.27.69-.47.2-.2.35-.43.46-.7.11-.27.17-.56.17-.87s-.06-.59-.17-.86c-.11-.27-.27-.5-.46-.7-.2-.2-.43-.36-.69-.48-.26-.12-.55-.17-.86-.17s-.6.06-.86.17c-.26.12-.49.27-.69.48-.19.2-.35.44-.46.7-.11.27-.17.56-.17.86Z"/>
        <path class="cls-2" d="m20.98,25.84c0-.06.02-.11.06-.15.04-.04.09-.06.15-.06h4.83c.06,0,.1.02.15.05.04.03.07.08.08.15v.8c0,.06-.02.11-.06.16-.04.05-.09.07-.17.07h-1.75v5.37c0,.06-.02.1-.06.15-.04.04-.09.06-.16.06h-.9c-.06,0-.1-.02-.15-.06-.04-.04-.07-.09-.07-.15v-5.37h-1.75c-.06,0-.11-.02-.15-.06-.04-.04-.06-.1-.06-.17v-.8Z"/>
        <path class="cls-2" d="m28.6,29.69c0,.26.04.49.11.69.07.21.18.38.31.52s.29.25.48.33c.19.08.39.11.62.11.24,0,.45-.04.64-.12.19-.08.35-.19.48-.34.13-.15.23-.32.3-.52s.1-.43.1-.67v-3.85c0-.06.02-.1.06-.14.04-.04.09-.06.15-.06h.89c.06,0,.12.02.16.06.04.04.07.09.07.14v3.9c0,.47-.08.89-.23,1.24-.15.35-.36.65-.62.88-.26.24-.56.41-.91.53-.35.12-.71.17-1.1.17s-.75-.06-1.1-.19c-.35-.12-.65-.31-.91-.54-.26-.24-.47-.53-.62-.89-.15-.35-.23-.76-.23-1.21v-3.9s.02-.09.05-.14c.04-.04.08-.06.14-.06h.94s.09.02.14.06c.05.04.07.09.07.14v3.85Z"/>
        <path class="cls-2" d="m34.34,25.85c0-.14.07-.22.2-.22h2.81c.31,0,.6.06.87.17.27.12.5.27.7.47.2.2.36.43.47.7.11.27.17.56.17.86,0,.21-.03.41-.09.61-.06.19-.14.37-.24.54-.1.17-.23.31-.37.45-.14.13-.3.25-.48.34l1.19,2.36s.02.06.03.09c.02.03.02.06.02.1,0,.09-.05.14-.16.14h-1.07c-.11,0-.18-.06-.22-.17l-1.11-2.2s-.1,0-.16,0-.13,0-.23,0h-1.01v2.17c0,.13-.07.2-.21.2h-.92c-.06,0-.11-.02-.15-.05-.04-.03-.06-.08-.06-.15v-6.41Zm3.87,2c0-.13-.02-.26-.07-.38-.05-.12-.12-.23-.21-.33-.09-.1-.19-.18-.32-.24-.12-.06-.26-.1-.4-.11-.11,0-.21,0-.31,0-.1,0-.21,0-.32,0h-.9v2.13h1.38c.05,0,.11,0,.17,0,.14,0,.28-.04.4-.1.12-.06.22-.14.31-.23.09-.1.15-.21.2-.33.05-.12.07-.25.07-.39Z"/>
        <path class="cls-2" d="m40.73,25.84c0-.06.02-.1.05-.14.03-.04.08-.06.15-.06h.91c.05,0,.1.02.15.06.05.04.07.09.07.15v6.42c0,.13-.07.2-.22.2h-.91c-.13,0-.2-.07-.2-.2v-6.42Z"/>
        <path class="cls-2" d="m47.43,27.45s-.08,0-.11-.03c-.03-.02-.07-.05-.11-.08h0c-.06-.06-.13-.13-.23-.2-.09-.07-.19-.14-.31-.2-.11-.06-.24-.11-.37-.16-.13-.04-.26-.06-.4-.06-.17,0-.32.02-.45.06-.13.04-.24.09-.33.16s-.16.14-.2.23c-.05.09-.07.18-.07.28,0,.11.03.21.1.29s.16.16.28.22c.12.06.25.12.41.18.15.05.31.11.48.16.19.06.38.12.57.19.19.07.37.14.54.23.17.08.33.18.48.28.15.1.28.22.39.35.11.13.19.28.26.45.06.16.09.35.09.55,0,.33-.07.64-.2.9-.13.27-.32.5-.56.69s-.52.34-.84.44c-.32.1-.66.15-1.03.15-.24,0-.47-.03-.7-.08-.23-.06-.46-.13-.67-.23-.21-.1-.42-.22-.61-.37-.19-.14-.36-.3-.51-.48h0s0-.01,0-.01c-.07-.08-.1-.15-.1-.21,0-.03,0-.07.03-.1.02-.03.05-.06.08-.1l.15-.15s.09-.08.15-.13c.05-.05.1-.09.16-.13.05-.04.1-.07.14-.1.04-.03.08-.04.11-.04.04,0,.08.01.12.04.04.03.07.05.09.08l.02.02h0c.11.1.23.2.36.29.13.09.27.17.41.25.14.07.28.13.42.17.14.04.27.06.39.06.17,0,.33-.02.47-.06.15-.04.27-.1.38-.18.11-.08.19-.17.25-.28.06-.11.09-.23.09-.37s-.04-.25-.12-.35c-.08-.1-.18-.18-.31-.25-.13-.07-.27-.13-.43-.19-.16-.05-.32-.1-.48-.15-.37-.11-.7-.24-.98-.37-.28-.13-.51-.28-.7-.44-.19-.16-.33-.35-.42-.55-.09-.2-.14-.43-.14-.69,0-.28.06-.54.17-.78s.28-.43.49-.6c.21-.17.47-.3.76-.39.3-.09.63-.14,1-.14.28,0,.56.04.85.13.29.09.55.21.8.36.07.05.15.1.23.16.08.06.15.12.21.18.06.06.12.12.16.17.04.06.06.1.06.14,0,.04,0,.07-.03.11-.02.04-.04.07-.07.1l-.14.15h0s-.09.09-.14.15c-.05.05-.1.1-.15.14-.05.04-.09.08-.13.1-.04.03-.07.04-.1.04Z"/>
        <path class="cls-2" d="m50,25.84c0-.06.03-.11.07-.14.04-.04.09-.06.15-.06h1.15c.11,0,.18.06.21.17l1.62,4.52c.27-.76.55-1.51.82-2.26.27-.75.55-1.5.82-2.26.04-.12.11-.17.21-.17h1.15c.06,0,.11.02.15.06.04.04.06.09.06.14.11,1.07.23,2.14.34,3.21.12,1.07.23,2.13.35,3.21h0c0,.14-.07.2-.2.2h-.89c-.14,0-.21-.07-.22-.2l-.47-4.34-1.53,4.23s-.04.08-.07.12c-.03.04-.07.06-.11.06h-.83s-.08-.02-.11-.05c-.03-.04-.06-.08-.07-.12-.25-.71-.5-1.41-.76-2.11-.25-.7-.51-1.4-.77-2.11l-.47,4.34c0,.13-.07.2-.21.2h-.89c-.13,0-.2-.07-.2-.2l.69-6.42Z"/>
        <path class="cls-2" d="m58.01,29.05c0-.32.04-.63.12-.93.08-.3.2-.58.35-.84.15-.26.34-.5.55-.71.21-.21.45-.4.71-.55.26-.15.54-.27.84-.35.3-.08.61-.13.93-.13s.63.04.93.13c.3.08.58.2.84.35.26.15.5.33.71.55.21.21.4.45.55.71.15.26.27.54.35.84.08.3.13.61.13.94s-.04.64-.13.93c-.08.3-.2.58-.35.84-.15.26-.33.5-.55.71-.21.21-.45.39-.71.55-.26.15-.54.27-.84.35s-.61.12-.93.12-.64-.04-.93-.12c-.3-.08-.58-.2-.84-.35-.26-.15-.5-.34-.71-.55-.21-.21-.39-.45-.55-.71-.15-.26-.27-.54-.35-.84-.08-.3-.12-.61-.12-.93Zm1.33,0c0,.31.06.6.17.87.11.27.26.5.46.7.19.2.42.36.69.47.26.12.55.17.86.17s.59-.06.86-.17c.26-.12.5-.27.69-.47.2-.2.35-.43.46-.7.11-.27.17-.56.17-.87s-.06-.59-.17-.86c-.11-.27-.27-.5-.46-.7-.2-.2-.43-.36-.69-.48-.26-.12-.55-.17-.86-.17s-.6.06-.86.17c-.26.12-.49.27-.69.48-.19.2-.35.44-.46.7-.11.27-.17.56-.17.86Z"/>
      </g>
      <g>
        <path class="cls-2" d="m1.6,34.98H.05s-.05.02-.05.05v.26s.02.05.05.05h.6v2.03s.02.05.05.05h.26s.05-.02.05-.05v-2.03h.6s.05-.02.05-.05v-.26s-.02-.05-.05-.05Z"/>
        <path class="cls-2" d="m5.46,34.98h-.26s-.05.02-.05.05v1.5c0,.15-.05.27-.16.38-.11.1-.24.15-.39.15-.14,0-.26-.06-.36-.17-.1-.11-.15-.23-.15-.38v-1.49s-.02-.05-.05-.05h-.26s-.05.02-.05.05v1.48c0,.25.09.46.26.64.17.17.38.26.61.26,0,0,.01,0,.02,0,.24,0,.44-.09.61-.26.17-.17.25-.38.25-.62v-1.5s-.02-.05-.05-.05Z"/>
        <path class="cls-2" d="m8.97,36.35c.14-.04.26-.12.35-.23.1-.12.16-.26.16-.42,0-.2-.06-.37-.2-.51-.14-.14-.31-.21-.5-.21h-.87s-.05.02-.05.05v2.33s.02.05.05.05h.26s.05-.02.05-.05v-.98h.37l.55,1s.02.03.04.03h.3s.03,0,.04-.02c0-.01,0-.03,0-.05l-.54-.99Zm-.75-1.02h.57c.1,0,.18.03.25.1.07.07.1.15.1.25s-.03.18-.1.24-.15.1-.25.1h-.57v-.69Z"/>
        <rect class="cls-2" x="11.72" y="34.98" width=".35" height="2.43" rx=".05" ry=".05"/>
        <path class="cls-2" d="m15.63,36.23h0c-.06-.05-.13-.1-.22-.14-.03-.02-.07-.03-.11-.05l-.05-.02s-.03-.01-.05-.02l-.07-.03h0c-.14-.07-.24-.12-.29-.17-.06-.05-.09-.11-.09-.18,0-.18.12-.27.37-.27.1,0,.19.02.28.06.03.01.06.03.09.05.01,0,.02.02.03.02,0,0,.01.01.02.02.02.02.04.01.06,0l.19-.18s.02-.03.02-.04c0,0,0-.02-.02-.03,0,0-.02-.02-.03-.03-.02-.01-.03-.02-.05-.04-.04-.03-.09-.06-.14-.09-.14-.07-.29-.11-.45-.11-.22,0-.4.06-.53.17-.13.11-.2.26-.2.46,0,.18.07.33.22.45.05.05.12.09.19.13.03.02.06.03.1.05l.16.08h0c.16.07.28.14.34.19.07.06.11.14.11.22,0,.22-.15.33-.45.33-.12,0-.23-.02-.33-.07-.04-.02-.07-.04-.11-.06-.01,0-.02-.02-.03-.02l-.02-.02s-.04-.02-.06,0l-.19.18s-.02.03-.02.03c0,0,0,.02.02.03.01.01.02.02.04.03.02.01.03.03.05.04.05.04.1.07.16.1.16.08.33.12.51.12.24,0,.44-.06.58-.18.14-.12.22-.29.22-.5,0-.19-.08-.36-.24-.5Z"/>
        <path class="cls-2" d="m20.07,34.98h-.1s-.04,0-.06.03l-.79.89-.79-.89s-.04-.03-.06-.03h-.1s-.05.02-.05.05v2.34s.02.05.05.05h.25s.05-.02.05-.05v-1.7l.62.7s.02.02.03.02c0,0,.02,0,.04-.02l.63-.7v1.7s.02.05.05.05h.25s.05-.02.05-.05v-2.34s-.02-.05-.05-.05Z"/>
        <path class="cls-2" d="m23.53,34.98c-.33,0-.62.12-.86.36s-.36.53-.36.86.12.62.36.86c.24.24.53.36.86.36s.62-.12.86-.36c.24-.24.36-.52.36-.86s-.12-.62-.36-.86-.53-.36-.86-.36Zm0,2.07c-.24,0-.44-.08-.61-.25-.17-.17-.25-.37-.25-.61s.08-.44.25-.61c.17-.17.37-.25.61-.25s.44.08.61.25c.17.17.25.37.25.61s-.08.44-.25.61c-.17.17-.37.25-.61.25Z"/>
        <path class="cls-2" d="m30.87,36.23h0c-.06-.05-.13-.1-.22-.14-.03-.02-.07-.03-.11-.05l-.05-.02s-.03-.01-.05-.02l-.07-.03h0c-.14-.07-.24-.12-.29-.17-.06-.05-.09-.11-.09-.18,0-.18.12-.27.37-.27.1,0,.19.02.28.06.03.01.06.03.09.05.01,0,.02.02.03.02,0,0,.01.01.02.02.02.02.04.01.06,0l.19-.18s.02-.03.02-.04c0,0,0-.02-.02-.03,0,0-.02-.02-.03-.03-.02-.01-.03-.02-.05-.04-.04-.03-.09-.06-.14-.09-.14-.07-.29-.11-.45-.11-.22,0-.4.06-.53.17-.13.11-.2.26-.2.46,0,.18.07.33.22.45.05.05.12.09.19.13.03.02.06.03.1.05l.16.08h0c.16.07.28.14.34.19.07.06.11.14.11.22,0,.22-.15.33-.45.33-.12,0-.23-.02-.33-.07-.04-.02-.07-.04-.11-.06-.01,0-.02-.02-.04-.03l-.02-.02s-.04-.02-.06,0l-.19.18s-.02.03-.02.03c0,0,0,.02.02.03.01.01.02.02.04.03.02.01.03.03.05.04.05.04.1.07.16.1.16.08.33.12.51.12.24,0,.44-.06.58-.18.14-.12.22-.29.22-.5,0-.19-.08-.36-.24-.5Z"/>
        <path class="cls-2" d="m34.41,34.98c-.33,0-.62.12-.86.36-.24.24-.36.53-.36.86s.12.62.36.86c.24.24.52.36.86.36s.62-.12.86-.36c.24-.24.36-.52.36-.86s-.12-.62-.36-.86-.53-.36-.86-.36Zm0,2.07c-.24,0-.44-.08-.61-.25s-.25-.37-.25-.61.08-.44.25-.61c.17-.17.37-.25.61-.25s.44.08.61.25c.17.17.25.37.25.61s-.08.44-.25.61c-.17.17-.37.25-.61.25Z"/>
        <path class="cls-2" d="m39.07,36.23h0c-.06-.05-.13-.1-.22-.14-.03-.02-.07-.03-.11-.05l-.05-.02s-.03-.01-.05-.02l-.07-.03h0c-.14-.07-.24-.12-.29-.17-.06-.05-.09-.11-.09-.18,0-.18.12-.27.37-.27.1,0,.19.02.28.06.03.01.06.03.09.05.01,0,.02.02.03.02,0,0,.01.01.02.02.02.02.04.01.06,0l.19-.18s.02-.03.02-.04c0,0,0-.02-.02-.03,0,0-.02-.02-.03-.03-.02-.01-.03-.02-.05-.04-.04-.03-.09-.06-.14-.09-.14-.07-.29-.11-.45-.11-.22,0-.4.06-.53.17-.13.11-.2.26-.2.46,0,.18.07.33.22.45.05.05.12.09.19.13.03.02.06.03.1.05l.16.08h0c.16.07.28.14.34.19.07.06.11.14.11.22,0,.22-.15.33-.45.33-.12,0-.23-.02-.33-.07-.04-.02-.07-.04-.11-.06-.01,0-.02-.02-.04-.03l-.02-.02s-.04-.02-.06,0l-.19.18s-.02.03-.02.03c0,0,0,.02.02.03.01.01.02.02.04.03.02.01.03.03.05.04.05.04.1.07.16.1.16.08.33.12.51.12.24,0,.44-.06.58-.18.14-.12.22-.29.22-.5,0-.19-.08-.36-.24-.5Z"/>
        <path class="cls-2" d="m42.96,34.98h-1.55s-.05.02-.05.05v.26s.02.05.05.05h.6v2.03s.02.05.05.05h.26s.05-.02.05-.05v-2.03h.6s.05-.02.05-.05v-.26s-.02-.05-.05-.05Z"/>
        <path class="cls-2" d="m46.74,34.98h-1.54s-.05.02-.05.05v2.34s.02.05.05.05h1.54s.05-.02.05-.05v-.26s-.02-.05-.05-.05h-1.24v-.69h.89s.05-.02.05-.05v-.26s-.02-.05-.05-.05h-.89v-.69h1.24s.05-.02.05-.05v-.26s-.02-.05-.05-.05Z"/>
        <path class="cls-2" d="m50.69,34.98h-.25s-.05.02-.05.05v1.62l-1.23-1.64s-.02-.02-.04-.02h-.11s-.05.02-.05.05v2.34s.02.05.05.05h.25s.05-.02.05-.05v-1.6l1.22,1.63s.02.02.04.02h.12s.05-.02.05-.05v-2.34s-.02-.05-.05-.05Z"/>
        <rect class="cls-2" x="53.12" y="34.98" width=".35" height="2.43" rx=".05" ry=".05"/>
        <path class="cls-2" d="m57.24,36.08c.12-.13.18-.28.17-.45,0-.18-.07-.33-.2-.46-.13-.13-.28-.19-.46-.19h-.86s-.05.02-.05.05v2.34s.02.05.05.05h.92c.2,0,.37-.07.52-.2.15-.14.22-.3.23-.5,0-.13-.03-.26-.09-.37-.06-.1-.13-.19-.23-.25Zm-.27-.22c-.06.06-.13.09-.22.09h-.55v-.62h.55c.09,0,.16.03.22.09.06.06.09.13.09.22s-.03.16-.09.22Zm.12,1.08h0c-.07.07-.16.11-.26.11h-.63v-.75h.63c.1,0,.19.04.26.11.07.07.11.16.11.26s-.04.19-.11.26Z"/>
        <path class="cls-2" d="m61.23,37.05h-1.01v-2.03s-.02-.05-.05-.05h-.26s-.05.02-.05.05v2.34s.02.05.05.05h1.32s.05-.02.05-.05v-.26s-.02-.05-.05-.05Z"/>
        <path class="cls-2" d="m65.02,35.33s.05-.02.05-.05v-.26s-.02-.05-.05-.05h-1.54s-.05.02-.05.05v2.34s.02.05.05.05h1.54s.05-.02.05-.05v-.26s-.02-.05-.05-.05h-1.24v-.69h.89s.05-.02.05-.05v-.26s-.02-.05-.05-.05h-.89v-.69h1.24Z"/>
      </g>
      <g>
        <path class="cls-2" d="m16.84,43.16s0-.01,0-.02v-.02c-.02-.06-.04-.12-.09-.17-.03-.04-.08-.08-.14-.11-.04-.03-.09-.05-.15-.08l-.07-.03-.08-.03c-.06-.02-.1-.05-.14-.07-.05-.03-.08-.06-.11-.09,0,0,0,0,0-.01h0s-.02-.05-.02-.05c0,0,0,0,0-.01h0s0-.04,0-.04v-.03s0-.02,0-.02c0,0,0-.02,0-.03,0,0,0,0,0-.01h0c.01-.05.03-.09.05-.11.02-.02.05-.04.09-.06.03-.01.06-.02.11-.03h.03s.02,0,.03,0h.05s.06,0,.09.01c.05.01.1.03.14.05.02.01.04.02.06.04,0,0,.02.01.02.02,0,0,.01,0,.02.01.01.01.03,0,.04,0l.05-.05s.01-.03,0-.04c0,0-.02-.01-.02-.02-.01-.01-.03-.02-.04-.03-.02-.01-.04-.03-.06-.04-.06-.03-.11-.05-.17-.07-.04,0-.08-.01-.11-.01h-.06s-.02,0-.03,0h-.03c-.05,0-.1.02-.14.04-.05.02-.1.05-.13.09-.04.04-.07.09-.09.15v.02s0,.01,0,.02c0,.02,0,.03,0,.04v.06s.01.05.01.05v.02s.01.01.02.02v.02s.02.02.03.04v.02s.02.01.03.02c.03.04.08.08.14.11.04.02.09.05.15.07l.07.03.07.03c.12.05.2.11.24.16.03.03.05.07.06.11v.02s0,.01,0,.02v.06s0,0,0,0v.03s-.03.08-.05.11c-.02.03-.05.05-.09.07-.03.02-.07.03-.11.04h-.03s-.02,0-.03,0h-.03s-.04,0-.04,0h0s-.03,0-.03,0c0,0-.02,0-.03,0h-.02s-.06-.01-.09-.02c-.05-.01-.1-.03-.14-.06-.02,0-.03-.02-.05-.03-.01,0-.02-.02-.03-.03h-.01s-.03-.02-.04-.01l-.06.05s0,.01,0,.02c0,0,0,.01,0,.02,0,0,.01.01.02.02.01.01.03.02.04.03.02.01.04.03.06.04.05.03.11.06.17.07.04.01.08.02.11.02h.03s.02,0,.03,0h.04s.06,0,.06,0h.03s.02,0,.04,0h.04c.05-.02.1-.03.14-.06.05-.03.1-.06.13-.11.04-.05.06-.1.07-.16v-.05s0,0,0,0v-.03s0-.05,0-.05Z"/>
        <path class="cls-2" d="m18.39,42.02s-.01-.02-.03-.02h-.1s-.02,0-.03.02l-.65,1.58s0,.02,0,.03c0,0,.01.01.02.01h.08s.02,0,.03-.02l.27-.65h.65l.27.65s.01.02.03.02h.08s.02,0,.02-.01c0,0,0-.02,0-.03l-.65-1.58Zm.2.82h-.54l.27-.66.27.66Z"/>
        <path class="cls-2" d="m20.87,42h-.07s-.03.01-.03.03v1.27l-.97-1.29s-.01-.01-.02-.01c-.02,0-.03.01-.03.03v1.57s.01.03.03.03h.07s.03-.01.03-.03v-1.27l.96,1.28s.01.01.02.01h0s.03-.01.03-.03v-1.57s-.01-.03-.03-.03Z"/>
        <path class="cls-2" d="m22.62,42h-1.01s-.03.01-.03.03v.07s.01.03.03.03h.44v1.47s.01.03.03.03h.08s.03-.01.03-.03v-1.47h.44s.03-.01.03-.03v-.07s-.01-.03-.03-.03Z"/>
        <path class="cls-2" d="m23.79,42.02s-.01-.02-.03-.02h-.1s-.02,0-.03.02l-.65,1.58s0,.02,0,.03c0,0,.01.01.02.01h.08s.02,0,.03-.02l.27-.65h.65l.27.65s.01.02.03.02h.08s.02,0,.02-.01c0,0,0-.02,0-.03l-.65-1.58Zm.2.82h-.54l.27-.66.27.66Z"/>
        <path class="cls-2" d="m26.85,42h-.58s-.03.01-.03.03v1.57s.01.03.03.03h.08s.03-.01.03-.03v-.71h.35l.4.73s.01.01.02.01h.09s.02,0,.02-.01c0,0,0-.02,0-.03l-.38-.7c.11,0,.21-.05.29-.13.09-.09.13-.2.13-.32h0c0-.12-.05-.22-.13-.31-.09-.08-.19-.13-.31-.13Zm0,.76h-.47v-.63h.47c.09,0,.16.03.22.09.06.06.09.14.09.22s-.03.16-.09.22c-.06.06-.13.09-.22.09Z"/>
        <path class="cls-2" d="m29.42,42.24h0c-.08-.07-.16-.13-.26-.17-.1-.04-.21-.06-.32-.06s-.22.02-.32.06c-.1.04-.18.1-.26.17-.07.08-.13.16-.18.26-.04.1-.06.21-.06.32s.02.22.06.32c.04.1.1.18.18.26.08.07.16.13.26.18.1.04.21.06.32.06s.22-.02.32-.06c.1-.04.18-.1.26-.18.07-.08.13-.16.17-.26.04-.1.06-.21.06-.32s-.02-.22-.06-.32c-.04-.1-.1-.18-.17-.26Zm.11.58c0,.09-.02.18-.05.27h0c-.03.08-.08.16-.15.22-.06.06-.14.11-.22.15-.17.07-.36.07-.53,0-.08-.03-.15-.08-.22-.15-.06-.06-.11-.14-.15-.22-.04-.08-.05-.17-.05-.27s.02-.18.05-.27c.03-.08.08-.16.15-.22.06-.06.14-.11.22-.15.08-.04.17-.05.27-.05s.18.02.27.05c.08.03.15.08.22.15.06.06.11.14.15.22.04.08.05.17.05.27Z"/>
        <path class="cls-2" d="m31.38,43.16s0-.01,0-.02v-.02c-.02-.06-.04-.12-.09-.17-.03-.04-.08-.08-.14-.11-.04-.03-.09-.05-.15-.08l-.07-.03-.08-.03c-.06-.03-.1-.05-.14-.07-.05-.03-.08-.06-.11-.09,0,0,0,0,0-.01h0s-.02-.05-.02-.05c0,0,0,0,0-.01h0s0-.04,0-.04v-.03s0-.02,0-.02c0,0,0-.02,0-.03,0,0,0,0,0-.01h0c.01-.05.03-.09.05-.11.02-.02.05-.04.09-.06.03-.01.06-.02.11-.03h.03s.02,0,.03,0h.05s.06,0,.09.01c.05.01.1.03.14.05.02.01.04.02.06.04,0,0,.02.01.02.02,0,0,.01,0,.02.01.01.01.03,0,.04,0l.05-.05s.01-.03,0-.04c0,0-.02-.01-.02-.02-.01-.01-.03-.02-.04-.03-.02-.01-.04-.03-.06-.04-.06-.03-.11-.05-.17-.07-.04,0-.08-.01-.11-.01h-.06s-.02,0-.03,0h-.03c-.05,0-.1.02-.14.04-.05.02-.1.05-.13.09-.04.04-.07.09-.09.15v.02s0,.01,0,.02c0,.02,0,.03,0,.04v.06s.01.05.01.05v.02s.01.01.02.02v.02s.02.02.03.04v.02s.02.01.03.02c.03.04.08.08.14.11.04.02.09.05.15.07l.07.03.07.03c.12.05.2.11.24.16.03.03.05.07.06.11v.02s0,.01,0,.02v.06s0,0,0,0v.03s-.03.08-.05.11c-.02.03-.05.05-.09.07-.03.02-.07.03-.11.04h-.03s-.02,0-.03,0h-.03s-.04,0-.04,0h0s-.03,0-.03,0c0,0-.02,0-.03,0h-.02s-.06-.01-.09-.02c-.05-.01-.1-.03-.14-.06-.02,0-.03-.02-.05-.03-.01,0-.02-.02-.03-.03h-.01s-.03-.02-.04-.01l-.06.05s0,.01,0,.02c0,0,0,.01,0,.02,0,0,.01.01.02.02.01.01.03.02.04.03.02.01.04.03.06.04.05.03.11.06.17.07.04.01.08.02.11.02h.03s.02,0,.03,0h.04s.06,0,.06,0h.03s.02,0,.04,0h.04c.05-.02.1-.03.14-.06.05-.03.1-.06.13-.11.04-.05.06-.1.07-.16v-.05s0,0,0,0v-.03s0-.05,0-.05Z"/>
        <path class="cls-2" d="m32.92,42.02s-.01-.02-.03-.02h-.1s-.02,0-.03.02l-.65,1.58s0,.02,0,.03c0,0,.01.01.02.01h.08s.02,0,.03-.02l.27-.65h.65l.27.65s.01.02.03.02h.08s.02,0,.02-.01c0,0,0-.02,0-.03l-.65-1.58Zm.2.82h-.54l.27-.66.27.66Z"/>
        <path class="cls-2" d="m36.47,42.23c-.07-.07-.16-.13-.26-.17-.1-.04-.21-.06-.31-.06h-.49s-.03.01-.03.03v1.57s.01.03.03.03h.47c.11,0,.22-.02.32-.07.1-.04.19-.1.27-.18.08-.08.14-.17.18-.26.04-.1.06-.21.06-.32,0-.11-.02-.21-.07-.31-.04-.1-.1-.18-.18-.25Zm-.57,1.27h-.38v-1.37h.38c.09,0,.18.02.27.05.08.04.15.08.22.15.06.06.11.14.15.22.04.08.05.17.05.27s-.02.18-.05.27h0c-.03.08-.08.16-.15.22-.06.06-.14.11-.22.15-.08.04-.17.05-.27.05Z"/>
        <path class="cls-2" d="m38.53,42h-1s-.03.01-.03.03v1.57s.01.03.03.03h1s.03-.01.03-.03v-.07s-.01-.03-.03-.03h-.9v-.62h.59s.03-.01.03-.03v-.07s-.01-.03-.03-.03h-.59v-.62h.9s.03-.01.03-.03v-.07s-.01-.03-.03-.03Z"/>
        <path class="cls-2" d="m41.48,43.4s-.01-.01-.02-.01c0,0-.01,0-.02,0-.11.07-.24.11-.37.11-.09,0-.18-.02-.27-.06-.08-.03-.16-.09-.22-.15-.06-.06-.11-.14-.15-.22-.04-.09-.05-.18-.05-.27,0-.18.06-.33.19-.46.12-.13.27-.2.45-.22.15-.01.3.02.42.11.01,0,.03,0,.04,0l.04-.06s0-.01,0-.02c0,0,0-.01-.01-.02-.15-.1-.33-.14-.51-.13-.21.02-.38.1-.53.25-.14.15-.22.33-.22.54,0,.11.02.22.06.32.04.1.1.19.18.27.07.08.16.14.26.18.1.04.21.07.32.07.16,0,.31-.04.44-.13,0,0,.01-.01.01-.02,0,0,0-.01,0-.02l-.04-.06Z"/>
        <path class="cls-2" d="m43.08,42.02s-.01-.02-.03-.02h-.1s-.02,0-.03.02l-.65,1.58s0,.02,0,.03c0,0,.01.01.02.01h.08s.02,0,.03-.02l.27-.65h.65l.27.65s.01.02.03.02h.08s.02,0,.02-.01c0,0,0-.02,0-.03l-.65-1.58Zm.2.82h-.54l.27-.66.27.66Z"/>
        <path class="cls-2" d="m45.28,42.75s.08-.08.11-.13c.03-.06.05-.12.05-.19,0-.12-.03-.22-.12-.31-.08-.08-.18-.13-.3-.13h-.56s-.03.01-.03.03v1.57s.01.03.03.03h.61c.13,0,.24-.05.33-.14.09-.09.14-.2.14-.33,0-.09-.03-.18-.08-.26-.05-.07-.11-.12-.18-.16Zm-.71-.04v-.57h.46c.08,0,.15.03.2.08.06.06.08.12.08.2s-.03.15-.08.2c-.06.06-.12.08-.2.08h-.46Zm.75.7c-.06.07-.14.1-.23.1h-.51v-.66h.51c.09,0,.17.03.23.1.07.06.1.14.1.24s-.03.17-.1.23h0Z"/>
        <path class="cls-2" d="m47,42.02s-.01-.02-.03-.02h-.1s-.02,0-.03.02l-.65,1.58s0,.02,0,.03c0,0,.01.01.02.01h.08s.02,0,.03-.02l.27-.65h.65l.27.65s.01.02.03.02h.08s.02,0,.02-.01c0,0,0-.02,0-.03l-.65-1.58Zm.2.82h-.54l.27-.66.27.66Z"/>
        <path class="cls-2" d="m49.23,43.5h-.74v-1.47s-.01-.03-.03-.03h-.07s-.03.01-.03.03v1.58s.01.03.03.03h.84s.03-.01.03-.03v-.08s-.01-.03-.03-.03Z"/>
      </g>
      <path class="cls-1" d="m32.53,0c-4.59,0-8.33,3.74-8.33,8.33,0,2.23,1.35,5.1,4.02,8.51,1.22,1.56,2.54,3.04,3.96,4.43.2.19.51.19.7,0,1.42-1.39,2.74-2.87,3.96-4.43,2.67-3.42,4.02-6.28,4.02-8.51,0-4.59-3.74-8.33-8.33-8.33Zm1.46,14.08c-.5.21-.77.33-1.35.35-.3.01-.69,0-1.21-.27-.55-.3-.25-.34-.13-.4.59-.32.84-.51,1.27-1.07.27-.35.48-.94.65-1.58.07-.27.14-.55.28-.79.24-.4.49-.69.83-1.03-.14.04-.26.11-.37.2-.32.27-.54.5-.76.86.13-1.81-.15-3.23-1.02-3.96.09.14.17.29.26.44.37.63.55,1.68.54,1.98-.26-.51-.84-.82-1.2-.81.14.04.27.1.38.17.31.21.55.52.68.87.09.33.12.65.09,1.12-.05.65-.11,1.08-.42,1.65-.01-.35-.39-1.05-.61-1.28-.4-.41-.68-.62-1.22-.86.28.18.53.41.73.68.35.45.69.98.76,1.53.04.33-.41,1.02-1,1.2-.86.25-1.62-.18-1.97-1.19-.27-.75-.15-1.45-.11-1.75.07-.55.23-1.13.39-1.57.8-2.15,2.4-4.03,2.8-4.45.16-.16.33-.17.5,0,.54.57,3.27,3.81,3.27,6.78,0,1.39-.76,2.56-2.05,3.18Z"/>
      <polygon class="cls-2" points=".02 39.42 8.15 39.38 16.27 39.35 32.53 39.32 48.79 39.35 56.92 39.38 65.05 39.42 56.92 39.47 48.79 39.5 32.53 39.52 16.27 39.5 8.15 39.47 .02 39.42"/>
    </g>
  </g>
</svg>