<?xml version="1.0" encoding="UTF-8"?>
<svg id="Capa_2" data-name="Capa 2" xmlns="http://www.w3.org/2000/svg" xmlns:xlink="http://www.w3.org/1999/xlink" viewBox="0 0 98.17 16.66">
  <defs>
    <style>
      .cls-1 {
        clip-path: url(#clippath-2);
      }

      .cls-2 {
        fill: #4998d6;
      }

      .cls-2, .cls-3, .cls-4 {
        stroke-width: 0px;
      }

      .cls-5 {
        clip-path: url(#clippath-6);
      }

      .cls-3 {
        fill: none;
      }

      .cls-6 {
        clip-path: url(#clippath-1);
      }

      .cls-7 {
        clip-path: url(#clippath-4);
      }

      .cls-4 {
        fill: #273b7d;
      }

      .cls-8 {
        clip-path: url(#clippath);
      }

      .cls-9 {
        clip-path: url(#clippath-3);
      }

      .cls-10 {
        clip-path: url(#clippath-5);
      }
    </style>
    <clipPath id="clippath">
      <rect class="cls-3" width="98.17" height="16.66"/>
    </clipPath>
    <clipPath id="clippath-1">
      <rect class="cls-3" width="98.17" height="16.66"/>
    </clipPath>
    <clipPath id="clippath-2">
      <rect class="cls-3" width="98.17" height="16.66"/>
    </clipPath>
    <clipPath id="clippath-3">
      <rect class="cls-3" y=".33" width="98.15" height="16.31"/>
    </clipPath>
    <clipPath id="clippath-4">
      <rect class="cls-3" width="98.17" height="16.66"/>
    </clipPath>
    <clipPath id="clippath-5">
      <rect class="cls-3" width="98.17" height="16.66"/>
    </clipPath>
    <clipPath id="clippath-6">
      <rect class="cls-3" width="98.17" height="16.66"/>
    </clipPath>
  </defs>
  <g id="Caja_de_comentaris" data-name="Caja de comentaris">
    <g>
      <g class="cls-8">
        <g class="cls-6">
          <g>
            <path class="cls-4" d="m38.5,1.82c0-.82.67-1.49,1.49-1.49s1.49.67,1.49,1.49c-.03.82-.72,1.47-1.55,1.44-.78-.03-1.41-.66-1.44-1.44"/>
            <path class="cls-2" d="m62.03,11.77c0-.83.67-1.5,1.49-1.5.83,0,1.5.67,1.49,1.5,0,.83-.67,1.49-1.49,1.49-.82,0-1.49-.67-1.49-1.5"/>
            <path class="cls-4" d="m14.01,11.12c-1.28,0-2.18-1.02-2.18-2.48s.89-2.48,2.18-2.48,2.19,1.02,2.19,2.48-.88,2.48-2.19,2.48Zm0-7.13c-2.72,0-4.69,1.96-4.69,4.65s1.97,4.65,4.69,4.65,4.71-1.96,4.71-4.65-1.98-4.66-4.71-4.66m21.59,4.89c-.09-.18-.21-.35-.36-.5l-.08-.09.09-.08c.12-.13.25-.29.38-.47l2.4-3.57h-2.91l-1.8,2.79c-.1.15-.31.22-.62.22h-.41V1.92c0-1.05-.66-1.2-1.37-1.2h-1.22v12.45h2.58v-3.73h.24c.29,0,.49.03.59.19l1.42,2.69c.4.73.79.85,1.54.85h1.98l-1.47-2.43-.98-1.85m12.52-4.91c-1.31,0-2.15.58-2.62,1.08l-.16.16-.06-.22c-.14-.53-.6-.82-1.3-.82h-1.16v8.99h2.57v-4.14c0-.41.05-.76.16-1.08.28-.97,1.08-1.57,2.07-1.57.8,0,1.11.42,1.11,1.51v3.92c0,.93.43,1.37,1.36,1.37h1.22v-5.72c0-2.27-1.11-3.47-3.21-3.47m-8.11.2h-1.21v6.95s0,2.04,0,2.04h1.34s.6,0,.6,0h.6s0,0,0,0v-7.62c0-.92-.43-1.36-1.34-1.36m-15.94,6.95c-1.28,0-2.18-1.02-2.18-2.48s.89-2.48,2.18-2.48,2.19,1.02,2.19,2.48-.88,2.48-2.19,2.48h0Zm0-7.13c-2.72,0-4.69,1.96-4.69,4.65s1.97,4.65,4.69,4.65,4.71-1.96,4.71-4.65-1.98-4.66-4.71-4.66"/>
          </g>
        </g>
      </g>
      <g class="cls-1">
        <g class="cls-9">
          <g class="cls-7">
            <g>
              <path class="cls-2" d="m79.01,11.12c-1.28,0-2.18-1.02-2.18-2.48s.9-2.48,2.18-2.48,2.19,1.02,2.19,2.48-.88,2.48-2.19,2.48Zm0-7.13c-2.72,0-4.69,1.96-4.69,4.65s1.97,4.65,4.69,4.65,4.71-1.96,4.71-4.65-1.98-4.66-4.71-4.66"/>
              <path class="cls-4" d="m56.74,10.73c-1.4,0-1.9-1.22-1.9-2.37,0-.5.13-2.15,1.77-2.15.81,0,1.9.23,1.9,2.23,0,1.89-.96,2.28-1.76,2.28Zm3.09-6.58c-.49,0-.86.19-1.05.55l-.07.14-.12-.1c-.41-.36-1.16-.78-2.36-.78-2.4,0-4.01,1.8-4.01,4.48s1.67,4.55,4.06,4.55c.82,0,1.46-.19,1.97-.58l.2-.15v.25c0,1.2-.78,1.86-2.18,1.86-.68,0-1.31-.17-1.72-.32-.54-.16-.86-.03-1.08.52l-.2.5-.29.74.18.09c.9.48,2.07.76,3.13.76,2.18,0,4.73-1.12,4.73-4.26V4.15s-1.18,0-1.18,0"/>
            </g>
          </g>
        </g>
      </g>
      <g class="cls-10">
        <g class="cls-5">
          <g>
            <path class="cls-4" d="m4.47,11.02h-2.09v-2.5c0-.53.21-.81.66-.87h1.42c1.01,0,1.67.64,1.67,1.68,0,1.06-.64,1.69-1.67,1.69h0Zm-2.09-6.73v-.66c0-.57.24-.85.78-.88h1.07c.92,0,1.46.55,1.46,1.46,0,.7-.38,1.51-1.43,1.51h-1.88v-1.44Zm4.75,2.49l-.38-.21.33-.28c.38-.33,1.02-1.07,1.02-2.35,0-1.96-1.52-3.22-3.87-3.22H1.26C.56.75,0,1.32,0,2.01v11.1h4.3c2.61,0,4.3-1.42,4.3-3.62,0-1.19-.54-2.2-1.46-2.71"/>
            <path class="cls-2" d="m95.16,4c-1.07,0-2.08.49-2.75,1.33l-.18.23-.15-.26c-.48-.87-1.29-1.3-2.43-1.3-1.19,0-1.99.66-2.36,1.06l-.24.26-.09-.35c-.14-.5-.58-.77-1.25-.77h-1.08v8.95s2.44,0,2.44,0v-3.95c0-.35.04-.69.13-1.05.23-.96.88-1.98,1.96-1.88.66.06.99.58.99,1.57v5.31h2.46v-3.95c0-.43.04-.76.14-1.08.2-.91.87-1.85,1.91-1.85.75,0,1.03.43,1.03,1.57v4c0,.9.4,1.31,1.31,1.31h1.15v-5.72c0-2.28-1-3.44-2.98-3.44m-22.27,6.05s-1.06,1.12-2.45,1.12c-1.26,0-2.54-.77-2.54-2.5,0-1.49.99-2.54,2.41-2.54.46,0,.98.16,1.06.44v.05c.12.39.48.66.88.66h1.34s0-1.17,0-1.17c0-1.55-1.97-2.11-3.29-2.11-2.83,0-4.88,1.97-4.88,4.68s2.03,4.68,4.83,4.68c2.43,0,3.75-1.6,3.76-1.61l.07-.09-1.06-1.76-.14.15"/>
          </g>
        </g>
      </g>
    </g>
  </g>
</svg>