<?xml version="1.0" encoding="UTF-8"?>
<svg id="Capa_2" data-name="Capa 2" xmlns="http://www.w3.org/2000/svg" viewBox="0 0 24.38 34.94">
  <defs>
    <style>
      .cls-1 {
        fill: #e24335;
      }

      .cls-1, .cls-2, .cls-3, .cls-4, .cls-5 {
        stroke-width: 0px;
      }

      .cls-2 {
        fill: #34a053;
      }

      .cls-3 {
        fill: #1a73e0;
      }

      .cls-4 {
        fill: #f3b404;
      }

      .cls-5 {
        fill: #4280ec;
      }
    </style>
  </defs>
  <g id="Footer">
    <g>
      <path class="cls-3" d="m15.87.57c-1.16-.37-2.4-.57-3.68-.57-3.74,0-7.1,1.69-9.34,4.35l5.76,4.84L15.87.57Z"/>
      <path class="cls-1" d="m2.85,4.35C1.01,6.54,0,9.32,0,12.18,0,14.47.46,16.34,1.21,18l7.41-8.81L2.85,4.35Z"/>
      <path class="cls-5" d="m12.19,7.53c2.58,0,4.66,2.09,4.66,4.67,0,1.1-.39,2.17-1.1,3.01l7.25-8.63c-1.49-2.87-4.06-5.03-7.14-6.01l-7.25,8.63c.88-1.06,2.19-1.67,3.57-1.67"/>
      <path class="cls-4" d="m12.19,16.85c-2.57,0-4.66-2.09-4.66-4.66,0-1.1.38-2.16,1.09-2.99L1.21,18.01c1.27,2.81,3.37,5.06,5.54,7.9l9.01-10.7c-.89,1.05-2.19,1.65-3.56,1.65"/>
      <path class="cls-2" d="m15.57,28.82c4.07-6.36,8.81-9.25,8.81-16.64,0-2.03-.5-3.94-1.37-5.62L6.75,25.91c.69.9,1.39,1.86,2.06,2.92,2.47,3.82,1.79,6.11,3.38,6.11s.91-2.3,3.38-6.12"/>
    </g>
  </g>
</svg>