<?xml version="1.0" encoding="UTF-8"?>
<svg id="Capa_2" data-name="Capa 2" xmlns="http://www.w3.org/2000/svg" viewBox="0 0 59.49 59.49">
  <defs>
    <style>
      .cls-1 {
        fill: #1d381e;
      }

      .cls-1, .cls-2 {
        stroke-width: 0px;
      }

      .cls-2 {
        fill: #e0d1c0;
      }
    </style>
  </defs>
  <g id="Body_1" data-name="Body 1">
    <g>
      <circle class="cls-1" cx="29.75" cy="29.75" r="29.75"/>
      <g>
        <path class="cls-2" d="m29.75,55.92c-14.31,0-25.95-11.64-25.95-25.95S15.44,4.03,29.75,4.03s25.95,11.64,25.95,25.95-11.64,25.95-25.95,25.95m0-51.35C15.74,4.57,4.34,15.97,4.34,29.98s11.4,25.4,25.4,25.4,25.4-11.4,25.4-25.4S43.75,4.57,29.75,4.57"/>
        <path class="cls-2" d="m29.75,47.82c-9.84,0-17.84-8-17.84-17.84S19.91,12.14,29.75,12.14s17.84,8,17.84,17.84-8,17.84-17.84,17.84m0-35.14c-9.54,0-17.3,7.76-17.3,17.3s7.76,17.3,17.3,17.3,17.3-7.76,17.3-17.3-7.76-17.3-17.3-17.3"/>
        <g>
          <path class="cls-2" d="m10.52,42.29c-.05-.08-.03-.13.03-.18l1.84-1.62-.02-.03-.69.48-2.07,1.3c-.07.04-.14.03-.18-.04l-.11-.18c-.04-.07-.03-.14.04-.18l3.42-2.15c.07-.04.13-.03.18.04l.23.37c.04.07.04.12-.03.18l-1.29,1.17-.78.67.02.03.94-.42,1.61-.66c.08-.03.14-.02.18.05l.23.37c.04.07.03.13-.04.18l-3.42,2.15c-.07.04-.14.03-.18-.04l-.11-.18c-.04-.07-.03-.14.04-.18l2.07-1.3.73-.41-.02-.03-2.25.96c-.07.03-.13.02-.17-.05l-.2-.31Z"/>
          <path class="cls-2" d="m11.98,45.55c-.06.05-.13.05-.18-.02l-.15-.18c-.05-.06-.05-.13.02-.18l3.1-2.59c.06-.05.13-.04.18.02l.15.18c.05.06.05.13-.01.18l-3.1,2.59Z"/>
          <path class="cls-2" d="m15.25,46.31l-.73,1.77c-.03.07-.11.12-.19.05l-.19-.18c-.05-.05-.06-.1-.03-.15l.74-1.79-.17-.16-1.21,1.29c-.06.06-.12.06-.19,0l-.17-.16c-.06-.06-.06-.12,0-.18l2.78-2.94c.06-.06.12-.06.18,0l.48.46c.57.53.48.92.06,1.37l-.34.36c-.33.35-.62.49-1.01.27Zm-.08-.56c.29.28.49.2.73-.05l.34-.36c.23-.24.3-.45,0-.73l-.22-.2-1.08,1.14.22.2Z"/>
          <path class="cls-2" d="m16.87,49.91l.36-.74-.68-.47-.56.6c-.05.06-.12.06-.18.02l-.2-.14c-.07-.05-.06-.12,0-.19l2.8-2.94c.06-.07.12-.07.19-.03l.44.31c.07.05.08.11.04.19l-1.79,3.65c-.04.08-.11.11-.18.06l-.2-.14c-.05-.04-.07-.1-.03-.17Zm-.03-1.52l.58.41.63-1.25.55-1.02-.02-.02-.77.87-.96,1.02Z"/>
          <path class="cls-2" d="m18.7,51.15c-.08-.04-.1-.1-.06-.17l1.79-3.63c.04-.07.1-.09.17-.05l.6.29c.7.34.73.74.46,1.29l-1.06,2.15c-.27.55-.61.76-1.31.42l-.6-.29Zm.78-.08c.36.18.53.04.68-.27l1.06-2.15c.15-.3.16-.52-.21-.7l-.27-.13-1.53,3.11.27.13Z"/>
          <path class="cls-2" d="m24.61,49.79l-.78,2.49c-.17.54-.45.77-1.13.56-.68-.21-.78-.57-.61-1.11l.78-2.49c.17-.54.45-.77,1.13-.56.68.21.78.57.61,1.11Zm-1.27-.4l-.78,2.49c-.09.27-.06.46.26.56.32.1.45-.04.53-.31l.78-2.49c.09-.27.06-.46-.26-.56-.32-.1-.45.04-.53.31Z"/>
          <path class="cls-2" d="m26.82,51.73l.41,1.88c.02.07-.02.16-.12.15l-.26-.04c-.07-.01-.11-.05-.12-.11l-.41-1.89-.23-.03-.27,1.75c-.01.08-.07.12-.15.11l-.23-.04c-.08-.01-.12-.07-.11-.15l.61-4c.01-.08.07-.12.15-.1l.66.1c.77.12.92.48.83,1.09l-.07.49c-.07.47-.23.76-.67.8Zm-.38-.42c.4.06.52-.12.57-.45l.08-.49c.05-.33,0-.54-.41-.6l-.29-.04-.24,1.55.29.04Z"/>
          <path class="cls-2" d="m31.24,53.85c-.08,0-.13-.03-.14-.12l-.38-4.02c0-.08.04-.13.12-.14l.66-.06c.77-.07,1.01.24,1.07.85l.23,2.38c.06.61-.12.97-.89,1.05l-.66.06Zm.62-.48c.4-.04.47-.25.44-.58l-.23-2.38c-.03-.33-.14-.52-.54-.49l-.29.03.33,3.45.3-.03Z"/>
          <path class="cls-2" d="m35.02,48.87c.08-.02.14,0,.16.09l.04.16c.02.08-.02.14-.1.16l-.95.23.36,1.48.73-.18c.08-.02.14,0,.16.09l.04.16c.02.08-.02.14-.1.16l-.73.18.36,1.48.95-.23c.08-.02.14,0,.16.09l.04.16c.02.08-.02.14-.1.16l-1.3.32c-.08.02-.14-.02-.16-.1l-.96-3.93c-.02-.08.02-.13.1-.15l1.3-.32Z"/>
          <path class="cls-2" d="m37.94,51.97l.91-.35c.08-.03.14,0,.17.07l.06.15c.03.08,0,.14-.07.17l-1.25.49c-.08.03-.14,0-.17-.07l-1.47-3.76c-.03-.08,0-.13.08-.16l.22-.09c.08-.03.14,0,.17.07l1.37,3.5Z"/>
          <path class="cls-2" d="m42.41,46.83c.05.07.04.13-.03.18l-.19.14c-.07.05-.13.04-.18-.03l-.4-.57c-.16-.23-.33-.33-.6-.13-.28.19-.24.38-.08.61l1.51,2.13c.16.23.33.33.6.13.28-.2.24-.38.08-.61l-.4-.57c-.05-.07-.03-.13.03-.18l.19-.14c.07-.05.13-.04.18.03l.4.57c.33.46.34.83-.24,1.24-.58.41-.93.28-1.25-.19l-1.51-2.13c-.33-.46-.34-.83.24-1.24.58-.41.93-.27,1.25.19l.4.57Z"/>
          <path class="cls-2" d="m46.28,46.91l-.65-.5-.6.57.48.67c.04.06.04.13-.01.18l-.18.17c-.06.06-.14.04-.18-.03l-2.33-3.33c-.05-.07-.05-.14.01-.19l.39-.37c.06-.06.12-.06.19,0l3.23,2.48c.07.06.08.13.02.19l-.18.17s-.11.05-.17,0Zm-1.5-.27l.51-.49-1.1-.86-.9-.74-.02.02.7.93.81,1.14Z"/>
          <path class="cls-2" d="m45.28,41.68c.05-.07.11-.08.18-.03l.13.1c.07.05.07.12.02.18l-.6.76,1.2.94.46-.59c.05-.06.11-.08.18-.03l.13.1c.07.05.07.12.02.18l-.46.59,1.42,1.12c.07.05.07.12.02.18l-.15.19c-.05.07-.12.07-.18.02l-3.17-2.5c-.06-.05-.07-.11-.02-.18l.83-1.05Z"/>
          <path class="cls-2" d="m45.93,40.26c0,.07-.04.11-.11.11h-.1c-.07,0-.1-.05-.1-.12l-.02-1.01c0-.07.05-.11.12-.11h.21c.07,0,.12.06.11.13l-.1,1Zm.71-.75c.04-.07.1-.09.17-.05l.14.08c.07.04.09.11.05.18l-.5.84,1.31.78.38-.64c.04-.07.1-.09.17-.05l.14.08c.07.04.09.11.05.18l-.38.64,1.31.78.5-.84c.04-.07.1-.09.17-.05l.14.08c.07.04.09.11.05.18l-.68,1.16c-.04.07-.11.09-.18.05l-3.48-2.06c-.07-.04-.08-.1-.04-.18l.68-1.16Z"/>
        </g>
        <path class="cls-2" d="m50.39,29.93c-.28-.49-.09-1.25.48-1.82.65-.65,1.55-.8,2.01-.35,0,0,0,0,0,0-.09.27-.38.83-1.26,1.14-.8.28-1.11.73-1.23,1.03m2.7-1.93c-.07.16-.19.37-.4.58-.21.21-.51.42-.93.56-.86.3-1.09.79-1.16,1.03,0,0,0,0,0,0,.46.46,1.36.3,2-.35.58-.58.76-1.35.47-1.84"/>
        <path class="cls-2" d="m9.71,29.93c-.12-.3-.43-.74-1.23-1.03-.88-.31-1.17-.87-1.26-1.14,0,0,0,0,0,0,.46-.46,1.36-.3,2.01.35.57.57.76,1.34.48,1.82m-2.7-1.93c-.29.49-.1,1.26.47,1.84.65.65,1.55.8,2,.35,0,0,0,0,0,0-.07-.24-.31-.73-1.16-1.03-.42-.15-.72-.35-.93-.56-.21-.21-.33-.42-.4-.58"/>
        <path class="cls-2" d="m29.75,57.44c-15.14,0-27.46-12.32-27.46-27.46S14.61,2.52,29.75,2.52s27.46,12.32,27.46,27.46-12.32,27.46-27.46,27.46m0-54.65C14.76,2.79,2.56,14.99,2.56,29.98s12.2,27.19,27.19,27.19,27.19-12.2,27.19-27.19S44.74,2.79,29.75,2.79"/>
        <path class="cls-2" d="m12.17,15.99c-.21-.17-.36-.33-.46-.48-.1-.15-.16-.32-.2-.51-.03-.19-.04-.39-.02-.59.02-.2.05-.32.08-.35.02-.03.07,0,.14.05,0,0,.01.04.01.1,0,.26.05.5.18.7s.3.4.52.57l.9.73s.05.01.07-.02c.01-.01.03-.05.07-.1.03-.05.07-.1.11-.15.09-.11.17-.13.24-.07.04.03.05.07.04.12,0,.05-.03.1-.07.15-.14.18-.14.32,0,.44l.96.78c.09.07.16.11.19.11.03,0,.08,0,.12,0,.05,0,.11-.05.19-.13.08-.08.14-.12.17-.13.04,0,.07,0,.1.03.07.06.07.14-.02.25-.05.06-.12.13-.22.21-.1.08-.18.17-.26.26-.05.06-.11.15-.17.27-.07.12-.11.2-.14.23-.09.12-.18.14-.26.08-.03-.02-.04-.05-.04-.08,0-.03.02-.09.08-.18.05-.09.08-.16.09-.22,0-.06,0-.1-.04-.14-.03-.04-.11-.1-.23-.2l-.89-.72c-.13-.11-.27-.08-.4.08-.1.13-.19.16-.27.09-.07-.06-.06-.15.05-.28.04-.05.08-.09.12-.13.04-.04.06-.06.07-.07.02-.02.02-.04,0-.06l-.82-.66Z"/>
        <path class="cls-2" d="m13.77,13.88c.08-.08.17-.12.28-.12.11,0,.21.04.28.12.07.07.1.15.09.26,0,.1-.05.19-.12.27-.07.08-.16.11-.27.12-.11,0-.2-.03-.27-.11-.07-.07-.11-.16-.1-.26,0-.11.04-.2.11-.27m2.41,1.98c.08.08.15.12.21.12.06,0,.11-.03.17-.07.06-.04.1-.07.14-.08.03,0,.07.01.12.05.06.06.04.13-.06.23-.04.04-.11.1-.2.17-.09.07-.16.13-.2.17-.04.04-.09.11-.15.2-.06.09-.11.16-.15.19-.04.04-.08.06-.13.07-.05,0-.09,0-.13-.05-.02-.02-.03-.05-.04-.08,0-.03.02-.08.07-.16.05-.07.07-.14.07-.19,0-.05-.07-.14-.18-.26l-.86-.85c-.07-.07-.14-.1-.19-.1-.05,0-.12.03-.19.08-.07.05-.12.07-.15.06-.03,0-.06-.02-.09-.05-.03-.03-.04-.07-.04-.11,0-.04.02-.08.06-.12.03-.03.08-.06.14-.1.07-.04.11-.07.14-.1.03-.03.07-.08.12-.15.05-.07.09-.12.12-.15.06-.06.14-.04.25.06.02.02.04.04.07.07s.04.05.05.06l1.06,1.05Z"/>
        <path class="cls-2" d="m16.35,13.9c-.05-.07-.11-.11-.16-.13-.05-.01-.13,0-.23.06-.1.05-.17.04-.22-.02-.02-.03-.03-.06-.02-.11.01-.05.04-.09.09-.13.02-.02.06-.04.12-.06.06-.03.11-.05.14-.08.02-.02.06-.06.13-.13.07-.07.11-.11.13-.12.04-.03.08-.03.12-.01.04.02.1.08.17.17.12.15.25.32.39.5l.6.82c.04.06.08.09.1.1.02,0,.05,0,.11,0,.05,0,.11-.02.17-.05.06-.03.11-.04.14-.03.03,0,.06.03.08.05.05.06.02.13-.07.21-.07.05-.14.1-.22.14s-.16.09-.23.14c-.06.04-.13.1-.21.18-.08.08-.14.13-.19.17-.1.07-.17.07-.23,0-.02-.03-.03-.06-.03-.09,0-.03.03-.07.08-.12.06-.05.09-.09.1-.12,0-.08,0-.14,0-.18-.01-.04-.06-.12-.14-.22l-.71-.93Zm2.56-.23c.06.08.12.12.16.13.05,0,.11-.01.19-.05.08-.04.14-.03.17,0,.05.06.03.12-.04.17-.01.01-.07.05-.18.12-.1.07-.19.13-.26.18-.11.09-.2.17-.27.24-.07.07-.11.12-.13.14-.03.03-.07.04-.12.04-.05,0-.08-.02-.11-.05-.02-.03-.03-.06-.02-.1,0-.04.03-.07.06-.1.06-.05.1-.1.12-.18.02-.07,0-.14-.05-.21-.35-.46-.56-.74-.64-.85-.08-.11-.12-.18-.13-.19-.11-.15-.24-.17-.37-.07-.06.04-.11.15-.14.32-.04.17-.08.27-.12.31-.02.01-.04.01-.07,0-.03,0-.06-.02-.07-.04-.05-.07-.04-.24.02-.5.07-.27.18-.47.35-.59.1-.07.2-.11.31-.12.11,0,.21.02.29.08.08.06.17.16.28.29l.14.18.63.82Z"/>
        <path class="cls-2" d="m21.79,12.07c.06-.03.11,0,.17.1.03.06-.03.2-.19.41-.16.21-.35.38-.58.5-.38.2-.77.26-1.16.17-.39-.09-.69-.31-.88-.66-.17-.31-.19-.66-.06-1.03.13-.37.37-.66.73-.85.19-.1.43-.18.72-.23.29-.05.45-.04.48.02.06.12.12.21.17.28.05.07.08.11.09.12.05.09.03.16-.05.21-.07.03-.15,0-.25-.11-.1-.11-.23-.17-.39-.18-.16-.01-.32.03-.49.12-.21.11-.37.3-.47.56-.1.26-.07.54.09.83.14.27.37.44.66.5.3.06.56.03.78-.09.08-.04.16-.1.24-.17.08-.07.15-.16.22-.29.07-.12.13-.2.18-.22"/>
        <path class="cls-2" d="m24.55,10.93c.05.16.2.24.44.23.06,0,.11,0,.14.01.03.01.06.05.08.1.01.03,0,.06-.03.09-.03.03-.06.06-.1.07-.04.01-.1.02-.18.03-.08,0-.14.01-.19.03-.05.02-.11.05-.18.1-.07.05-.12.07-.15.08-.03.01-.07,0-.1,0-.04-.01-.06-.03-.07-.05-.01-.04-.03-.05-.05-.04-.02,0-.03.02-.05.04-.2.24-.45.41-.74.51-.14.05-.31.06-.5.05-.2-.01-.37-.08-.52-.2-.15-.12-.27-.28-.34-.51-.08-.24-.04-.48.12-.74.16-.26.42-.44.77-.56.12-.04.26-.05.42-.03.16.02.26.06.28.13.01.03,0,.07-.02.1-.02.03-.05.05-.1.07-.03,0-.09,0-.19,0-.1-.01-.19,0-.28.03-.18.06-.32.17-.4.32-.08.15-.09.32-.03.5.07.21.2.35.37.42.18.07.36.07.54,0,.16-.06.3-.16.4-.31.1-.16.12-.32.06-.5l-.31-.92c-.05-.14-.13-.23-.25-.29-.12-.06-.25-.06-.41,0-.19.07-.36.19-.5.38-.05.06-.08.1-.11.11-.05.02-.1.02-.15,0-.05-.02-.08-.05-.09-.09-.04-.11.03-.24.21-.38.17-.14.38-.26.62-.34.29-.1.55-.1.78-.02.23.09.38.24.45.44l.38,1.14Z"/>
        <path class="cls-2" d="m29.39,10.05c0,.12.04.22.1.31.05.09.14.16.27.19.13.03.2.06.22.08.02.02.03.04.03.06,0,.1-.04.16-.15.17-.04,0-.09,0-.15-.02-.06-.01-.15-.02-.25,0-.07,0-.14.02-.22.05-.08.03-.13.04-.15.04-.04,0-.08-.01-.12-.04-.03-.03-.05-.06-.06-.1,0-.04-.02-.05-.03-.05l-.05.03c-.34.23-.63.36-.88.38-.35.03-.67-.08-.97-.33s-.46-.54-.49-.89c-.03-.4.08-.74.35-1.01.26-.28.58-.43.95-.46.16-.01.32.01.5.08.17.07.26.15.27.24,0,.03,0,.06-.03.08-.02.02-.05.04-.07.04-.04,0-.12-.02-.25-.07-.13-.05-.25-.07-.36-.06-.24.02-.43.13-.58.35-.15.21-.21.46-.19.73.02.24.11.46.28.68.17.22.38.32.64.3.14-.01.29-.06.47-.15.17-.09.28-.2.32-.34.04-.14.05-.34.03-.61l-.24-3.07c-.02-.2-.06-.33-.13-.4-.07-.07-.17-.12-.3-.15-.13-.03-.21-.05-.24-.07-.03-.02-.05-.05-.05-.09,0-.03.01-.06.05-.09.03-.03.08-.04.15-.05.03,0,.08,0,.17,0s.16,0,.21,0c.11,0,.2-.02.28-.04.08-.02.13-.02.14-.03.09,0,.14.01.18.06.03.05.05.11.06.2.01.16.02.28.03.38,0,.09.02.18.02.25l.26,3.41Z"/>
        <path class="cls-2" d="m32.46,9.63c.05,0,.09,0,.11-.02.02-.02.03-.05.04-.1.02-.18-.04-.36-.16-.53-.12-.17-.33-.27-.61-.3-.2-.02-.41.05-.63.22-.23.17-.36.42-.39.77-.02.25.06.49.26.71.2.22.44.35.71.37.21.02.44-.02.69-.13.1-.04.16-.06.19-.06.04,0,.07.02.1.05.02.03.03.06.03.09,0,.09-.15.18-.42.28-.27.1-.55.13-.82.11-.41-.04-.73-.21-.98-.52-.25-.31-.36-.65-.32-1.04.03-.35.22-.64.55-.86.33-.22.68-.31,1.06-.28.49.05.85.21,1.07.49.22.28.31.59.28.95,0,.08-.03.12-.07.14-.04.01-.11.02-.21,0l-1.62-.16c-.13-.01-.19-.07-.18-.17,0-.09.08-.13.22-.12l1.12.11Z"/>
        <path class="cls-2" d="m34.41,10.94c-.01.06-.01.12.01.17.02.05.09.1.19.14.11.04.17.08.18.12s.02.07.01.11c-.02.08-.08.1-.2.07-.07-.02-.17-.05-.3-.1-.13-.05-.23-.08-.3-.1-.06-.02-.16-.03-.29-.04-.13-.01-.22-.03-.29-.04-.09-.02-.15-.05-.17-.07-.02-.03-.03-.06-.02-.1,0-.04.03-.07.06-.09.03-.02.1-.03.22-.02.12.01.2-.01.25-.06.05-.05.08-.12.1-.19l.89-3.76c.02-.08.02-.16,0-.23-.02-.07-.09-.13-.2-.19-.11-.06-.17-.1-.18-.13-.01-.03-.02-.07-.01-.1,0-.04.03-.06.08-.07.04-.01.09-.01.13,0,.04,0,.09.03.16.06.07.03.12.05.16.06.04,0,.1.02.18.02.08,0,.14.01.18.02.07.02.12.05.15.1.03.05.03.12,0,.22l-.99,4.19Z"/>
        <path class="cls-2" d="m38.84,12.62c.06.03.07.09.02.19-.03.06-.18.1-.44.1-.26,0-.51-.05-.75-.16-.39-.18-.67-.45-.84-.82s-.17-.73,0-1.1c.15-.32.41-.55.79-.67s.75-.1,1.11.07c.2.09.4.23.62.43.21.2.3.33.27.4-.06.12-.09.22-.12.3-.02.08-.04.13-.04.14-.04.1-.11.13-.2.08-.07-.03-.09-.12-.07-.27.02-.15,0-.29-.09-.42-.08-.13-.22-.24-.39-.32-.22-.1-.46-.11-.73-.03-.27.08-.47.27-.61.57-.13.28-.13.56,0,.83.13.27.31.46.54.57.08.04.18.07.28.09.1.02.22.02.36,0,.14-.02.24-.01.28,0"/>
        <path class="cls-2" d="m41.42,14.13c-.1.14-.07.3.08.49.04.05.06.09.07.12.01.03,0,.07-.03.12-.02.03-.05.04-.09.04-.04,0-.08-.01-.12-.04-.04-.03-.08-.07-.13-.13-.05-.06-.1-.1-.14-.13-.05-.03-.11-.06-.19-.09-.08-.03-.13-.05-.16-.07-.03-.02-.05-.05-.06-.08-.01-.04-.01-.07,0-.09.02-.03.02-.05,0-.07-.01,0-.04-.01-.07-.01-.31-.01-.6-.1-.86-.27-.12-.08-.24-.2-.34-.37-.11-.16-.16-.34-.16-.53,0-.19.06-.39.19-.58.14-.21.36-.32.66-.35.3-.03.61.06.91.27.1.07.2.18.28.32.08.14.11.24.07.3-.02.03-.05.04-.09.05-.04,0-.07-.01-.11-.04-.03-.02-.06-.07-.11-.15-.05-.09-.11-.16-.19-.21-.16-.11-.33-.15-.5-.13-.17.02-.31.12-.42.28-.13.19-.16.37-.11.55.05.18.16.33.32.43.14.1.31.14.49.12s.33-.1.44-.26l.54-.8c.08-.12.11-.25.08-.37-.03-.13-.11-.24-.24-.33-.17-.11-.37-.17-.61-.17-.08,0-.13,0-.15-.02-.05-.03-.08-.07-.1-.12-.02-.05-.01-.09.02-.13.07-.1.21-.12.43-.07s.43.15.64.29c.26.17.42.38.49.61.07.24.04.44-.08.62l-.67,1Z"/>
        <path class="cls-2" d="m44.34,12.85c.18-.2.34-.34.5-.43.15-.09.33-.15.52-.17.19-.02.39-.02.59.02s.31.07.35.1c.02.02,0,.07-.06.14,0,0-.04.01-.1,0-.26-.02-.5.03-.71.15-.21.12-.41.28-.6.49l-.78.87s-.01.04.01.07c.01.01.04.04.1.07.05.04.1.08.14.11.1.09.12.17.06.24-.03.03-.07.05-.12.04-.05-.01-.1-.04-.15-.08-.17-.15-.31-.16-.44-.02l-.83.92c-.08.09-.12.15-.12.18,0,.03,0,.08,0,.12,0,.05.04.11.12.2.07.09.11.15.12.18s0,.07-.03.1c-.06.07-.15.06-.25-.03-.06-.05-.13-.13-.2-.23-.07-.1-.16-.19-.25-.27-.06-.05-.14-.11-.26-.19-.12-.07-.19-.12-.22-.15-.11-.1-.13-.19-.06-.27.02-.03.05-.04.08-.04.03,0,.09.03.17.08.08.06.15.09.21.1.06,0,.1,0,.14-.03.04-.03.11-.1.21-.22l.76-.85c.11-.13.09-.26-.06-.4-.12-.11-.15-.2-.08-.28.06-.07.16-.05.28.06.04.04.08.08.12.12.04.04.06.07.07.07.02.02.04.02.06,0l.7-.78Z"/>
        <path class="cls-2" d="m45.61,17.14s.07.06.09.07c.03,0,.06-.01.1-.05.14-.12.22-.28.25-.49.03-.21-.05-.42-.23-.64-.13-.15-.33-.24-.61-.28-.28-.04-.55.06-.81.28-.19.16-.29.4-.3.69-.01.3.07.55.25.76.13.16.33.29.59.38.1.04.16.07.17.09.03.03.04.07.04.1,0,.03-.02.06-.04.09-.07.06-.23.03-.5-.09-.26-.12-.49-.28-.66-.49-.27-.31-.38-.66-.35-1.06.03-.39.2-.72.49-.97.27-.23.6-.31.99-.24s.71.25.96.54c.32.38.46.74.43,1.09-.03.35-.19.64-.46.88-.06.05-.11.07-.14.05-.04-.02-.09-.06-.16-.14l-1.05-1.23c-.09-.1-.09-.18-.02-.25.07-.06.15-.04.24.06l.73.86Zm2.08-2.24c.08.09.12.17.14.25.02.08,0,.14-.05.18-.12.1-.23.08-.35-.06-.03-.04-.09-.07-.16-.09-.08-.02-.23-.04-.47-.04-.24,0-.37-.03-.41-.08-.04-.04-.03-.08,0-.11.08-.07.29-.12.64-.17.35-.04.57,0,.67.11"/>
        <path class="cls-2" d="m43.93,31.76l-.74-1.25s0,0,0,0c-.01-.02-.03-.04-.06-.06,0,0-.02,0-.02-.01,0,0-.02-.01-.03-.01l-3.69-.99-.22-1.95s-.02-.07-.05-.1l-.81-.88s-.07-.05-.11-.06l-1.25-.16-.09-.36,2.61-4.72.55-.3c.05.02.11.02.16-.01l.74-.44s.08-.07.09-.12c.01-.05,0-.1-.03-.15l-1.77-2.36s-.06-.06-.1-.07l-9.13-2.21s-.06,0-.09,0l-8.4,2.14s-.05.02-.07.03l-2.97,2.26s-.07.09-.07.15c0,.06.03.11.08.15l2.1,1.46,2.04,4.95-.08.4-2.3.8c-.07.03-.12.1-.12.17v2.47l-1.53.86s0,0,0,0c0,0,0,0,0,0-1.72.99-2.63,1.52-2.69,1.58-.05.05-.07.12-.04.19.02.07.08.11.15.12.73.09,1.7.21,2.65.32l2.14,2.64-1.41,7.43c-.02.1.05.2.15.22.01,0,.02,0,.03,0,.09,0,.16-.06.18-.15l.07-.36,2.5-5.53h.78s-1.29,6.56-1.29,6.56c-.02.1.05.2.15.22.01,0,.02,0,.04,0,.09,0,.16-.06.18-.15l.04-.2,1.29-1.91-.14.71c-.02.1.04.2.14.22.01,0,.02,0,.04,0,.09,0,.16-.06.18-.15l.31-1.57,2.59-3.85,1.05-.04,1.38,2.57.19,4.41c0,.1.09.18.18.18,0,0,0,0,0,0,.1,0,.18-.09.18-.19l-.16-3.65,1.84,3.42v.17c.01.1.09.18.19.18,0,0,0,0,0,0,.1,0,.18-.09.18-.19v-.21c.23-.68.53-1.5.83-2.34l.21,2.35c0,.1.09.17.18.17,0,0,.01,0,.02,0,.1,0,.18-.1.17-.2l-.28-3.15c.59-1.64,1.13-3.17,1.31-3.64h1.32l.4.53c.09.61.27,1.8.62,4.12.01.09.09.16.18.16,0,0,.02,0,.03,0,.1-.02.17-.11.15-.21-.16-1.06-.37-2.45-.52-3.44l3.62,4.87.02.09c.02.08.1.14.18.14.02,0,.03,0,.05,0,.1-.03.16-.13.13-.22l-1.55-6.07.66-.16,1.42,5.58c.02.08.1.14.18.14.02,0,.03,0,.05,0,.1-.03.16-.13.13-.22l-1.46-5.76s0,0,0,0c0,0,0,0,0,0l-.41-1.6,2.28-3.05,2.24-.41c.06-.01.11-.05.13-.1.02-.05.02-.12,0-.17Zm-5.85-4.96l.72.79.2,1.74-.89-.24-.34-2.34.31.04Zm-.5-.06l.34,2.31-.29-.08-.58-2.3.54.07Zm-.34,2.19l-.72-.03-.6-2.37.74.1.58,2.31Zm-5.56-3.14h-.87l-.08-1.81.09-.81,3.97.39.65,2.55-3.75-.32Zm1.88,2.96l-1.59-.08v-2.49l1.48.13.11,2.44Zm-1.77-2.59v2.5l-.85-.04-.11-2.47h.84s.12.01.12.01Zm-6.1.31l.44-2.23,3.99-1,.25.83.08,1.71h-.73s-.02,0-.03,0l-3.99.68Zm3.97,2.3l-1.41.2v-2.56l1.31-.23.09,2.59Zm-1.59-2.33v2.55l-1.43.2.13-2.53,1.3-.22Zm8.41-3.79s.02.02.03.03l-.32.63-.09-.34,1.31-4.47.51.12.4.43-1.64,3.28-.14.08c-.09.05-.12.16-.07.25Zm-3.74-1.91l.68.14.4,2.21-.76-.08-.32-2.28Zm.13,2.26l-1.31-.13-.13-2.4,1.12.23.32,2.3Zm.75-2.07l.57.12s-.02.07-.01.11l.52,2.02-.67-.07-.4-2.19Zm.96.34l.43.31.33,1.76-.25-.11s0,0,0,0l-.5-1.96Zm.92.78l.33,1.28-.06.2-.22-.1-.31-1.7.28.2s-.02.07-.01.11Zm.33,1.91l.04.02-.12.24.07-.25Zm-.17-.07l-.22.76-.24-.96.47.2Zm.36.22l.54,2.15-.74-.1-.28-1.1.48-.95Zm0-1.46l-.17-.68c-.01-.05-.05-.09-.09-.12l-1.35-.96s-.03-.02-.04-.02l-3.23-.67.33-3.02,5.77,1.31-1.22,4.16Zm-4.66.22l-.51-.05.26-2.4.12.03.13,2.42Zm-.41-2.71l-.57-.12s-.03,0-.05,0l-.92.23-.92-3.09,1.42-.36,1.36.31-.33,3.03Zm-1.1,1.6l-.09-1.34.42-.11.11,2.52-.11.03-.33-1.1Zm.15,1.15l-.07.02-.02-.32.09.3Zm.31.3v.12s-.03-.11-.03-.11h.03Zm-.64-1.42l.08,1.18-.6.15-.09-2.52.24-.06.37,1.26Zm-.19-1.3l.1-.03.03.48-.13-.45Zm-.24-.17l-2.73.7s-.02,0-.04.01l-1.89.57-1.08-3.15,4.82-1.22.92,3.1Zm-.27,2.84l-1.16.29v-2.54l1.07-.27.09,2.52Zm-5.13-1.11l.3-.09-.07.6c-.08-.13-.15-.27-.23-.4v-.04s.01-.05,0-.07Zm.34,1.07c.22.38.44.75.63,1.08l-.78.2.16-1.28Zm.04-.3l.11-.92.15-.04.77,2.24-.26.06c-.23-.4-.5-.86-.78-1.34Zm.44-1.01l.92-.28-.23,2.29-.69-2.01Zm.71,2.64l.22.63-.02.08c-.1-.17-.23-.4-.38-.66l.18-.05Zm.18-.04l.18-.04-.07.36-.11-.31Zm-.04-.37l.25-2.56.56-.17-.52,2.65-.29.07Zm1.2-2.79s0-.03,0-.04l.91-.23v2.54l-1.43.36.51-2.62Zm-2.3.41l-.74.22c-.75-1.29-1.46-2.51-1.65-2.84l.4-.31.91-.23,1.09,3.16Zm-.82,2.01c.04-.06.04-.14,0-.21l.19-1.02c.08.14.16.28.25.43l-.2,1.59-.46.11.17-.87s.03-.02.04-.04Zm1.41.88c.23.4.42.72.52.89l-.22,1.13-.78.13-1.4.22s-.02,0-.03,0l-.17.06.38-2.02,1.7-.42Zm-.42,2.52l.64-.11-.5,2.54-1.22.27.47-2.6.61-.1Zm1.03-.18l.97-.17-.13,2.52-1.34.19.5-2.55Zm4.84-.7l.11,2.49-.72.1-.09-2.59h.7Zm.1-5.87l.38.08-.27,2.42h0s-.11-2.5-.11-2.5Zm4.41,6.15l.29,2.4-1.52-.07-.1-2.44,1.33.11Zm.19.02l.37.03.61,2.39-.69-.03-.29-2.39Zm1.64-.78l-.43-1.71c.02-.07,0-.14-.05-.19l-.05-.19.43-.86s.03,0,.04,0l2.44-1.34-2.38,4.29Zm2.71-4.89l-2.53,1.39,1.49-2.98,1.21,1.29-.16.29Zm-20-.21l-.63-.44,2.74-2.09,8.32-2.12,9.02,2.18,1.61,2.14-.39.23-2.01-2.15s-.06-.05-.09-.05l-8.1-1.84s-.06,0-.09,0l-7.59,1.91s-.05.02-.07.03l-2.65,2.06s-.06.07-.07.12Zm.27.19s.02,0,.03-.01l.26-.2.24.57-.52-.36Zm.43-.33l1.67-1.3c.2.35.89,1.54,1.63,2.81-.02.03-.03.06-.02.09,0,0,0,0,0,0,0,0,0,0,0,0l-.22,1.15-2.69-1.88-.37-.89Zm.63,1.52l2.36,1.64-.53,2.78-1.83-4.42Zm2.01,5.44l.35-.12.58-.09-.47,2.61-.96.21.5-2.61Zm-.86.3l.46-.16-.49,2.56-.08.02.11-2.41Zm-.19.07l-.1,2.39-.51.11v-2.28s0,0,0,0l.62-.21Zm-1.33.46l.53-.19v2.26l-.53.12v-2.19Zm-.04,2.58l1.43-.31.42-.09h0s2.38-.52,2.38-.52l.39-.07,5.54-.78.37-.02,5.28.25.38.02.72.03.4.08,3.79,1.01-3.55-.07h-.38s-.71-.02-.71-.02h-.38s-5.04-.1-5.04-.1l-.45.04-.37.03-5.8.53-.38.04-2.31.21-.38.04-2.26.21.92-.52Zm18.12,5.42h-.15s-.27-1.06-.27-1.06l.52-.7.31,1.21-.41.55Zm.47-.32l.07.29h-.31s.23-.29.23-.29Zm-1.74-2.58l-6.11.22-.13-2.91.45-.04,5.12.1.67,2.63Zm-.29-2.62h.71s.53,2.11.53,2.11l-.62.35-.63-2.46Zm-2.69,3.1l.38,2.52-1.68.04-.32-2.5,1.62-.06Zm.19,0l1.64-.06.39,2.55-1.65.04-.38-2.52Zm1.83-.07l1.06-.04.41,1.63-.71.95h-.38s-.39-2.54-.39-2.54Zm1.54,1.82l.18.7-.72.02.54-.72Zm-.13-2.02l.62-.35.27,1.05-.52.7-.36-1.41Zm.95-.52l.97-.18-.76,1.02-.21-.84Zm-.09-.36l-.49-1.93,3.09.06-1.21,1.62-1.39.25Zm-10.98,1.02c-.75,0-2.11,0-3.3,0l.48-2.47,5.89-.54.13,2.89-3.21.12Zm1.86,2.8l-1.61.07v-2.52l1.56-.06.04,2.5Zm-1.79-2.44v2.52l-1.65.08.18-2.59c.47,0,.95,0,1.41,0h.06Zm-6.52,2.37l.46-2.42c.07,0,.12.02.17.02l.2.28-.42,2.43c-.06,0-.11,0-.16,0l-.26-.32Zm.02.32s-.06,0-.08,0l.02-.09.07.08Zm1.47-3.05l-.76-1.12.21-1.1,2.31-.21-.48,2.43c-.5,0-.95,0-1.29,0Zm.6.37l-.07.43-.29-.43c.11,0,.23,0,.35,0Zm-.83-.37c-.23,0-.37,0-.39,0,0,0-.11-.01-.28-.03l-.05-.07.14-.75.58.86Zm-.39.36h0s0,0,0,0h0Zm-.43-1.92l-.4-.59.52-.05-.12.63Zm-.05.26l-.15.77-1.07-1.53.66-.06.56.82Zm.59,2.13l.85,1.22-.15,1.01c-.45,0-.81-.01-1.08-.01l.38-2.22Zm.04-.26l.04-.21c.12,0,.27,0,.45,0l.47.7-.11.72-.85-1.21Zm.96,1.69l.27.38-.08.42c-.1,0-.21,0-.31,0l.12-.8Zm.04-.26l.11-.72.3.44-.13.67-.28-.39Zm.15-.98l.1-.65c.08,0,.16,0,.25,0,.06,0,.12,0,.18,0l-.22,1.11-.31-.46Zm.55,1.14l.59.87-.55.03-.17-.24.13-.65Zm.05-.26l.3-1.54c.26,0,.53,0,.81,0l-.38,2.62-.73-1.08Zm1.3-1.54c.26,0,.52,0,.78,0l-.18,2.6-.99.05.39-2.64Zm5.6-.12l.11,2.48-1.3.06-.04-2.5,1.23-.04Zm-14.25-.91c.28-.17.67-.39,1.07-.62l.68.83c-.68-.08-1.31-.16-1.75-.21Zm2.01.24l-.78-.96c.33-.19.65-.37.93-.53l1.37-.13,1.24,1.76-.04.19c-.67-.08-1.73-.21-2.72-.33Zm.33.41c.9.11,1.75.21,2.32.28l-.4,2.09-1.92-2.37Zm1.04,8.97l.91-4.76h1.25s-2.16,4.76-2.16,4.76Zm.98-5.13l.08-.41c.35-.01,1.43,0,2.24.01l-.08.4h-2.24Zm2.66,4.42l-1.29,1.92,1.17-5.97.93-.03-.82,4.09Zm.53-.79l.66-3.31,1.61-.06-2.27,3.37Zm3.75-3.42l1.07-.04.09,2.19-1.16-2.15Zm1.24-.41s0,0,0,0c0,0,0,0,0,0l-5.57.2.08-.39,7.33-.34.02.47-1.86.07Zm.32,3.31l-.13-2.95,1.68-.06.29,6.43-1.84-3.42Zm1.86-4.22l-.11-2.48,1.31-.05.32,2.5-1.52.03Zm.34,7.53l-.29-6.32h.75l.35,4.03c-.24.66-.51,1.42-.82,2.29Zm1.12-3.12l-.28-3.19h1.44c-.14.36-.45,1.21-1.16,3.19Zm2.9-3.19h.09s.01.09.02.15l-.11-.15Zm-4.32-.37l-.02-.47,6.8-.15.16.62h-6.94Zm8.45,5.92l-3.56-4.78c-.05-.35-.09-.62-.11-.77h2.25l1.42,5.55Zm-.48-6.12l-.66.16-.15-.6.69-.03.12.47Zm-.06-1.74l-.31-1.21.97-1.3,1.41-.26-2.07,2.77Zm.98-2.95l1.17-1.57,1.55.03.55.94-3.27.6Z"/>
      </g>
    </g>
  </g>
</svg>