<?xml version="1.0" encoding="UTF-8"?>
<svg id="Capa_2" data-name="Capa 2" xmlns="http://www.w3.org/2000/svg" viewBox="0 0 106.99 16.97">
  <defs>
    <style>
      .cls-1 {
        fill: #e5d6c5;
        stroke-width: 0px;
      }
    </style>
  </defs>
  <g id="Head_página" data-name="Head página">
    <g>
      <path class="cls-1" d="m51.02,13.79c0,1.91,1.3,1.36,1.82,2.18.02,1.03-1.66-.04-3.02.5-.7-.01-.35-.87-.79-.58-3.02,2.21-7.13.29-7.27-3.25-.11-3.02,3.38-5.28,6.09-3.97.7.28,1.18.99.45,1.19-.36-.04-1.45-.64-1.93-.56-1.62-.03-2.77,1.66-2.73,3.23,0,3.19,3.44,4.62,5.33,1.97.48-1.04.14-10.35.24-11.67.12-2.25-1.68-1.42-2.11-2.42.19-.69,1.33-.2,1.84-.26.67.09,1.5-.35,1.91.14.4,1.71.04,11.55.16,13.5Z"/>
      <path class="cls-1" d="m60.47,11.84c.97-.1.22-1.54-.23-2.04-1.76-1.85-5.23-.04-4.99,2.68-.05,1.63,1.83,3.18,3.43,3.12.76.1,1.96-.57,2.73-.86.97.27.25.95-.81,1.41-7.11,3.25-10.68-7.42-2.46-8.04,1.58,0,2.77.41,3.55,1.22.77.82,1.56,2.31,1,3.36-.23.18-5.48.05-5.87.09-.85.06-.86-.99.02-.92,0,0,3.62,0,3.62,0Z"/>
      <path class="cls-1" d="m67.01,14.71c-.14.84,1.12.76,1.53,1.06.51.9-.74.74-1.45.63-.76-.4-4.2.77-3.49-.62.59-.31,1.71-.19,1.61-1.26,0,0,0-12.24,0-12.24-.02-.61-.24-.98-.93-1.13-.62-.11-1.06-.46-.6-.86.38-.25,1.06.05,1.46.03.74-.05,1.99-.5,1.87.75,0,0,0,13.65,0,13.65Z"/>
      <path class="cls-1" d="m76.93,14.76c1.41.99-2.35,2.07-3.24,1.94-6.42-.02-6.75-8.4-.28-8.68.76-.04,3.47.49,3.7,1.21-.14.74.59,1.88-.34,1.99-.24,0-.42-.23-.56-.68-.61-1.85-3.25-1.88-4.58-.62-2.27,1.97-.42,5.86,2.46,5.77.92.14,2.03-.73,2.82-.93"/>
      <path class="cls-1" d="m86.43,14.35c-.1,1.18,1.59.85,1.62,1.71-.13.48-.7.39-1.14.27-.71-.35-1.48.31-2.1-.01-.22-.1-.08-.39-.27-.41-5.79,3.65-9.92-4.94-2.43-5.47,2.05,0,2.87,1.94.95,1.19-2.23-1.08-4.16,1.87-2.34,3.45,1.26,1.15,3.87.47,3.85-1.43,0,0,0-3.08,0-3.08-.02-1.89-2.39-1.85-3.6-.93-.44.38-1.03.22-1.09-.3.66-1.68,4.4-1.68,5.63-.58,1.5.91.73,4.22.91,5.59Z"/>
      <path class="cls-1" d="m90.46,5.26c.02-1.55.2-2.5,1.14-3.59.37-.44,2.73-2.54,2.64-1.26-2.56,1.72-1.9,5.54-1.98,8.2.12.32.84,0,1.16.07.62-.05.89.49.44.79-.66.22-1.69.1-1.6,1.01.14.71-.37,4.51.37,4.91.13.2,1.24.23,1.37.4.31.36.04.79-.54.75-1.19-.2-2.8-.29-4.01,0-.59.03-.9-.37-.61-.76.36-.25,1.51-.12,1.57-.76.07-.5.03-3.98.04-4.6,0-.54-.34-.81-1.01-.81-1.44-.11-.84-1.3.87-.87.3.15.07-3.39.14-3.46Z"/>
      <path class="cls-1" d="m102.19,11.84c.97-.1.22-1.54-.23-2.04-1.76-1.85-5.23-.04-4.99,2.68-.05,1.63,1.83,3.18,3.43,3.12.76.1,1.96-.57,2.73-.86.97.27.25.95-.81,1.41-7.11,3.25-10.68-7.42-2.46-8.04,1.58,0,2.77.41,3.55,1.22.77.82,1.56,2.31,1,3.36-.23.18-5.48.05-5.87.09-.42,0-.63-.16-.63-.47-.22-.85,3.89-.3,4.28-.45Z"/>
      <path class="cls-1" d="m1.82,5.26c.02-1.55.2-2.5,1.14-3.59.37-.44,2.73-2.54,2.64-1.26-2.56,1.72-1.9,5.54-1.98,8.2.12.32.84,0,1.16.07.62-.05.89.49.44.79-.66.22-1.69.1-1.6,1.01.14.71-.37,4.51.37,4.91.13.2,1.24.23,1.37.4.31.36.04.79-.54.75-1.19-.2-2.8-.29-4.01,0-.59.03-.9-.37-.61-.76.36-.25,1.51-.12,1.57-.76.07-.5.03-3.98.04-4.6,0-.54-.34-.81-1.01-.81-1.44-.11-.84-1.3.87-.87.3.15.07-3.39.14-3.46Z"/>
      <path class="cls-1" d="m10,14.5c-.1.94.67.87,1.23,1.09.59.81-.66.84-1.37.69-1.01-.29-1.99.37-2.87-.04-.74-.84.68-.71,1.02-1.1.33-.47.1-4.18.16-4.82.12-.91-.85-.75-1.3-1.09-.48-1.05,1-.72,1.54-.61,1.12-.12,1.8-.44,1.58,1.14,0,0,0,4.73,0,4.73Z"/>
      <path class="cls-1" d="m14.1,10.35c.16-1.15-1.25-.61-1.37-1.4.14-.75,1.11-.35,1.62-.31.31.06,1.28-.37,1.46.05.2.76.09,1.86.13,2.76.03.27-.15,3.5-.01,3.67.2.33.97.35,1.23.59.23.35.04.69-.5.66-1.07-.13-2.31-.17-3.38-.02-.53.04-.73-.38-.48-.72.09-.17.84-.12.92-.25.78-.62.25-4.1.4-5.02Zm6.96,4.36c-.16,1.05.98.61,1.18,1.25-.1.55-.46.32-1.1.32-.96-.1-1.97,0-2.77.13-.63.03-.76-.87-.07-.89.48,0,.95-.29.93-.84,0-2.35.01-2.98.07-4.11-.35-2.56-2.73,1.25-3.04-.17.44-1.43,3.91-3.19,4.67-.98.29,1.14.06,4.05.13,5.29Z"/>
      <path class="cls-1" d="m30.64,14.76c1.41.99-2.35,2.07-3.24,1.94-6.42-.02-6.75-8.4-.28-8.68.76-.04,3.47.49,3.7,1.21-.14.74.59,1.88-.34,1.99-.24,0-.42-.23-.56-.68-.61-1.85-3.25-1.88-4.58-.62-2.27,1.97-.42,5.86,2.46,5.77.92.14,2.03-.73,2.82-.93"/>
      <path class="cls-1" d="m40.15,14.35c-.1,1.18,1.59.85,1.62,1.71-.13.48-.7.39-1.14.27-.71-.35-1.48.31-2.1-.01-.22-.1-.08-.39-.27-.41-5.79,3.65-9.92-4.94-2.43-5.47,2.06,0,2.86,1.94.95,1.19-2.23-1.08-4.16,1.87-2.34,3.45,1.26,1.15,3.87.48,3.85-1.43,0,0,0-3.08,0-3.08-.02-1.89-2.39-1.85-3.6-.93-.44.38-1.03.22-1.09-.3.66-1.68,4.4-1.68,5.63-.58,1.5.91.73,4.22.91,5.59Z"/>
      <path class="cls-1" d="m8.06,4.65c-1.5.87-.1,3.21,1.38,2.3,1.5-.87.1-3.21-1.38-2.3"/>
      <path class="cls-1" d="m105.84,14.62c1.53-.06,1.53,2.4,0,2.34-1.53.06-1.53-2.4,0-2.34m0,2.14c1.25.05,1.25-2,0-1.95-1.25-.05-1.25,2,0,1.95m-.04-.88h-.09s.06.66-.06.63c-.05,0-.16.02-.16-.06.03-.03-.07-1.48.06-1.41.32-.02.72,0,.67.39,0,.19-.02.38-.21.43l.25.57c.04.1-.11.08-.17.08-.08.02-.27-.59-.31-.63Zm-.09-.18c.2.03.33-.05.3-.26.02-.19-.14-.22-.3-.2v.47Z"/>
    </g>
  </g>
</svg>