<?xml version="1.0" encoding="UTF-8"?>
<svg id="Capa_2" data-name="Capa 2" xmlns="http://www.w3.org/2000/svg" viewBox="0 0 243.97 243.97">
  <defs>
    <style>
      .cls-1 {
        fill: #1d381e;
      }

      .cls-1, .cls-2 {
        stroke-width: 0px;
      }

      .cls-2 {
        fill: #dacbba;
      }
    </style>
  </defs>
  <g id="Head">
    <g>
      <circle class="cls-1" cx="121.99" cy="121.99" r="121.99"/>
      <g>
        <path class="cls-2" d="M121.99,229.79c-58.62,0-106.3-47.69-106.3-106.3S63.37,17.19,121.99,17.19s106.3,47.69,106.3,106.3-47.69,106.3-106.3,106.3M121.99,19.41c-57.39,0-104.08,46.69-104.08,104.08s46.69,104.08,104.08,104.08,104.07-46.69,104.07-104.08S179.37,19.41,121.99,19.41"/>
        <path class="cls-2" d="M121.99,196.58c-40.3,0-73.1-32.79-73.1-73.09S81.68,50.39,121.99,50.39s73.09,32.79,73.09,73.09-32.79,73.09-73.09,73.09M121.99,52.62c-39.08,0-70.87,31.79-70.87,70.87s31.79,70.87,70.87,70.87,70.87-31.79,70.87-70.87-31.79-70.87-70.87-70.87"/>
        <path class="cls-2" d="M206.56,123.3c-1.13-2-.36-5.13,1.98-7.47,2.66-2.66,6.34-3.29,8.21-1.42,0,0,0,0,0,0-.38,1.09-1.57,3.42-5.16,4.68-3.29,1.15-4.55,2.98-5.04,4.2M217.61,115.4c-.28.66-.78,1.53-1.63,2.38-.86.86-2.08,1.7-3.81,2.31-3.5,1.23-4.48,3.24-4.76,4.22.01.01.02.03.04.04,1.88,1.88,5.56,1.24,8.22-1.42,2.37-2.37,3.13-5.54,1.94-7.53"/>
        <path class="cls-2" d="M39.89,123.3c-.49-1.22-1.76-3.05-5.04-4.2-3.59-1.26-4.78-3.58-5.16-4.68,0,0,0,0,0,0,1.88-1.88,5.55-1.24,8.21,1.42,2.34,2.34,3.11,5.47,1.98,7.47M28.84,115.4c-1.18,1.99-.42,5.16,1.94,7.53,2.66,2.66,6.34,3.29,8.22,1.42.01-.01.02-.03.04-.04-.27-.98-1.25-2.99-4.76-4.22-1.73-.6-2.95-1.45-3.8-2.31-.85-.85-1.35-1.72-1.63-2.38"/>
        <path class="cls-2" d="M121.99,235.99c-62.03,0-112.5-50.47-112.5-112.5S59.95,10.99,121.99,10.99s112.5,50.47,112.5,112.5-50.47,112.5-112.5,112.5M121.99,12.1C60.57,12.1,10.6,62.07,10.6,123.49s49.97,111.39,111.39,111.39,111.39-49.97,111.39-111.39S183.41,12.1,121.99,12.1"/>
        <path class="cls-2" d="M162.22,99.31c.54,0,.99-.44.99-.99v-28.33c0-.54-.44-.99-.99-.99h-18.08c-1.41,0-4.11-.15-6.3-1.12-1.99-.88-2.96-2.17-2.96-3.92,0-.54-.44-.99-.99-.99h-11.75c-.05,0-.1,0-.15.02-.05,0-.1-.02-.15-.02h-11.75c-.54,0-.99.44-.99.99,0,1.75-.97,3.04-2.96,3.92-2.19.97-4.89,1.12-6.3,1.12h-18.08c-.54,0-.99.44-.99.99v28.33c0,.54.44.99.99.99,1.11,0,3.53,1.19,3.53,4.74v32.85c0,3.4-1.21,6.85-3.53,6.85-.54,0-.99.44-.99.99v30.44c0,.54.44.99.99.99h9.04c.52,0,.94-.4.98-.92l22.17-10.2c.29-.13.52-.48.52-.77v-74.17c0-.29-.23-.65-.52-.8l-20.24-10.46h56.64l-20.24,10.46c-.29.15-.52.51-.52.8v74.17c0,.29.23.64.52.77l22.09,10.17c.02.53.45.95.98.95h9.04c.54,0,.99-.44.99-.99v-30.44c0-.54-.44-.99-.99-.99-2.32,0-3.53-3.45-3.53-6.85v-32.85c0-3.55,2.43-4.74,3.53-4.74M113.42,164.21l-22.27,9.95v-95.26l22.27,11.21v74.11ZM130.63,90.1l22.27-11.21v95.26l-22.27-9.95v-74.11ZM161.23,145.61v28.58h-7.29v-96.51h0v-.81h-63.84v97.32h-7.36v-28.58c3.1-.72,4.52-4.85,4.52-8.71v-32.85c0-3.94-2.43-6.06-4.52-6.58v-26.48h17.1c5.07,0,10.46-1.61,11.16-6.03h10.84c.05,0,.1,0,.15-.01.05,0,.1.01.15.01h10.84c.69,4.42,6.09,6.03,11.16,6.03h17.1v26.48c-2.09.52-4.52,2.65-4.52,6.58v32.85c0,3.86,1.42,7.99,4.52,8.71"/>
        <path class="cls-2" d="M95.15,122.53l14.26,1.01c.21.01.37-.15.37-.37v-18.45c0-.22-.17-.45-.37-.51l-14.26-4.37c-.21-.06-.37.1-.37.36v21.85c0,.26.17.48.37.5M95.52,100.87l13.52,4.02v17.82l-13.52-1.09v-20.74Z"/>
        <path class="cls-2" d="M95.15,167.19l14.26-5.6c.21-.08.37-.32.37-.54v-33.27c0-.22-.17-.4-.37-.41l-14.26-.35c-.21,0-.37.2-.37.46v39.38c0,.26.17.4.37.33M95.52,127.97l13.52.2v32.77l-13.52,5.18v-38.14Z"/>
        <path class="cls-2" d="M95.15,95.61l14.26,5c.21.07.37-.05.37-.27v-6.56c0-.22-.17-.47-.37-.56l-14.26-6.28c-.21-.09-.37.05-.37.31v7.76c0,.26.17.53.37.6M95.52,88.04l13.52,5.82v5.81l-13.52-4.87v-6.77Z"/>
        <path class="cls-2" d="M148.89,127.03l-14.26.35c-.21,0-.37.19-.37.41v33.27c0,.22.17.46.37.54l14.26,5.6c.2.08.37-.06.37-.33v-39.38c0-.26-.17-.47-.37-.46M148.52,166.11l-13.52-5.18v-32.77l13.52-.2v38.14Z"/>
        <path class="cls-2" d="M148.89,86.94l-14.26,6.28c-.21.09-.37.34-.37.56v6.56c0,.22.17.34.37.27l14.26-5c.2-.07.37-.34.37-.6v-7.76c0-.26-.17-.4-.37-.31M148.52,94.81l-13.52,4.87v-5.81l13.52-5.82v6.77Z"/>
        <path class="cls-2" d="M148.89,99.83l-14.26,4.37c-.21.06-.37.29-.37.51v18.45c0,.22.17.39.37.37l14.26-1.01c.2-.01.37-.24.37-.5v-21.85c0-.26-.17-.42-.37-.36M148.52,121.62l-13.52,1.09v-17.82l13.52-4.02v20.74Z"/>
        <path class="cls-2" d="M49.5,66.19c-.85-.69-1.48-1.34-1.88-1.95-.4-.61-.67-1.31-.81-2.1-.14-.79-.16-1.59-.06-2.4.09-.81.21-1.29.33-1.45.09-.11.28-.04.58.21.04.03.06.17.06.4-.03,1.08.22,2.04.76,2.89s1.25,1.62,2.14,2.34l3.7,2.99c.09.07.19.05.28-.07.04-.05.13-.19.28-.41.14-.22.29-.43.44-.61.35-.44.68-.53.98-.29.15.12.2.28.17.49-.03.21-.12.41-.28.61-.58.72-.58,1.32,0,1.8l3.95,3.19c.38.31.64.46.78.46.14,0,.31,0,.5-.04.19-.03.45-.2.79-.52.33-.32.57-.49.72-.51.14-.02.28.02.4.12.3.24.28.58-.08,1.02-.21.26-.51.55-.9.88-.39.33-.74.68-1.05,1.07-.2.24-.43.61-.71,1.12-.28.5-.47.81-.56.92-.38.47-.74.58-1.07.31-.11-.09-.17-.19-.18-.32-.02-.12.09-.36.31-.72.22-.36.34-.65.36-.88.02-.23-.04-.43-.17-.58-.13-.15-.45-.43-.95-.83l-3.64-2.94c-.54-.44-1.09-.32-1.63.35-.42.52-.79.64-1.12.38-.3-.24-.24-.63.19-1.15.15-.19.31-.36.47-.51.16-.15.26-.25.29-.29.07-.09.06-.17-.03-.25l-3.34-2.7Z"/>
        <path class="cls-2" d="M56.08,57.54c.31-.31.7-.47,1.15-.47.46,0,.85.16,1.17.47.28.28.41.63.39,1.05-.03.42-.19.78-.5,1.09-.3.31-.68.47-1.11.47-.44,0-.81-.14-1.11-.44-.29-.29-.43-.65-.43-1.08,0-.43.16-.8.45-1.09M65.95,65.66c.34.34.62.49.85.47.23-.02.46-.12.69-.29.23-.18.42-.28.57-.31.14-.03.3.04.48.22.23.23.15.54-.24.94-.17.17-.45.41-.83.71-.38.3-.66.54-.82.7-.16.17-.37.43-.63.81-.26.37-.47.64-.62.8-.16.16-.34.25-.54.27-.2.02-.38-.04-.53-.18-.09-.09-.14-.2-.15-.33,0-.13.1-.34.31-.64.21-.29.3-.55.28-.78-.03-.22-.28-.57-.76-1.05l-3.52-3.48c-.3-.3-.56-.43-.78-.4-.22.03-.47.14-.76.33-.29.19-.5.28-.63.26-.13-.02-.26-.08-.37-.2-.13-.13-.18-.28-.16-.46.02-.18.09-.34.23-.48.12-.12.31-.26.57-.42.27-.17.45-.3.55-.4.12-.12.27-.32.48-.59.2-.28.36-.48.47-.59.25-.26.59-.17,1.02.26.07.07.16.16.27.28s.18.2.22.24l4.35,4.3Z"/>
        <path class="cls-2" d="M66.63,57.63c-.22-.29-.44-.46-.66-.52-.22-.06-.53.02-.93.23-.4.21-.7.18-.9-.08-.08-.11-.11-.26-.06-.47.04-.2.16-.38.36-.53.09-.06.25-.15.51-.26.25-.11.45-.22.59-.32.08-.07.26-.24.53-.52.27-.28.44-.45.52-.51.15-.12.31-.14.47-.06.16.08.39.31.7.69.51.63,1.04,1.31,1.6,2.04l2.47,3.37c.18.24.32.37.4.4.08.02.22.03.43,0,.21-.02.44-.1.7-.22.26-.12.45-.17.57-.13.13.04.23.11.31.22.2.26.1.54-.3.85-.28.21-.58.41-.91.58s-.64.37-.92.59c-.23.18-.51.43-.84.75-.33.32-.59.55-.77.69-.39.3-.7.31-.92.01-.1-.13-.14-.25-.13-.39,0-.13.12-.29.34-.49.25-.22.38-.38.39-.49.03-.32.02-.57-.04-.74-.06-.17-.26-.48-.59-.91l-2.91-3.8ZM77.12,56.69c.26.33.48.51.67.53.19.02.46-.05.79-.2.34-.16.58-.14.72.04.19.25.14.48-.15.69-.05.04-.3.21-.72.49-.43.29-.78.53-1.06.75-.46.35-.83.68-1.1.98-.27.3-.45.49-.54.56-.14.11-.3.16-.49.16-.19,0-.34-.07-.44-.2-.08-.1-.1-.24-.07-.4.03-.17.11-.3.24-.4.25-.19.41-.43.49-.72.08-.29.01-.58-.21-.86-1.43-1.87-2.31-3.03-2.62-3.49-.32-.46-.5-.72-.54-.78-.46-.6-.97-.7-1.52-.28-.24.18-.43.62-.59,1.32-.16.7-.33,1.12-.51,1.26-.06.05-.16.06-.3.04-.14-.02-.24-.07-.3-.16-.21-.28-.18-.96.1-2.06.28-1.1.75-1.91,1.42-2.42.4-.31.82-.47,1.27-.48.45-.02.84.09,1.17.33.33.24.72.64,1.15,1.2l.56.75,2.58,3.36Z"/>
        <path class="cls-2" d="M88.92,50.11c.24-.13.47.01.68.41.14.26-.12.82-.76,1.69-.65.87-1.44,1.55-2.39,2.06-1.55.83-3.14,1.06-4.76.7-1.62-.36-2.81-1.27-3.58-2.72-.69-1.29-.76-2.7-.23-4.23.53-1.53,1.53-2.69,2.98-3.47.78-.42,1.76-.73,2.94-.94,1.17-.21,1.83-.18,1.97.09.26.48.49.86.7,1.13.21.27.33.43.35.47.21.39.13.68-.22.86-.27.14-.62,0-1.04-.44-.42-.44-.96-.68-1.6-.73-.64-.05-1.31.11-2.01.48-.88.47-1.52,1.23-1.93,2.29-.41,1.06-.29,2.19.35,3.4.59,1.11,1.5,1.79,2.72,2.04,1.22.25,2.29.14,3.21-.35.33-.18.66-.4.97-.68.31-.28.62-.67.92-1.17.3-.5.54-.8.73-.9"/>
        <path class="cls-2" d="M100.23,45.46c.23.67.82.98,1.79.94.24,0,.43.01.56.06.13.05.24.19.32.42.04.12,0,.25-.11.39-.11.14-.25.23-.42.29-.17.06-.42.1-.75.11-.33.02-.58.06-.76.12-.21.07-.46.2-.76.39-.29.19-.49.31-.6.34-.13.04-.27.04-.42-.01-.15-.05-.25-.12-.28-.22-.05-.15-.12-.21-.21-.18-.06.02-.14.08-.21.18-.82,1-1.83,1.7-3.03,2.1-.57.19-1.25.26-2.05.2-.8-.06-1.52-.33-2.15-.8-.63-.47-1.1-1.16-1.4-2.07-.33-.96-.16-1.97.5-3.02.66-1.05,1.71-1.82,3.15-2.3.48-.16,1.06-.21,1.74-.13.67.08,1.06.26,1.15.55.05.14.02.27-.07.39-.09.12-.22.22-.4.27-.12.04-.38.04-.79-.01-.4-.05-.79-.01-1.16.11-.75.25-1.3.69-1.64,1.3-.34.62-.39,1.3-.14,2.04.29.87.8,1.44,1.53,1.72.73.28,1.46.29,2.2.04.67-.23,1.21-.66,1.62-1.29.41-.64.5-1.32.25-2.06l-1.27-3.77c-.19-.57-.53-.96-1.02-1.19-.49-.23-1.04-.24-1.67-.03-.8.27-1.48.78-2.06,1.55-.2.26-.34.41-.43.44-.22.07-.43.08-.62.02-.19-.06-.32-.19-.38-.37-.15-.45.13-.98.84-1.57.71-.59,1.56-1.05,2.53-1.38,1.2-.41,2.27-.43,3.21-.06.94.36,1.55.97,1.83,1.81l1.57,4.66Z"/>
        <path class="cls-2" d="M120.07,41.83c.04.48.17.91.39,1.29.22.38.59.64,1.11.77.52.14.81.24.9.31.08.07.13.16.14.26.03.43-.17.66-.62.69-.14.01-.35-.01-.62-.07-.27-.06-.61-.07-1.02-.04-.28.02-.58.08-.91.19-.33.1-.54.16-.62.17-.18.01-.34-.04-.48-.17-.14-.13-.22-.26-.24-.41-.03-.15-.06-.22-.11-.21l-.22.12c-1.4.95-2.6,1.47-3.6,1.55-1.43.11-2.75-.34-3.98-1.35s-1.9-2.23-2.01-3.65c-.13-1.63.35-3.01,1.42-4.16,1.07-1.14,2.38-1.77,3.91-1.89.65-.05,1.32.06,2.03.33.71.27,1.08.61,1.11,1,0,.13-.03.24-.11.33-.08.09-.18.15-.3.16-.14.01-.49-.08-1.03-.28-.54-.2-1.04-.28-1.48-.25-.97.08-1.76.55-2.37,1.42-.61.87-.87,1.87-.78,3.01.08.97.45,1.9,1.14,2.8.69.9,1.56,1.31,2.62,1.23.57-.04,1.21-.25,1.92-.63.71-.37,1.15-.84,1.31-1.4.16-.56.2-1.38.11-2.48l-.98-12.57c-.06-.81-.24-1.36-.54-1.65-.29-.29-.7-.49-1.23-.61-.52-.12-.85-.21-.97-.28-.12-.07-.19-.19-.2-.37,0-.13.05-.25.19-.35.14-.11.34-.17.6-.19.11,0,.34,0,.69.02s.64.02.85,0c.45-.04.83-.08,1.15-.15.32-.06.52-.1.58-.1.35-.03.59.06.72.25.13.19.21.46.24.81.05.64.09,1.16.13,1.55.04.39.07.73.1,1.04l1.09,13.97Z"/>
        <path class="cls-2" d="M132.62,40.13c.22.02.37,0,.46-.07.09-.07.14-.21.16-.41.07-.74-.15-1.47-.66-2.17-.51-.7-1.34-1.11-2.5-1.22-.8-.08-1.66.23-2.59.91-.93.68-1.46,1.73-1.6,3.14-.1,1.03.26,2,1.08,2.91.82.91,1.78,1.42,2.9,1.53.85.08,1.78-.1,2.82-.54.39-.17.65-.25.76-.23.17.02.3.08.4.19.09.11.13.24.12.38-.04.35-.61.73-1.72,1.14-1.11.4-2.23.55-3.36.44-1.67-.16-3.01-.87-4.03-2.13-1.02-1.26-1.46-2.68-1.3-4.27.14-1.45.89-2.63,2.23-3.54,1.35-.91,2.8-1.29,4.35-1.14,2.01.2,3.47.86,4.37,2,.9,1.14,1.28,2.43,1.14,3.88-.03.31-.13.5-.29.55-.16.06-.45.07-.86.03l-6.62-.65c-.54-.05-.79-.28-.75-.69.04-.38.33-.55.89-.49l4.61.45Z"/>
        <path class="cls-2" d="M140.62,45.48c-.06.26-.05.49.04.7.09.21.35.41.78.59.43.18.69.35.76.48s.09.3.04.47c-.07.31-.34.41-.8.3-.28-.07-.69-.2-1.23-.41-.54-.2-.95-.34-1.23-.41-.26-.06-.66-.12-1.19-.17-.53-.05-.92-.11-1.19-.17-.38-.09-.61-.19-.7-.3-.09-.11-.11-.25-.08-.4.04-.15.11-.27.23-.36.11-.08.42-.11.91-.06.49.04.84-.04,1.04-.25.2-.21.34-.47.42-.8l3.65-15.39c.08-.33.07-.64-.02-.93-.09-.29-.36-.54-.8-.77-.44-.23-.7-.41-.76-.54-.06-.14-.08-.28-.04-.42.03-.14.14-.24.32-.29.18-.05.35-.05.52-.01.15.04.37.12.65.25.28.13.5.21.64.24.16.04.41.07.74.09.33.02.58.05.74.09.3.07.5.21.61.4.1.2.11.5,0,.92l-4.07,17.15Z"/>
        <path class="cls-2" d="M158.76,52.4c.25.11.27.38.08.79-.12.27-.72.4-1.8.42-1.08.01-2.11-.2-3.08-.65-1.6-.73-2.75-1.85-3.44-3.36s-.7-3.01-.02-4.5c.61-1.32,1.68-2.24,3.22-2.75s3.06-.42,4.57.27c.81.37,1.65.96,2.53,1.77.88.81,1.25,1.35,1.12,1.62-.23.5-.39.91-.47,1.24-.09.33-.14.52-.16.57-.18.4-.46.52-.82.35-.28-.13-.37-.49-.28-1.1.09-.6-.04-1.18-.39-1.72-.35-.54-.88-.98-1.6-1.31-.91-.41-1.9-.46-2.99-.14-1.09.32-1.92,1.1-2.48,2.34-.52,1.14-.51,2.28.03,3.4.54,1.13,1.28,1.9,2.22,2.34.34.16.72.28,1.13.36.41.08.91.09,1.49.02.58-.07.97-.06,1.16.03"/>
        <path class="cls-2" d="M169.36,58.59c-.39.58-.28,1.25.34,1.99.15.19.25.35.29.49.04.14,0,.31-.14.51-.07.11-.2.16-.37.15-.18,0-.34-.06-.48-.16-.15-.1-.33-.28-.55-.53-.21-.25-.4-.43-.56-.54-.18-.12-.44-.24-.77-.36-.33-.12-.54-.21-.64-.27-.11-.08-.2-.19-.25-.34-.05-.15-.05-.27,0-.35.09-.13.09-.22,0-.28-.06-.04-.15-.06-.27-.06-1.29-.04-2.46-.42-3.51-1.13-.5-.33-.97-.84-1.4-1.51-.44-.67-.66-1.4-.67-2.19,0-.79.26-1.58.79-2.37.57-.84,1.47-1.32,2.7-1.43,1.23-.11,2.48.26,3.74,1.1.42.29.81.72,1.16,1.3.35.58.44,1,.27,1.25-.08.12-.2.18-.35.19-.15,0-.31-.05-.46-.15-.1-.07-.26-.28-.47-.63-.21-.35-.47-.64-.79-.85-.66-.44-1.34-.62-2.03-.51-.7.1-1.27.48-1.71,1.13-.51.76-.66,1.51-.43,2.26.22.74.66,1.33,1.31,1.77.59.39,1.26.56,2.01.51.76-.06,1.35-.41,1.79-1.06l2.22-3.3c.33-.49.44-1,.32-1.53-.12-.53-.45-.97-.99-1.34-.7-.47-1.52-.7-2.48-.7-.33,0-.53-.02-.61-.08-.19-.13-.32-.29-.39-.48-.07-.19-.05-.37.06-.53.27-.4.85-.49,1.76-.28.9.21,1.78.6,2.63,1.17,1.05.71,1.72,1.54,2,2.51.28.97.18,1.82-.32,2.56l-2.75,4.08Z"/>
        <path class="cls-2" d="M181.31,53.3c.73-.82,1.41-1.41,2.04-1.78.63-.37,1.35-.6,2.14-.7.8-.09,1.59-.07,2.4.06s1.28.27,1.43.41c.1.09.02.28-.24.57-.03.04-.17.05-.4.04-1.08-.09-2.05.11-2.92.61-.87.49-1.69,1.16-2.45,2.01l-3.18,3.54c-.08.09-.06.18.06.29.05.05.18.14.4.3.21.15.41.31.59.47.42.37.5.71.24.99-.13.14-.29.19-.5.15-.21-.04-.41-.15-.6-.31-.69-.62-1.29-.65-1.8-.08l-3.39,3.78c-.32.36-.49.61-.5.76,0,.14,0,.31,0,.5.02.19.18.46.48.81.3.35.46.6.47.74s-.03.28-.14.4c-.26.29-.6.24-1.01-.13-.25-.22-.52-.53-.83-.94-.31-.41-.64-.77-1.01-1.1-.23-.21-.59-.46-1.08-.77-.49-.31-.79-.51-.89-.6-.45-.41-.54-.77-.26-1.09.09-.1.2-.16.33-.17.13,0,.36.11.71.34.35.24.63.37.87.4.23.03.43-.02.58-.14.16-.13.45-.43.88-.91l3.12-3.49c.47-.52.38-1.07-.26-1.64-.5-.45-.6-.83-.32-1.14.26-.29.64-.21,1.14.25.18.16.34.33.49.5.15.17.24.27.27.3.09.08.17.07.25-.01l2.87-3.2Z"/>
        <path class="cls-2" d="M186.49,70.89c.14.17.27.26.38.27.11,0,.24-.05.4-.18.57-.49.91-1.16,1.03-2.02.12-.86-.2-1.73-.95-2.61-.52-.61-1.35-.99-2.5-1.14-1.14-.15-2.25.23-3.33,1.15-.79.67-1.2,1.62-1.24,2.84-.04,1.22.3,2.26,1.03,3.11.55.65,1.35,1.17,2.4,1.57.4.15.64.27.71.36.11.13.16.27.16.41,0,.14-.07.26-.18.36-.27.23-.95.11-2.03-.38-1.08-.48-1.99-1.15-2.72-2.01-1.09-1.27-1.56-2.72-1.43-4.33.14-1.62.81-2.94,2.02-3.98,1.11-.95,2.46-1.28,4.06-1s2.91,1.01,3.92,2.2c1.31,1.54,1.9,3.03,1.76,4.47-.14,1.44-.77,2.64-1.87,3.59-.24.2-.44.27-.59.2-.16-.07-.37-.26-.64-.58l-4.32-5.06c-.35-.41-.37-.75-.06-1.01.29-.25.62-.16.99.26l3.01,3.52ZM195,61.72c.31.36.49.7.56,1.01.06.32,0,.56-.21.73-.48.41-.95.33-1.43-.23-.13-.16-.36-.28-.67-.36-.31-.09-.95-.15-1.92-.17-.97-.03-1.53-.13-1.7-.33-.14-.17-.14-.32,0-.44.33-.28,1.2-.5,2.61-.68,1.41-.17,2.33-.01,2.74.47"/>
        <path class="cls-2" d="M96.4,207.1l3.3.94,2.05-7.22c.09-.33.33-.44.66-.35l.94.27c.33.09.47.31.38.64l-4.56,16.07c-.09.33-.34.47-.67.37l-.94-.27c-.33-.09-.47-.34-.37-.67l2.04-7.2-3.3-.94-2.04,7.2c-.09.33-.34.47-.67.37l-.94-.27c-.33-.09-.47-.34-.37-.67l4.56-16.07c.09-.33.33-.44.66-.35l.94.27c.33.09.47.31.38.64l-2.05,7.22Z"/>
        <path class="cls-2" d="M115.44,206.19l-1.34,10.71c-.29,2.31-1.28,3.48-4.2,3.11-2.92-.37-3.59-1.74-3.3-4.05l1.34-10.71c.29-2.31,1.28-3.48,4.2-3.11s3.59,1.74,3.3,4.05M109.98,205.5l-1.34,10.71c-.15,1.17.08,1.91,1.47,2.09,1.39.17,1.79-.49,1.94-1.66l1.34-10.71c.15-1.17-.08-1.91-1.47-2.09-1.39-.17-1.79.49-1.94,1.66"/>
        <path class="cls-2" d="M124.95,204.56l.35,15.5c0,.34-.18.54-.53.55l-.98.02c-.34,0-.54-.18-.55-.53l-.35-15.5-2.8.06c-.34,0-.54-.18-.55-.53v-.66c-.02-.34.17-.52.51-.53l7.65-.17c.34,0,.54.16.55.5v.66c.02.34-.17.54-.51.55l-2.8.06Z"/>
        <path class="cls-2" d="M137.9,201.36c.34-.06.56.08.62.42l.11.65c.06.34-.11.56-.45.62l-3.97.65,1.01,6.22,3.05-.5c.34-.06.56.08.62.42l.11.65c.06.34-.11.56-.45.62l-3.05.5,1.01,6.22,3.97-.65c.34-.06.56.08.62.42l.11.65c.05.34-.11.57-.45.62l-5.47.89c-.34.06-.57-.11-.62-.45l-2.68-16.48c-.05-.34.11-.54.45-.59l5.47-.89Z"/>
        <path class="cls-2" d="M148.93,215.07l3.85-1.17c.33-.1.57,0,.67.34l.19.63c.1.33-.03.57-.36.67l-5.31,1.61c-.33.1-.57-.03-.67-.36l-4.85-15.98c-.1-.33.04-.55.37-.65l.94-.28c.33-.1.57,0,.66.34l4.51,14.86Z"/>
      </g>
    </g>
  </g>
</svg>