<?xml version="1.0" encoding="UTF-8"?>
<svg id="Capa_2" data-name="Capa 2" xmlns="http://www.w3.org/2000/svg" viewBox="0 0 122.68 25">
  <defs>
    <style>
      .cls-1 {
        stroke-width: 0px;
      }

      .cls-1, .cls-2 {
        fill: #a9815a;
      }

      .cls-3 {
        fill: none;
      }

      .cls-3, .cls-2 {
        stroke: #aa8259;
        stroke-miterlimit: 10;
      }

      .cls-2 {
        stroke-width: .75px;
      }
    </style>
  </defs>
  <g id="Cuerpo_habitaciones" data-name="Cuerpo habitaciones">
    <g>
      <rect class="cls-3" x=".5" y=".5" width="121.68" height="24"/>
      <g>
        <g>
          <path class="cls-2" d="M17.87,15.34c0,.84-.18,1.62-.54,2.33-.36.71-1.03,1.28-1.65,1.69-.63.41-1.75.62-2.46.62H4.52v-.06l.63-.99V6.04l-.64-.99v-.06h8.74c.73,0,1.98.27,2.49.82.51.55.76,1.25.76,2.11,0,.63-.2,1.2-.61,1.71-.41.51-1.08.88-1.68,1.09.65.1,1.24.37,1.77.8.53.44,1.12.98,1.43,1.65.31.66.46,1.38.46,2.15ZM6.59,10.42h6.14c.67,0,1.24-.24,1.72-.71.48-.47.71-1.04.71-1.7,0-.7-.21-1.27-.63-1.73-.42-.45-1.03-.68-1.82-.68h-6.12v4.82ZM16.47,15.21c0-.74-.16-1.42-.49-2.04-.33-.62-.78-1.12-1.35-1.51-.57-.38-1.2-.59-1.88-.62h-6.15v8.34h5.97c.83,0,1.54-.18,2.13-.56.59-.37,1.03-.87,1.33-1.5.3-.63.45-1.33.45-2.12Z"/>
          <path class="cls-2" d="M35.99,12.51c0,1.43-.3,2.74-.89,3.93-.59,1.19-1.47,2.14-2.62,2.85-1.15.71-2.52,1.06-4.1,1.06s-2.99-.35-4.15-1.05c-1.15-.7-2.02-1.65-2.6-2.83-.58-1.19-.87-2.51-.87-3.95s.29-2.78.87-3.97c.58-1.19,1.44-2.14,2.6-2.84,1.15-.71,2.53-1.06,4.15-1.06s2.99.35,4.14,1.06c1.15.71,2.02,1.65,2.6,2.84.58,1.19.87,2.51.87,3.97ZM34.55,12.51c0-1.36-.24-2.6-.71-3.7-.48-1.11-1.18-1.99-2.1-2.65-.93-.66-2.04-.99-3.35-.99s-2.43.33-3.35.99c-.93.66-1.63,1.54-2.1,2.65-.48,1.11-.71,2.34-.71,3.7s.24,2.57.71,3.68c.47,1.11,1.17,1.99,2.1,2.64.93.65,2.04.98,3.35.98s2.43-.33,3.35-.98c.93-.65,1.63-1.53,2.1-2.64.47-1.11.71-2.34.71-3.68Z"/>
          <path class="cls-2" d="M51.61,4.99v.04l-.6.94v8.33c0,1.95-.67,4.02-2.35,4.98-1,.57-2.25.73-3.38.71-1.14-.02-2.28-.23-3.29-.81-.91-.53-1.64-1.31-2.04-2.33-.29-.73-.33-1.47-.33-2.24V6.04l-.64-.99v-.06h2.72v.06l-.64.99v2.98h0c0,1.13,0,3.16,0,3.67v1.91c0,.53-.01,1.06.12,1.58.27,1.08.96,1.93,1.85,2.46,1,.59,2.16.73,3.27.66,1-.06,2.06-.33,2.82-1.09.7-.71,1.11-1.73,1.24-2.75.07-.6.05-1.22.05-1.82v-.22h0v-4.53h0v-2.9l-.6-.93v-.04h1.81Z"/>
          <path class="cls-2" d="M59.58,14.77h-2.9v1.29l.02,2.87.64,1v.06h-2.75v-.06l.64-.99V6.04l-.64-.99v-.06h7.5c.77,0,1.53.19,2.19.58.76.44,1.45,1.06,1.89,1.86.41.75.61,1.57.62,2.45,0,.88-.21,1.7-.62,2.45-.41.75-1.05,1.35-1.76,1.78-.61.37-.88.48-1.96.64,6,.6,5.96,7.82,20.41,4.03-13.86,6.02-14.13-1.83-23.29-4.02ZM63.39,13.6c.68-.38,1.19-.9,1.53-1.54.33-.61.43-1.36.45-2.11,0-.04,0-.08,0-.12,0,0,0,0,0-.01s0,0,0-.01c0-.04,0-.08,0-.12-.02-.75-.12-1.36-.45-1.97-.34-.65-.86-1.16-1.53-1.54-.43-.24-.91-.4-1.44-.49-.14-.03-.28-.05-.42-.07.03,0,.06,0,.1.02-.07-.01-.14-.02-.21-.03-.09,0-.18-.02-.27-.02h-4.48v3.45h0v2.6h0v2.54h4.27c.17,0,.33,0,.49-.02.16-.01.31-.03.46-.05.02,0,.04,0,.06,0,.53-.09,1.01-.25,1.44-.49Z"/>
          <path class="cls-2" d="M82.1,12.89c0,.64-.14,1.24-.42,1.78-.28.55-.78.98-1.26,1.29-.48.32-1.34.47-1.88.47h-6.64v-.05l.48-.75V5.79l-.49-.75v-.05h6.67c.56,0,1.51.21,1.9.63.39.42.58.96.58,1.61,0,.48-.16.92-.47,1.31-.31.39-.82.67-1.28.83.5.08.95.28,1.35.61.41.33.86.75,1.09,1.26.23.51.35,1.06.35,1.64ZM73.48,9.14h4.69c.51,0,.95-.18,1.31-.54.36-.36.54-.79.54-1.3,0-.53-.16-.97-.48-1.32-.32-.35-.79-.52-1.39-.52h-4.68v3.68ZM81.03,12.79c0-.57-.12-1.09-.38-1.56-.25-.47-.59-.86-1.03-1.15-.44-.29-.92-.45-1.44-.47h-4.7v6.37h4.56c.63,0,1.17-.14,1.62-.42.45-.28.79-.66,1.02-1.14.23-.48.34-1.02.34-1.62Z"/>
          <path class="cls-2" d="M101.37,12.51c0,1.43-.3,2.74-.89,3.93-.59,1.19-1.47,2.14-2.62,2.85-1.15.71-2.52,1.06-4.1,1.06s-2.99-.35-4.15-1.05c-1.15-.7-2.02-1.65-2.6-2.83-.58-1.19-.87-2.51-.87-3.95s.29-2.78.87-3.97c.58-1.19,1.44-2.14,2.6-2.84,1.15-.71,2.53-1.06,4.15-1.06s2.99.35,4.14,1.06c1.15.71,2.02,1.65,2.6,2.84.58,1.19.87,2.51.87,3.97ZM99.93,12.51c0-1.36-.24-2.6-.71-3.7-.48-1.11-1.18-1.99-2.1-2.65-.93-.66-2.04-.99-3.35-.99s-2.43.33-3.35.99c-.93.66-1.63,1.54-2.1,2.65-.48,1.11-.71,2.34-.71,3.7s.24,2.57.71,3.68c.47,1.11,1.17,1.99,2.1,2.64.93.65,2.04.98,3.35.98s2.43-.33,3.35-.98c.93-.65,1.63-1.53,2.1-2.64.47-1.11.71-2.34.71-3.68Z"/>
          <path class="cls-2" d="M116.85,4.99h1.81v.04l-.6.94v14.02h-.53c-.27-.91-1.57-4.32-6.24-7.13-3.39-1.98-5.32-3.81-6.37-5.46v8.74h0v2.9l.6.93v.04h-1.81v-.04l.6-.94v-10.16h0v-2.9l-.6-.94v-.04h1.38c.74,1.65,2.59,3.89,6.45,6.23,3.63,2.2,5.23,4.24,5.92,5.57v-7.93h0v-2.9l-.6-.93v-.04Z"/>
        </g>
        <polygon class="cls-1" points="28.38 10.55 26.26 12.67 28.39 14.8 30.51 12.67 28.38 10.55"/>
      </g>
    </g>
  </g>
</svg>