<?xml version="1.0" encoding="UTF-8"?>
<svg id="Capa_2" data-name="Capa 2" xmlns="http://www.w3.org/2000/svg" viewBox="0 0 185.69 67.76">
  <defs>
    <style>
      .cls-1 {
        fill: #a8805a;
        stroke-width: 0px;
      }
    </style>
  </defs>
  <g id="Capa_1-2" data-name="Capa 1">
    <g>
      <path class="cls-1" d="M15.48,42.84V.36C9.14.36,2.38,3.38,0,5.4L2.38,0h35.64l2.45,5.4C38.09,3.46,30.67.36,24.84.36v42.48c0,5.98,3.24,7.34,3.24,7.34h-15.7c-.07,0,3.1-1.37,3.1-7.34Z"/>
      <path class="cls-1" d="M39.02,52.56c.79,3.02,3.96,5.76,7.49,5.76,3.89.07,7.92-2.59,9.5-8.79-2.09.36-4.75,1.58-6.19,2.88-6.98-24.63-9.43-32.62-11.23-35.79-.79-1.37-1.44-2.09-2.3-2.38h13.68c-2.16,1.22-2.02,3.96-1.29,6.55,7.13,24.99,7.34,25.71,7.85,26.71,5.33-16.56,8.35-28.23,7.42-31.25-.29-.94-.65-1.44-1.51-1.94h8.07c-.5.22-1.58.79-2.45,2.3-2.16,3.82-6.12,15.34-11.23,31.39.36.72.79,1.01,1.22,1.15-.36,0-.94.07-1.66.29-1.94,9.43-5.83,16.49-11.16,16.49-4.82,0-8.21-5.47-6.19-13.39Z"/>
      <path class="cls-1" d="M73.08,60.41V25.85c0-6.05-1.66-7.34-3.31-8.28,5.11,0,9.36-2.45,10.87-4.39v4.82c.86-1.01,1.94-1.87,3.17-2.59,7.49-4.03,15.55,2.52,18.51,10.8,4.54,10.23,2.02,24.27-8.42,24.63-3.82.14-9.29-1.94-13.25-7.49v17.07c0,6.55,2.38,7.27,2.66,7.34h-12.96c.29-.07,2.74-.79,2.74-7.34ZM93.53,50.19c4.1-1.22,5.26-10.44,2.88-19.73-2.23-8.57-7.63-16.92-12.1-14.83-4.75,2.23-4.03,13.61-2.52,19.58,2.38,9.36,7.71,16.2,11.74,14.98Z"/>
      <path class="cls-1" d="M108.94,42.84v-17.43c0-5.62-1.87-7.13-3.31-7.42,4.46,0,9.07-2.38,10.87-3.89v28.73c0,5.47,2.38,7.2,2.66,7.34h-12.89c.29-.14,2.66-1.87,2.66-7.34ZM108.5.79c2.38-1.44,5.54-.36,7.06,2.3,1.58,2.66.86,5.98-1.51,7.34-2.3,1.3-5.54.36-7.06-2.38-1.51-2.52-.94-5.9,1.51-7.27Z"/>
      <path class="cls-1" d="M128.88,16.56c-4.61,3.02-3.53,10.87-1.94,15.55,3.67,10.44,14.76,19.08,22.11,10.66-.29,2.02-3.38,8.14-11.59,8.14-9.22,0-16.78-8.5-16.78-19.01s6.84-14.98,7.99-15.62c5.26-3.46,9.94-2.52,13.75-1.01,1.73.65,3.17,1.22,4.75.94v13.97c-3.82-9.65-12.38-17.5-18.29-13.61Z"/>
      <path class="cls-1" d="M164.59,14.33c9.15,0,14.47,4.25,14.62,14.47.29,10.22.43,16.92,6.48,16.85-.07,2.38-1.44,5.11-5.69,5.11-4.46,0-6.55-2.88-7.56-7.06-4.18,11.38-21.17,7.85-21.17-2.16,0-10.87,21.39-12.6,18.94-21.82-.94-3.38-2.88-5.47-6.7-4.97-7.49.86-4.32,11.74-.72,10.22,0,0-.43,2.59-4.9,2.59-7.35,0-7.49-13.25,6.7-13.25ZM165.6,48.24c1.3,0,5.47-1.58,6.7-5.26-1.22-5.76-.65-13.68-1.37-19.66-1.8,4.46-12.38,9.14-12.38,17.57,0,3.67,2.59,7.34,7.06,7.34Z"/>
    </g>
  </g>
</svg>