<?xml version="1.0" encoding="UTF-8"?>
<svg id="Capa_2" data-name="Capa 2" xmlns="http://www.w3.org/2000/svg" viewBox="0 0 243.97 243.97">
  <defs>
    <style>
      .cls-1 {
        fill: #ccbdac;
      }

      .cls-1, .cls-2 {
        stroke-width: 0px;
      }

      .cls-2 {
        fill: #2d2d2e;
      }
    </style>
  </defs>
  <g id="Head">
    <g>
      <circle class="cls-2" cx="121.99" cy="121.99" r="121.99"/>
      <g>
        <path class="cls-1" d="M121.99,229.33c-58.67,0-106.4-47.73-106.4-106.4S63.32,16.53,121.99,16.53s106.4,47.73,106.4,106.4-47.73,106.4-106.4,106.4M121.99,18.75c-57.44,0-104.17,46.73-104.17,104.17s46.73,104.17,104.17,104.17,104.17-46.73,104.17-104.17S179.43,18.75,121.99,18.75"/>
        <path class="cls-1" d="M121.99,196.09c-40.34,0-73.16-32.82-73.16-73.16S81.64,49.76,121.99,49.76s73.16,32.82,73.16,73.16-32.82,73.16-73.16,73.16M121.99,51.99c-39.11,0-70.93,31.82-70.93,70.93s31.82,70.93,70.93,70.93,70.93-31.82,70.93-70.93-31.82-70.93-70.93-70.93"/>
        <g>
          <path class="cls-1" d="M43.14,173.42c-.19-.31-.11-.54.11-.73l7.53-6.64-.06-.1-2.81,1.97-8.47,5.33c-.29.18-.56.12-.74-.17l-.45-.72c-.18-.29-.12-.56.17-.74l14.03-8.83c.29-.18.53-.11.72.18l.95,1.5c.18.29.15.51-.13.75l-5.27,4.79-3.2,2.73.08.12,3.85-1.7,6.58-2.7c.35-.13.56-.07.74.22l.95,1.51c.18.29.14.54-.15.73l-14.03,8.83c-.29.18-.56.12-.74-.17l-.45-.72c-.18-.29-.12-.56.17-.74l8.47-5.33,3-1.69-.07-.1-9.24,3.92c-.27.11-.53.07-.71-.21l-.8-1.28Z"/>
          <path class="cls-1" d="M49.13,186.81c-.26.22-.54.19-.75-.07l-.62-.75c-.22-.26-.19-.53.07-.75l12.73-10.61c.26-.22.52-.18.74.08l.62.75c.22.26.21.52-.05.74l-12.73,10.61Z"/>
          <path class="cls-1" d="M62.53,189.92l-3.01,7.27c-.11.3-.45.48-.77.21l-.8-.75c-.21-.2-.25-.41-.14-.63l3.04-7.34-.69-.65-4.98,5.28c-.23.25-.51.26-.76.02l-.71-.67c-.25-.23-.26-.51-.02-.76l11.38-12.06c.23-.25.49-.24.74,0l1.98,1.87c2.32,2.19,1.99,3.78.27,5.61l-1.4,1.49c-1.34,1.42-2.54,2.02-4.13,1.12ZM62.23,187.62c1.2,1.14,2.02.8,2.97-.21l1.4-1.49c.94-.99,1.24-1.84.03-2.98l-.89-.84-4.41,4.67.89.84Z"/>
          <path class="cls-1" d="M69.2,204.68l1.49-3.03-2.78-1.93-2.31,2.46c-.22.23-.48.26-.72.09l-.84-.59c-.28-.19-.27-.51-.03-.76l11.5-12.08c.25-.27.51-.3.79-.11l1.8,1.25c.28.19.32.43.15.76l-7.34,14.97c-.17.33-.45.43-.73.24l-.84-.58c-.22-.15-.3-.42-.14-.69ZM69.06,198.45l2.4,1.67,2.56-5.13,2.24-4.19-.1-.07-3.16,3.56-3.94,4.17Z"/>
          <path class="cls-1" d="M76.69,209.74c-.31-.15-.39-.41-.24-.72l7.33-14.87c.15-.3.4-.37.71-.22l2.44,1.21c2.86,1.41,3.01,3.03,1.9,5.28l-4.34,8.8c-1.12,2.27-2.5,3.14-5.36,1.73l-2.44-1.21ZM79.89,209.42c1.48.73,2.18.15,2.79-1.09l4.34-8.8c.6-1.22.64-2.13-.84-2.86l-1.09-.54-6.29,12.75,1.09.54Z"/>
          <path class="cls-1" d="M100.91,204.19l-3.21,10.22c-.69,2.21-1.86,3.17-4.65,2.29-2.79-.87-3.2-2.33-2.5-4.54l3.21-10.22c.69-2.21,1.86-3.17,4.65-2.29,2.78.88,3.19,2.33,2.5,4.54ZM95.71,202.55l-3.21,10.22c-.35,1.11-.26,1.88,1.06,2.3,1.32.42,1.84-.16,2.19-1.28l3.21-10.22c.35-1.12.26-1.88-1.06-2.3-1.32-.41-1.84.16-2.19,1.28Z"/>
          <path class="cls-1" d="M109.99,212.15l1.66,7.69c.08.31-.1.65-.51.61l-1.08-.16c-.29-.04-.44-.19-.48-.44l-1.68-7.77-.94-.14-1.09,7.17c-.05.34-.27.5-.61.45l-.96-.15c-.34-.05-.5-.27-.45-.61l2.49-16.4c.05-.34.27-.48.61-.42l2.7.41c3.15.48,3.79,1.98,3.41,4.46l-.31,2.02c-.29,1.93-.94,3.11-2.76,3.28ZM108.43,210.44c1.64.25,2.12-.49,2.33-1.86l.31-2.02c.2-1.35-.03-2.22-1.67-2.47l-1.21-.18-.96,6.36,1.21.18Z"/>
          <path class="cls-1" d="M128.13,220.85c-.34.03-.55-.14-.58-.48l-1.57-16.5c-.03-.34.14-.53.48-.56l2.71-.26c3.17-.3,4.15,1,4.39,3.49l.93,9.77c.24,2.52-.47,3.98-3.65,4.29l-2.71.26ZM130.68,218.89c1.65-.16,1.93-1.02,1.8-2.4l-.93-9.76c-.13-1.36-.57-2.15-2.22-1.99l-1.21.12,1.35,14.15,1.21-.12Z"/>
          <path class="cls-1" d="M143.62,200.42c.33-.08.56.04.64.37l.15.64c.08.33-.06.57-.39.65l-3.88.94,1.48,6.08,2.98-.73c.33-.08.56.04.64.37l.16.64c.08.33-.06.57-.39.65l-2.98.73,1.48,6.08,3.88-.94c.33-.08.56.04.64.37l.15.64c.08.33-.06.57-.39.65l-5.35,1.3c-.33.08-.57-.06-.65-.39l-3.92-16.1c-.08-.33.07-.54.4-.62l5.35-1.3Z"/>
          <path class="cls-1" d="M155.6,213.13l3.72-1.45c.32-.12.56-.04.69.28l.24.61c.12.32.01.57-.3.69l-5.12,2c-.32.12-.57.01-.7-.3l-6.04-15.44c-.12-.32,0-.55.31-.67l.91-.36c.32-.12.56-.04.68.28l5.62,14.35Z"/>
          <path class="cls-1" d="M173.9,192.04c.2.28.15.55-.13.75l-.8.56c-.28.2-.55.15-.74-.13l-1.65-2.33c-.67-.96-1.34-1.35-2.47-.55-1.14.8-.99,1.56-.31,2.51l6.18,8.75c.68.96,1.34,1.35,2.47.55,1.14-.8.99-1.56.31-2.52l-1.66-2.35c-.2-.28-.14-.53.14-.73l.8-.56c.28-.2.54-.17.73.11l1.66,2.35c1.33,1.89,1.39,3.4-1,5.09-2.39,1.69-3.79,1.13-5.13-.76l-6.18-8.75c-1.33-1.89-1.39-3.4,1-5.09,2.39-1.68,3.8-1.13,5.13.76l1.64,2.33Z"/>
          <path class="cls-1" d="M189.78,192.38l-2.68-2.06-2.44,2.34,1.96,2.75c.18.26.16.52-.05.72l-.74.71c-.25.23-.55.16-.75-.12l-9.57-13.66c-.22-.3-.19-.56.05-.79l1.58-1.52c.25-.24.49-.23.78,0l13.23,10.16c.29.23.33.52.09.76l-.74.71c-.19.19-.47.21-.71,0ZM183.64,191.29l2.11-2.02-4.52-3.52-3.67-3.02-.09.08,2.86,3.8,3.31,4.69Z"/>
          <path class="cls-1" d="M185.69,170.9c.21-.27.46-.32.73-.1l.52.41c.27.21.3.48.09.75l-2.47,3.13,4.91,3.87,1.9-2.41c.21-.27.46-.31.73-.1l.52.41c.27.21.3.48.09.75l-1.9,2.41,5.83,4.6c.27.21.3.48.09.75l-.6.76c-.21.27-.49.3-.75.09l-13.01-10.26c-.27-.21-.28-.47-.07-.74l3.41-4.32Z"/>
          <path class="cls-1" d="M188.34,165.12c-.03.29-.17.44-.46.44l-.41-.02c-.27-.02-.42-.19-.42-.48l-.1-4.14c.01-.3.19-.46.49-.45l.86.03c.3,0,.48.2.45.49l-.4,4.12ZM191.24,162.05c.17-.29.42-.37.71-.2l.57.33c.29.17.36.44.19.74l-2.03,3.44,5.39,3.19,1.56-2.64c.18-.29.42-.37.71-.2l.57.34c.29.18.36.44.19.73l-1.56,2.64,5.39,3.19,2.04-3.44c.17-.29.42-.37.71-.2l.57.33c.29.17.36.44.19.74l-2.81,4.74c-.17.29-.44.36-.73.19l-14.27-8.45c-.29-.17-.34-.43-.17-.72l2.8-4.74Z"/>
        </g>
        <path class="cls-1" d="M206.64,122.74c-1.13-2-.36-5.13,1.98-7.48,2.66-2.66,6.34-3.3,8.22-1.42,0,0,0,0,0,0-.38,1.09-1.57,3.42-5.16,4.68-3.29,1.15-4.56,2.99-5.05,4.21M217.7,114.83c-.29.66-.78,1.53-1.63,2.39-.86.86-2.08,1.7-3.81,2.31-3.51,1.23-4.49,3.25-4.76,4.22.01.01.02.03.04.04,1.88,1.88,5.56,1.25,8.22-1.42,2.37-2.37,3.13-5.54,1.95-7.54"/>
        <path class="cls-1" d="M39.81,122.74c-.49-1.22-1.76-3.05-5.05-4.21-3.59-1.26-4.79-3.59-5.16-4.68,0,0,0,0,0,0,1.88-1.88,5.56-1.24,8.22,1.42,2.34,2.34,3.11,5.48,1.98,7.48M28.76,114.83c-1.18,1.99-.42,5.17,1.95,7.54,2.66,2.66,6.34,3.3,8.22,1.42.01-.01.02-.03.04-.04-.27-.98-1.25-2.99-4.76-4.22-1.73-.61-2.95-1.45-3.81-2.31-.85-.85-1.35-1.72-1.63-2.39"/>
        <path class="cls-1" d="M121.99,235.53c-62.09,0-112.6-50.51-112.6-112.6S59.9,10.32,121.99,10.32s112.6,50.51,112.6,112.6-50.51,112.6-112.6,112.6M121.99,11.44C60.51,11.44,10.5,61.45,10.5,122.93s50.02,111.49,111.49,111.49,111.49-50.01,111.49-111.49S183.46,11.44,121.99,11.44"/>
        <path class="cls-1" d="M49.9,65.57c-.85-.69-1.48-1.34-1.89-1.95-.4-.61-.67-1.32-.81-2.11-.14-.79-.16-1.59-.06-2.4.09-.81.21-1.29.33-1.45.09-.11.28-.04.58.21.04.03.06.17.06.4-.03,1.08.22,2.04.76,2.89s1.25,1.63,2.14,2.34l3.71,2.99c.09.07.19.05.28-.07.04-.05.14-.19.28-.41.14-.22.29-.43.44-.61.35-.44.68-.53.98-.29.15.12.2.28.17.5-.03.21-.12.41-.28.61-.58.72-.58,1.32,0,1.8l3.95,3.19c.38.31.64.46.78.46.14,0,.31,0,.5-.04.19-.03.45-.2.79-.52.33-.32.57-.49.72-.51.14-.02.28.02.4.12.3.24.28.58-.08,1.02-.21.26-.51.55-.9.88-.39.33-.74.68-1.05,1.07-.2.24-.43.61-.71,1.12-.28.5-.47.81-.56.92-.38.48-.74.58-1.07.31-.11-.09-.17-.19-.18-.32-.02-.12.09-.36.31-.72.22-.36.34-.65.36-.89.02-.23-.04-.43-.17-.58-.13-.15-.45-.43-.95-.83l-3.65-2.94c-.54-.44-1.09-.32-1.63.35-.42.52-.79.65-1.13.38-.3-.24-.24-.63.19-1.15.15-.19.31-.36.47-.51.16-.15.26-.25.29-.29.07-.09.06-.17-.03-.25l-3.35-2.7Z"/>
        <path class="cls-1" d="M56.48,56.92c.31-.31.7-.47,1.16-.47.46,0,.85.16,1.17.47.28.28.41.63.39,1.05-.03.42-.19.79-.5,1.09-.31.31-.68.47-1.11.47-.44,0-.81-.14-1.12-.44-.29-.29-.43-.65-.43-1.08,0-.43.16-.8.45-1.09M66.37,65.04c.34.34.63.5.85.48.23-.02.46-.12.69-.29.24-.18.42-.28.57-.31.14-.03.3.04.48.22.23.23.15.55-.24.95-.17.17-.45.41-.83.71-.38.3-.66.54-.82.7-.16.17-.38.43-.63.81-.26.37-.47.64-.62.8-.16.16-.34.25-.54.27-.2.02-.38-.04-.53-.19-.09-.09-.14-.2-.15-.33,0-.13.1-.34.31-.64.21-.29.3-.56.28-.78-.03-.22-.28-.57-.76-1.05l-3.52-3.48c-.3-.3-.56-.43-.78-.4-.22.03-.47.14-.76.33-.29.19-.5.28-.63.26-.14-.02-.26-.08-.37-.2-.13-.13-.18-.28-.16-.46.02-.18.09-.34.23-.48.12-.12.31-.26.58-.42.27-.17.45-.3.56-.4.12-.12.27-.32.48-.6.2-.28.36-.48.48-.6.25-.26.59-.17,1.03.26.07.07.16.16.27.28s.18.2.22.24l4.35,4.31Z"/>
        <path class="cls-1" d="M67.05,57c-.22-.29-.44-.46-.66-.52-.22-.06-.53.02-.93.23-.4.21-.7.18-.9-.08-.08-.11-.11-.26-.06-.47.04-.2.16-.38.36-.53.09-.06.25-.15.51-.26.26-.11.45-.22.59-.32.09-.07.26-.24.53-.52.27-.28.44-.45.52-.51.15-.12.31-.14.47-.06.16.08.39.31.7.69.51.63,1.04,1.31,1.6,2.04l2.48,3.37c.18.24.32.37.4.4.08.02.22.03.43,0,.21-.02.44-.1.7-.22.26-.12.45-.17.57-.13.13.04.23.11.31.22.2.26.1.54-.3.85-.28.21-.58.41-.91.58s-.64.37-.93.59c-.23.18-.51.43-.85.75-.33.32-.59.55-.77.69-.39.3-.7.31-.92.01-.1-.13-.14-.25-.13-.39,0-.13.12-.29.34-.49.25-.22.38-.38.39-.49.03-.32.02-.57-.04-.74-.06-.17-.26-.48-.59-.91l-2.91-3.8ZM77.54,56.06c.26.33.48.51.67.53.19.02.46-.05.8-.2.34-.16.58-.14.72.04.19.25.14.48-.15.7-.05.04-.3.21-.72.49-.43.29-.78.53-1.06.75-.46.35-.83.68-1.1.98-.27.3-.45.49-.55.56-.14.11-.3.16-.5.16-.19,0-.34-.07-.44-.21-.08-.1-.1-.24-.07-.4.03-.17.11-.3.24-.4.25-.19.41-.43.49-.72.08-.29.01-.58-.21-.87-1.43-1.87-2.31-3.03-2.63-3.5-.32-.46-.5-.72-.54-.78-.46-.6-.97-.7-1.52-.28-.24.18-.43.62-.59,1.32-.16.7-.33,1.12-.51,1.26-.06.05-.16.06-.3.04-.14-.02-.24-.07-.31-.16-.21-.28-.18-.96.1-2.06.28-1.1.75-1.91,1.43-2.43.4-.31.82-.47,1.27-.48.45-.02.84.09,1.18.33.33.24.72.64,1.15,1.21l.56.76,2.58,3.37Z"/>
        <path class="cls-1" d="M89.35,49.48c.24-.13.47.01.68.41.14.26-.12.82-.76,1.69-.65.87-1.44,1.55-2.39,2.06-1.56.83-3.14,1.06-4.76.7-1.62-.36-2.82-1.27-3.59-2.72-.69-1.29-.76-2.7-.23-4.23.53-1.54,1.53-2.69,2.99-3.47.79-.42,1.77-.73,2.94-.94,1.17-.21,1.83-.18,1.97.09.26.48.49.86.7,1.13.21.27.33.43.35.48.21.39.13.68-.22.87-.27.14-.62,0-1.04-.44-.43-.44-.96-.68-1.6-.73-.64-.05-1.31.11-2.01.48-.88.47-1.52,1.23-1.93,2.3-.41,1.06-.29,2.19.35,3.4.59,1.11,1.5,1.79,2.72,2.05,1.22.26,2.29.14,3.21-.35.33-.18.66-.41.97-.68.31-.28.62-.67.92-1.17.3-.5.54-.8.73-.9"/>
        <path class="cls-1" d="M100.67,44.83c.23.67.82.98,1.79.94.24,0,.43.01.56.06.13.05.24.19.32.43.04.12,0,.25-.11.39-.11.14-.25.23-.42.29-.17.06-.42.1-.75.11-.33.02-.58.06-.76.12-.21.07-.46.2-.76.39-.29.19-.49.31-.6.34-.13.04-.27.04-.43-.01-.15-.05-.25-.12-.28-.22-.05-.15-.12-.21-.21-.18-.06.02-.14.08-.21.18-.82,1-1.83,1.7-3.03,2.11-.57.19-1.25.26-2.06.2-.8-.06-1.52-.33-2.15-.8-.63-.47-1.1-1.17-1.41-2.07-.33-.96-.16-1.97.5-3.02.66-1.05,1.71-1.82,3.15-2.3.48-.16,1.06-.21,1.74-.13.67.08,1.06.26,1.16.55.05.14.02.27-.07.39-.09.12-.22.22-.4.27-.12.04-.38.04-.79-.01-.41-.05-.79-.01-1.16.11-.75.25-1.3.69-1.64,1.3-.34.62-.39,1.3-.14,2.05.29.87.8,1.44,1.53,1.72.73.28,1.46.29,2.2.04.67-.23,1.21-.66,1.62-1.29.41-.64.5-1.32.25-2.07l-1.27-3.77c-.19-.57-.53-.96-1.02-1.19-.49-.23-1.04-.24-1.67-.03-.8.27-1.48.78-2.06,1.55-.2.26-.34.41-.43.44-.22.07-.43.08-.62.02-.19-.06-.32-.19-.38-.37-.15-.45.13-.98.84-1.57.71-.59,1.56-1.05,2.53-1.38,1.2-.41,2.27-.43,3.21-.06.94.36,1.55.97,1.84,1.81l1.57,4.67Z"/>
        <path class="cls-1" d="M120.53,41.2c.04.48.17.91.39,1.29.22.38.59.64,1.11.77.52.14.81.24.9.31.08.07.13.16.14.26.03.43-.17.66-.62.69-.14.01-.35-.01-.62-.07-.27-.06-.61-.07-1.03-.04-.28.02-.58.08-.91.19-.33.1-.54.16-.62.17-.18.01-.34-.04-.48-.17-.14-.13-.22-.26-.24-.41-.03-.15-.06-.22-.11-.21l-.22.12c-1.4.95-2.6,1.47-3.6,1.55-1.43.11-2.75-.34-3.98-1.35s-1.9-2.23-2.01-3.66c-.13-1.63.35-3.02,1.42-4.16,1.08-1.14,2.38-1.78,3.91-1.89.65-.05,1.32.06,2.03.33.71.27,1.08.61,1.11,1,0,.13-.03.24-.11.33-.08.09-.19.15-.3.16-.14.01-.49-.08-1.03-.28-.54-.2-1.04-.28-1.48-.25-.97.08-1.76.55-2.37,1.42-.61.87-.87,1.88-.78,3.01.08.97.46,1.9,1.14,2.8.69.9,1.56,1.31,2.62,1.23.57-.04,1.21-.25,1.92-.63.71-.37,1.15-.84,1.31-1.4.16-.56.2-1.39.11-2.49l-.98-12.58c-.06-.81-.24-1.36-.54-1.65-.29-.29-.7-.5-1.23-.61-.52-.12-.85-.21-.97-.28-.12-.07-.19-.19-.2-.37,0-.13.05-.25.19-.35.14-.11.34-.17.6-.19.11,0,.34,0,.69.02s.64.02.85,0c.45-.04.83-.09,1.15-.15.32-.06.52-.1.58-.1.35-.03.59.06.72.25.13.19.21.46.24.81.05.64.09,1.16.14,1.55.04.39.07.73.1,1.04l1.09,13.98Z"/>
        <path class="cls-1" d="M133.09,39.49c.22.02.37,0,.46-.07.09-.07.14-.21.16-.41.07-.74-.15-1.47-.66-2.17-.51-.7-1.34-1.11-2.5-1.23-.8-.08-1.66.23-2.59.91-.93.68-1.46,1.73-1.6,3.14-.1,1.03.26,2,1.08,2.91.82.91,1.79,1.42,2.9,1.53.85.08,1.79-.1,2.82-.54.39-.17.65-.25.77-.23.17.02.31.08.4.19.09.11.13.24.12.38-.04.36-.61.73-1.72,1.14-1.11.4-2.24.55-3.36.44-1.67-.16-3.01-.88-4.04-2.14-1.02-1.26-1.46-2.68-1.3-4.27.14-1.45.89-2.63,2.24-3.54,1.35-.91,2.8-1.29,4.35-1.14,2.01.2,3.47.87,4.37,2.01.9,1.14,1.28,2.44,1.14,3.89-.03.31-.13.5-.29.56-.16.06-.45.07-.86.03l-6.62-.65c-.54-.05-.79-.28-.75-.69.04-.38.33-.55.89-.49l4.61.45Z"/>
        <path class="cls-1" d="M141.1,44.85c-.06.26-.05.49.04.7.09.21.35.41.78.59.43.18.69.35.76.48s.09.3.04.47c-.07.31-.34.41-.8.3-.28-.07-.69-.2-1.23-.41-.54-.2-.95-.34-1.23-.41-.26-.06-.66-.12-1.19-.17-.53-.05-.92-.11-1.19-.17-.38-.09-.61-.19-.7-.3-.09-.11-.11-.25-.08-.4.04-.15.11-.27.23-.36.11-.08.42-.11.91-.06.49.04.84-.04,1.04-.25.2-.21.34-.47.42-.8l3.66-15.4c.08-.33.07-.64-.02-.93-.09-.29-.36-.54-.8-.77-.44-.23-.7-.41-.76-.54-.06-.14-.08-.28-.04-.42.03-.14.14-.24.32-.29.18-.05.35-.05.52-.01.15.04.37.12.65.25.29.13.5.21.64.24.16.04.41.07.74.09.33.02.58.05.74.09.3.07.51.21.61.4.1.2.11.5,0,.92l-4.08,17.17Z"/>
        <path class="cls-1" d="M159.26,51.77c.25.11.27.38.09.79-.12.27-.72.4-1.8.42-1.08.01-2.11-.2-3.09-.65-1.6-.73-2.75-1.85-3.45-3.36s-.7-3.01-.02-4.5c.61-1.33,1.68-2.24,3.23-2.75s3.07-.42,4.57.27c.81.37,1.65.96,2.53,1.77.88.81,1.25,1.35,1.13,1.62-.23.5-.39.91-.47,1.25-.09.33-.14.52-.16.57-.18.4-.46.52-.82.35-.28-.13-.37-.49-.28-1.1.09-.6-.04-1.18-.39-1.72-.35-.54-.88-.98-1.6-1.31-.91-.41-1.91-.46-2.99-.14-1.09.32-1.92,1.1-2.49,2.35-.52,1.14-.51,2.28.03,3.41.54,1.13,1.28,1.91,2.23,2.34.34.16.72.28,1.13.36.41.08.91.09,1.49.02.58-.07.97-.06,1.16.03"/>
        <path class="cls-1" d="M169.85,57.96c-.39.58-.28,1.25.34,1.99.15.19.25.35.29.49.04.14,0,.31-.14.51-.07.11-.2.16-.37.15-.18,0-.34-.06-.48-.15-.15-.1-.33-.28-.55-.53-.21-.25-.4-.43-.56-.54-.19-.12-.44-.24-.77-.36-.33-.12-.54-.21-.64-.27-.11-.08-.2-.19-.25-.34-.05-.15-.05-.27,0-.35.09-.13.09-.22,0-.28-.06-.04-.15-.06-.27-.06-1.29-.04-2.46-.42-3.51-1.13-.5-.33-.97-.84-1.41-1.51-.44-.67-.66-1.4-.67-2.19,0-.79.26-1.58.79-2.38.57-.84,1.47-1.32,2.71-1.44,1.23-.11,2.48.26,3.74,1.1.42.29.81.72,1.16,1.3.35.58.44,1,.27,1.25-.08.12-.2.18-.35.19-.15,0-.31-.05-.46-.15-.1-.07-.26-.28-.47-.63-.21-.35-.47-.64-.79-.85-.66-.44-1.34-.61-2.03-.51-.7.1-1.27.48-1.71,1.13-.51.76-.66,1.51-.43,2.26.22.74.66,1.33,1.31,1.77.59.39,1.26.56,2.01.51s1.35-.41,1.79-1.06l2.22-3.3c.33-.49.44-1.01.33-1.53-.12-.53-.45-.97-.99-1.34-.7-.47-1.52-.7-2.48-.7-.33,0-.53-.02-.61-.08-.19-.13-.32-.29-.39-.48-.07-.19-.05-.37.06-.53.27-.4.85-.49,1.76-.29s1.78.6,2.63,1.17c1.05.71,1.72,1.55,2,2.51.28.97.17,1.82-.32,2.56l-2.75,4.09Z"/>
        <path class="cls-1" d="M181.83,52.68c.73-.82,1.41-1.41,2.05-1.78.63-.37,1.35-.61,2.14-.7.8-.09,1.6-.07,2.4.06.8.14,1.28.27,1.43.41.1.09.02.28-.24.57-.03.04-.17.05-.4.04-1.08-.09-2.05.11-2.92.61-.87.49-1.69,1.16-2.45,2.02l-3.18,3.55c-.08.09-.06.18.06.29.05.05.18.14.4.3.21.15.41.31.59.47.42.37.5.71.24.99-.13.14-.29.19-.5.15-.21-.04-.41-.15-.6-.31-.69-.62-1.29-.65-1.8-.08l-3.39,3.78c-.32.36-.49.61-.5.76,0,.14,0,.31,0,.5.02.19.18.46.48.81.3.35.46.6.48.74s-.03.28-.14.4c-.26.29-.6.24-1.02-.13-.25-.22-.52-.53-.83-.94-.31-.41-.65-.77-1.01-1.1-.23-.21-.59-.46-1.08-.77-.49-.31-.79-.51-.89-.6-.46-.41-.54-.77-.26-1.09.09-.1.2-.16.33-.17.13,0,.36.11.71.34.35.24.63.37.87.4.23.03.43-.02.58-.14.16-.13.45-.43.88-.91l3.13-3.49c.47-.52.38-1.07-.26-1.65-.5-.45-.6-.83-.32-1.14.26-.29.64-.21,1.14.25.18.16.34.33.49.5.15.17.24.27.27.3.09.08.17.07.25-.01l2.87-3.2Z"/>
        <path class="cls-1" d="M187.02,70.28c.14.17.27.26.38.27.11,0,.24-.05.4-.19.57-.49.91-1.16,1.03-2.02.12-.86-.2-1.73-.95-2.62-.52-.61-1.35-.99-2.5-1.14-1.14-.15-2.25.23-3.33,1.15-.79.67-1.2,1.62-1.24,2.84-.04,1.22.3,2.26,1.03,3.11.55.65,1.35,1.17,2.4,1.57.4.15.64.27.71.36.11.13.16.27.16.41,0,.14-.07.26-.18.36-.27.23-.95.11-2.03-.38-1.08-.48-1.99-1.15-2.73-2.02-1.09-1.27-1.56-2.72-1.43-4.34.14-1.62.81-2.95,2.02-3.98,1.11-.95,2.47-1.28,4.07-1,1.6.28,2.91,1.01,3.92,2.2,1.31,1.54,1.9,3.03,1.76,4.48-.14,1.45-.77,2.64-1.88,3.59-.24.2-.44.27-.59.2-.16-.07-.37-.26-.64-.58l-4.32-5.06c-.35-.41-.37-.75-.06-1.01.29-.25.62-.16.99.26l3.01,3.52ZM195.53,61.1c.31.36.49.7.56,1.01.06.32,0,.56-.21.73-.48.41-.95.33-1.43-.23-.13-.16-.36-.28-.67-.36-.31-.09-.95-.15-1.92-.17-.97-.03-1.53-.14-1.7-.33-.14-.17-.14-.32,0-.44.33-.28,1.2-.51,2.62-.68,1.42-.17,2.33-.01,2.75.47"/>
        <path class="cls-1" d="M180.15,130.26l-3.02-5.14s0,0-.01-.01c-.06-.09-.14-.17-.23-.23-.03-.02-.06-.03-.1-.05-.04-.02-.07-.05-.12-.06l-15.15-4.05-.91-7.99c-.02-.16-.09-.31-.19-.42l-3.32-3.62c-.12-.13-.28-.22-.46-.24l-5.12-.66-.37-1.47,10.72-19.34,2.27-1.25c.21.08.44.07.65-.05l3.02-1.82c.18-.11.31-.29.35-.5.04-.21,0-.43-.14-.6l-7.25-9.67c-.1-.14-.26-.24-.43-.28l-37.45-9.06c-.12-.03-.25-.03-.36,0l-34.43,8.76c-.1.02-.19.07-.27.13l-12.16,9.28c-.19.15-.3.37-.3.62,0,.24.13.46.32.6l8.59,5.99,8.38,20.3-.32,1.66-9.44,3.28c-.3.11-.51.39-.51.71v10.14l-6.26,3.54s0,0,0,0c0,0,0,0,0,0-7.07,4.04-10.78,6.22-11.03,6.46-.2.2-.27.51-.18.78.09.27.34.47.62.5,3.01.36,6.99.85,10.87,1.32l8.78,10.82-5.8,30.46c-.08.41.19.81.6.88.05,0,.1.01.14.01.35,0,.67-.25.74-.61l.28-1.49,10.27-22.67h3.21s-5.28,26.89-5.28,26.89c-.08.41.19.81.6.89.05.01.1.01.15.01.35,0,.67-.25.74-.61l.16-.8,5.29-7.84-.58,2.92c-.08.41.18.81.59.89.05.01.1.01.15.01.35,0,.67-.25.74-.61l1.29-6.46,10.63-15.77,4.3-.15,5.68,10.54.78,18.08c.02.4.35.72.75.72.01,0,.02,0,.03,0,.42-.02.74-.37.72-.79l-.64-14.96,7.56,14.03.03.7c.02.4.35.72.75.72.01,0,.02,0,.04,0,.42-.02.74-.37.72-.79l-.04-.85c1-2.8,2.2-6.16,3.43-9.59l.84,9.63c.03.39.36.69.75.69.02,0,.04,0,.07,0,.42-.04.72-.4.69-.82l-1.13-12.91c2.4-6.71,4.65-12.99,5.36-14.91h5.42l1.62,2.18c.36,2.52,1.09,7.39,2.54,16.9.06.37.38.64.75.64.04,0,.08,0,.12,0,.41-.06.7-.45.63-.86-.67-4.36-1.53-10.03-2.13-14.11l14.85,19.95.09.36c.09.34.39.57.73.57.06,0,.13,0,.19-.02.4-.1.65-.51.55-.92l-6.34-24.88,2.7-.67,5.8,22.9c.09.34.39.57.73.57.06,0,.12,0,.19-.02.4-.1.65-.51.55-.92l-5.99-23.62s0,0,0,0c0,0,0,0,0,0l-1.66-6.56,9.34-12.51,9.19-1.69c.24-.04.45-.2.55-.43.1-.22.09-.48-.04-.7ZM156.17,109.91l2.97,3.24.81,7.15-3.65-.98-1.41-9.58,1.28.17ZM154.11,109.64l1.4,9.47-1.2-.32-2.39-9.43,2.2.28ZM152.7,118.61l-2.95-.14-2.47-9.7,3.03.39,2.4,9.45ZM129.89,105.72h-3.58l-.34-7.42.37-3.33,16.27,1.6,2.67,10.46-15.39-1.31ZM137.6,117.88l-6.51-.31v-10.23l6.08.52.43,10.02ZM130.33,107.27v10.25l-3.49-.17-.46-10.13h3.44s.51.04.51.04ZM105.33,108.53l1.8-9.16,16.34-4.09,1.01,3.42.32,7.02h-3s-.09,0-.13.01l-16.35,2.8ZM121.63,117.95l-5.77.81v-10.49l5.38-.92.39,10.61ZM115.1,108.39v10.47l-5.86.82.53-10.38,5.33-.91ZM149.59,92.87c.03.06.09.09.13.13l-1.29,2.59-.35-1.38,5.39-18.33,2.08.47,1.63,1.74-6.71,13.43-.57.31c-.36.2-.5.66-.3,1.03ZM134.25,85.03l2.79.58,1.64,9.06-3.14-.31-1.29-9.33ZM134.77,94.28l-5.38-.53-.53-9.85,4.61.96,1.3,9.42ZM137.83,85.77l2.32.48c-.06.15-.09.31-.05.47l2.11,8.29-2.76-.27-1.62-8.97ZM141.77,87.16l1.78,1.27,1.33,7.23-1.03-.45s-.02,0-.03,0l-2.05-8.04ZM145.54,90.35l1.34,5.27-.24.81-.91-.4-1.28-6.97,1.15.82c-.06.15-.09.31-.05.47ZM146.91,98.2l.18.08-.48.97.31-1.04ZM146.21,97.89l-.91,3.1-1-3.94,1.92.84ZM147.68,98.78l2.23,8.8-3.03-.39-1.15-4.51,1.95-3.9ZM147.71,92.78l-.71-2.79c-.05-.22-.2-.38-.39-.48l-5.52-3.93c-.05-.04-.11-.06-.17-.08l-13.24-2.76,1.36-12.4,23.67,5.38-5.01,17.06ZM128.62,93.68l-2.11-.21,1.08-9.83.5.1.53,9.94ZM126.95,82.58l-2.33-.49c-.07-.01-.14-.01-.2,0l-3.77.96-3.75-12.69,5.83-1.47,5.59,1.27-1.37,12.41ZM122.44,89.13l-.38-5.5,1.72-.44.47,10.34-.47.12-1.34-4.53ZM123.05,93.84l-.28.07-.09-1.31.37,1.24ZM124.32,95.07l.02.48-.13-.45.11-.03ZM121.69,89.26l.33,4.83-2.47.62-.35-10.35.96-.25,1.52,5.15ZM120.9,83.93l.42-.11.14,1.97-.55-1.86ZM119.92,83.24l-11.2,2.86c-.05,0-.1.02-.15.04l-7.73,2.32-4.44-12.92,19.77-4.99,3.75,12.69ZM118.81,94.89l-4.75,1.19v-10.41l4.4-1.12.35,10.34ZM97.78,90.33l1.22-.37-.3,2.44c-.31-.54-.63-1.09-.95-1.63l.03-.16c.02-.1.01-.19,0-.28ZM99.17,94.73c.91,1.58,1.79,3.08,2.57,4.43l-3.22.8.65-5.24ZM99.33,93.48l.46-3.76.61-.18,3.15,9.17-1.05.26c-.95-1.64-2.04-3.52-3.18-5.49ZM101.13,89.32l3.77-1.13-.93,9.38-2.84-8.25ZM104.05,100.14l.89,2.58-.06.33c-.4-.7-.94-1.62-1.58-2.72l.75-.19ZM104.78,99.96l.73-.18-.29,1.47-.44-1.29ZM104.64,98.44l1.04-10.48,2.29-.69-2.13,10.87-1.2.3ZM109.56,86.99c.01-.06,0-.11,0-.17l3.75-.96v10.41l-5.85,1.46,2.11-10.74ZM100.11,88.68l-3.04.91c-3.08-5.31-5.97-10.31-6.76-11.66l1.63-1.27,3.72-.94,4.45,12.96ZM96.73,96.91c.18-.26.17-.59.01-.84l.79-4.17c.34.58.68,1.17,1.01,1.74l-.8,6.52-1.87.47.68-3.56c.06-.05.13-.09.18-.15ZM102.53,100.52c.96,1.66,1.71,2.94,2.12,3.66l-.91,4.63-3.19.55-5.74.91s-.09.02-.13.03l-.69.24,1.58-8.27,6.97-1.74ZM100.79,110.85l2.64-.45-2.05,10.43-5.01,1.09,1.91-10.67,2.5-.4ZM105.02,110.12l3.99-.68-.53,10.35-5.51.77,2.05-10.44ZM124.87,107.23l.46,10.2-2.96.41-.39-10.61h2.88ZM125.29,83.16l1.56.33-1.09,9.91h0s-.46-10.24-.46-10.24ZM143.39,108.38l1.2,9.83-6.24-.3-.43-10,5.47.47ZM144.16,108.45l1.51.13,2.5,9.81-2.82-.14-1.19-9.8ZM150.88,105.25l-1.78-7.01c.08-.28,0-.57-.19-.76l-.2-.77,1.75-3.51c.05-.02.1-.01.15-.04l10.01-5.5-9.75,17.59ZM162,85.18l-10.38,5.7,6.1-12.2,4.94,5.3-.67,1.2ZM79.99,84.31l-2.59-1.81,11.22-8.56,34.1-8.68,37.01,8.95,6.58,8.78-1.6.96-8.22-8.81c-.1-.11-.24-.19-.38-.22l-33.22-7.55c-.11-.03-.24-.02-.35,0l-31.11,7.85c-.1.03-.2.07-.28.14l-10.87,8.46c-.16.12-.25.3-.28.48ZM81.09,85.08s.08-.03.11-.05l1.05-.81.97,2.35-2.13-1.48ZM82.86,83.73l6.85-5.33c.83,1.43,3.66,6.32,6.67,11.52-.08.11-.12.24-.08.38,0,0,0,0,0,0,0,0,0,.01,0,.02l-.9,4.74-11.04-7.7-1.5-3.63ZM85.43,89.95l9.66,6.74-2.17,11.4-7.49-18.14ZM93.66,112.25l1.45-.5,2.39-.38-1.92,10.72-3.96.86,2.04-10.7ZM90.14,113.47l1.87-.65-2,10.48-.31.07.43-9.9ZM89.37,113.74l-.43,9.8-2.1.46v-9.36s0-.01,0-.02l2.53-.88ZM83.9,115.64l2.19-.76v9.28l-2.19.48v-9ZM83.72,126.22l5.87-1.28,1.73-.37h0s9.75-2.14,9.75-2.14l1.6-.31,22.74-3.18,1.51-.07,21.65,1.04,1.58.08,2.95.14,1.64.33,15.56,4.16-14.57-.28-1.56-.03-2.92-.06-1.57-.03-20.68-.39-1.84.17-1.51.14-23.8,2.19-1.57.14-9.49.87-1.56.14-9.28.85,3.79-2.14ZM158.01,148.46l-.61.03-1.12-4.39,2.15-2.88,1.26,4.98-1.69,2.26ZM159.94,147.14l.31,1.21-1.25.06.95-1.27ZM152.8,136.54l-25.05.91-.54-11.94,1.83-.17,21.01.4,2.75,10.79ZM151.62,125.79l2.92.06,2.18,8.6-2.53,1.43-2.57-10.08ZM140.57,138.5l1.57,10.34-6.87.15-1.33-10.25,6.63-.24ZM141.33,138.47l6.73-.25,1.61,10.45-6.76.15-1.57-10.35ZM148.82,138.2l4.37-.16,1.7,6.67-2.92,3.91-1.54.03-1.61-10.46ZM155.13,145.65l.73,2.88-2.93.07,2.2-2.95ZM154.58,137.39l2.53-1.43,1.09,4.32-2.15,2.88-1.47-5.77ZM158.48,135.26l4-.73-3.12,4.19-.88-3.45ZM158.11,133.8l-2.01-7.93,12.66.24-4.95,6.64-5.7,1.05ZM113.07,138c-3.08,0-8.65.01-13.52.02l1.99-10.13,24.17-2.22.54,11.85-13.18.48ZM120.7,149.48l-6.58.31v-10.32l6.42-.23.17,10.25ZM113.36,139.5v10.33l-6.76.31.72-10.62c1.94,0,3.89,0,5.78-.01h.26ZM86.62,149.23l1.89-9.91c.27.03.51.06.71.09l.81,1.16-1.72,9.96c-.23,0-.45,0-.65,0l-1.05-1.29ZM86.71,150.54c-.12,0-.24,0-.34.01l.07-.35.28.34ZM92.73,138.01l-3.1-4.59.86-4.52,9.48-.87-1.96,9.98c-2.05,0-3.89,0-5.28,0ZM95.21,139.52l-.27,1.75-1.19-1.76c.45,0,.94,0,1.45,0ZM91.82,138.01c-.93,0-1.52,0-1.62,0-.04,0-.45-.06-1.15-.14l-.22-.31.59-3.08,2.39,3.54ZM90.21,139.51h0s0,0,0,0h0ZM88.43,131.64l-1.62-2.4,2.12-.19-.49,2.6ZM88.23,132.7l-.6,3.14-4.41-6.26,2.72-.25,2.28,3.38ZM90.65,141.44l3.5,4.98-.64,4.15c-1.85-.03-3.3-.05-4.43-.05l1.57-9.08ZM90.83,140.38l.15-.87c.47,0,1.1,0,1.86,0l1.93,2.86-.45,2.96-3.49-4.96ZM94.78,147.31l1.1,1.57-.34,1.73c-.43,0-.87-.02-1.26-.02l.5-3.27ZM94.94,146.23l.45-2.93,1.23,1.82-.54,2.74-1.14-1.62ZM95.56,142.2l.41-2.68c.33,0,.66,0,1.01,0,.24,0,.49,0,.74,0l-.89,4.54-1.26-1.87ZM97.81,146.88l2.4,3.55-2.24.1-.68-.97.53-2.68ZM98.02,145.83l1.24-6.31c1.07,0,2.18,0,3.34,0l-1.57,10.76-3-4.45ZM103.36,139.52c1.05,0,2.12,0,3.2,0l-.72,10.66-4.06.19,1.59-10.84ZM126.31,139.02l.46,10.18-5.32.25-.17-10.24,5.03-.18ZM67.87,135.29c1.15-.68,2.75-1.6,4.39-2.55l2.78,3.42c-2.8-.34-5.39-.65-7.17-.87ZM76.12,136.29l-3.19-3.93c1.33-.77,2.67-1.53,3.81-2.19l5.62-.52,5.08,7.22-.15.78c-2.77-.34-7.09-.86-11.17-1.36ZM77.49,137.97c3.68.45,7.16.87,9.52,1.16l-1.63,8.56-7.89-9.72ZM81.75,174.76l3.72-19.51h5.12s-8.84,19.51-8.84,19.51ZM85.76,153.74l.32-1.68c1.45-.06,5.86,0,9.17.05l-.32,1.63h-9.17ZM96.66,171.87l-5.29,7.86,4.81-24.49,3.83-.14-3.34,16.77ZM98.85,168.62l2.71-13.58,6.61-.24-9.31,13.82ZM114.24,154.59l4.38-.16.39,8.99-4.76-8.84ZM119.31,152.89s0,0,0,0c0,0,0,0,0,0l-22.83.82.32-1.61,30.06-1.39.09,1.91-7.62.27ZM120.64,166.47l-.52-12.1,6.88-.25,1.19,26.36-7.55-14.02ZM128.28,149.15l-.46-10.18,5.36-.2,1.33,10.24-6.23.14ZM129.68,180.02l-1.17-25.91h3.09l1.44,16.51c-.96,2.7-2.08,5.82-3.36,9.41ZM134.26,167.2l-1.15-13.1h5.91c-.59,1.49-1.85,4.97-4.76,13.1ZM146.14,154.1h.38c.02.16.05.36.08.62l-.46-.62ZM128.44,152.59l-.09-1.94,27.89-.62.65,2.55h-28.45ZM163.08,176.87l-14.59-19.61c-.21-1.45-.37-2.56-.45-3.16h9.24l5.8,22.77ZM161.11,151.77l-2.7.67-.63-2.45,2.84-.14.49,1.93ZM160.86,144.64l-1.26-4.98,3.98-5.33,5.77-1.06-8.49,11.37ZM164.9,132.55l4.79-6.42,6.35.12,2.26,3.84-13.4,2.46Z"/>
      </g>
    </g>
  </g>
</svg>