<?xml version="1.0" encoding="UTF-8"?>
<svg id="Capa_2" data-name="Capa 2" xmlns="http://www.w3.org/2000/svg" viewBox="0 0 243.97 243.97">
  <defs>
    <style>
      .cls-1 {
        fill: #1d381e;
      }

      .cls-1, .cls-2 {
        stroke-width: 0px;
      }

      .cls-2 {
        fill: #cbbcab;
      }
    </style>
  </defs>
  <g id="Head">
    <circle class="cls-1" cx="121.99" cy="121.99" r="121.99"/>
    <g>
      <path class="cls-2" d="M121.99,230.13c-59.14,0-107.25-48.11-107.25-107.25S62.85,15.64,121.99,15.64s107.25,48.11,107.25,107.25-48.11,107.25-107.25,107.25M121.99,17.89c-57.9,0-105,47.1-105,105s47.1,105,105,105,105-47.1,105-105S179.88,17.89,121.99,17.89"/>
      <path class="cls-2" d="M121.99,196.63c-40.66,0-73.74-33.08-73.74-73.74S81.32,49.14,121.99,49.14s73.74,33.08,73.74,73.74-33.08,73.74-73.74,73.74M121.99,51.39c-39.42,0-71.5,32.07-71.5,71.5s32.07,71.5,71.5,71.5,71.5-32.07,71.5-71.5-32.07-71.5-71.5-71.5"/>
      <path class="cls-2" d="M70.34,192.96c-.22.27-.5.3-.76.08l-.77-.62c-.27-.22-.3-.5-.08-.77l1.82-2.25c.75-.92.95-1.68-.15-2.57-1.1-.88-1.8-.53-2.54.39l-6.83,8.46c-.75.92-.95,1.68.15,2.57,1.1.88,1.8.53,2.54-.39l1.83-2.27c.22-.27.48-.28.75-.06l.77.62c.27.22.31.48.1.75l-1.83,2.27c-1.48,1.83-2.94,2.3-5.24.43-2.31-1.86-2.15-3.39-.68-5.22l6.83-8.46c1.47-1.83,2.94-2.3,5.24-.43,2.31,1.86,2.15,3.39.68,5.22l-1.82,2.25Z"/>
      <path class="cls-2" d="M82.99,197.48l-5.48,9.39c-1.18,2.03-2.56,2.71-5.12,1.22-2.56-1.49-2.64-3.03-1.46-5.05l5.48-9.39c1.18-2.03,2.55-2.71,5.12-1.22,2.56,1.49,2.64,3.03,1.46,5.05M78.21,194.69l-5.48,9.39c-.6,1.02-.68,1.8.53,2.51,1.22.71,1.86.25,2.45-.77l5.48-9.39c.6-1.02.68-1.8-.54-2.51-1.22-.71-1.85-.25-2.45.77"/>
      <path class="cls-2" d="M94.67,198.78c.32.13.44.37.31.69l-.25.62c-.13.32-.39.43-.71.3l-3.75-1.53-2.39,5.88,2.88,1.17c.32.13.44.37.31.69l-.25.62c-.13.32-.39.43-.71.3l-2.88-1.17-2.84,6.98c-.13.32-.39.43-.71.3l-.92-.37c-.32-.13-.43-.39-.3-.71l6.34-15.58c.13-.32.38-.41.7-.28l5.17,2.1Z"/>
      <path class="cls-2" d="M104.82,201.69c.33.09.48.3.4.64l-.17.65c-.09.33-.33.48-.66.39l-3.92-1.02-1.59,6.15,3.01.78c.33.09.48.3.4.64l-.17.65c-.09.33-.33.48-.66.39l-3.01-.78-1.89,7.29c-.09.33-.33.48-.66.39l-.96-.25c-.33-.09-.48-.33-.39-.66l4.22-16.28c.09-.33.32-.45.66-.37l5.4,1.4Z"/>
      <path class="cls-2" d="M115.26,203.24c.34.04.52.24.48.58l-.08.66c-.04.34-.26.52-.61.47l-4.02-.49-.77,6.3,3.09.37c.34.04.52.24.48.58l-.08.66c-.04.34-.26.52-.61.47l-3.09-.38-.77,6.3,4.02.49c.34.04.52.24.48.58l-.08.66c-.04.34-.26.52-.6.47l-5.54-.67c-.34-.04-.52-.26-.47-.6l2.03-16.7c.04-.34.26-.49.6-.45l5.54.67Z"/>
      <path class="cls-2" d="M125.91,203.4c.35,0,.55.16.55.51v.67c.02.35-.18.55-.52.55l-4.05.07.1,6.35,3.11-.05c.35,0,.55.16.55.51v.67c.02.35-.18.55-.52.55l-3.11.05.1,6.35,4.05-.07c.35,0,.55.16.55.51v.67c.02.35-.18.55-.52.55l-5.58.09c-.35,0-.55-.19-.55-.53l-.27-16.82c0-.35.19-.52.54-.53l5.58-.09Z"/>
      <path class="cls-2" d="M142.92,202.5l3.77,15.15c.08.34-.06.58-.4.66l-.96.24c-.33.08-.57-.06-.66-.4l-3.77-15.15-2.73.68c-.34.08-.58-.06-.66-.4l-.16-.65c-.08-.34.07-.55.4-.63l7.48-1.86c.33-.08.57.04.65.37l.16.65c.08.33-.06.58-.4.66l-2.73.68Z"/>
      <path class="cls-2" d="M157.6,199.16l4.15,10.05c.9,2.17.61,3.68-2.13,4.81-2.74,1.13-4.01.27-4.9-1.9l-4.15-10.05c-.9-2.17-.61-3.68,2.13-4.81,2.74-1.13,4.01-.27,4.9,1.9M152.49,201.28l4.15,10.05c.45,1.1,1.02,1.64,2.33,1.1,1.3-.54,1.32-1.32.87-2.42l-4.15-10.05c-.45-1.1-1.02-1.64-2.33-1.1-1.3.54-1.32,1.32-.87,2.42"/>
      <path class="cls-2" d="M160.66,194.27c-.18-.3-.1-.55.2-.73l.85-.51c.3-.18.55-.13.73.16l7.18,11.86c.62,1.01,1.26,1.46,2.47.73,1.2-.73,1.11-1.51.49-2.52l-7.18-11.86c-.18-.3-.1-.55.2-.73l.84-.51c.3-.18.56-.13.73.16l7.18,11.86c1.22,2.01,1.16,3.54-1.37,5.08-2.54,1.54-3.92.87-5.14-1.13l-7.18-11.86Z"/>
      <path class="cls-2" d="M180.85,191.38l6.96,3.91c.28.15.43.51.12.8l-.85.71c-.23.19-.44.21-.65.06l-7.03-3.95-.74.62,4.71,5.66c.22.27.2.54-.07.77l-.76.63c-.27.22-.54.2-.76-.07l-10.77-12.92c-.22-.27-.18-.53.09-.75l2.12-1.77c2.49-2.07,4.05-1.54,5.68.41l1.33,1.59c1.27,1.52,1.73,2.81.63,4.3M178.49,191.41c1.29-1.08,1.05-1.94.15-3.02l-1.33-1.59c-.89-1.06-1.71-1.47-3-.4l-.95.79,4.18,5.01.95-.79Z"/>
      <path class="cls-2" d="M207.31,122.7c-1.14-2.01-.37-5.17,2-7.54,2.68-2.68,6.39-3.32,8.29-1.43,0,0,0,0,0,0-.38,1.1-1.59,3.45-5.21,4.72-3.31,1.16-4.59,3.01-5.09,4.24M218.46,114.72c-.29.67-.79,1.55-1.65,2.41-.87.87-2.1,1.72-3.84,2.33-3.54,1.24-4.52,3.27-4.8,4.25.01.01.02.03.04.04,1.9,1.89,5.6,1.26,8.29-1.43,2.39-2.39,3.16-5.59,1.96-7.6"/>
      <path class="cls-2" d="M39.16,122.7c-.49-1.23-1.77-3.08-5.09-4.24-3.62-1.27-4.83-3.62-5.2-4.72,0,0,0,0,0,0,1.89-1.89,5.6-1.25,8.29,1.43,2.36,2.36,3.14,5.52,2,7.54M28.01,114.72c-1.19,2.01-.43,5.21,1.96,7.6,2.68,2.68,6.39,3.32,8.29,1.43.01-.01.02-.03.04-.04-.28-.98-1.26-3.01-4.8-4.25-1.74-.61-2.97-1.46-3.84-2.33-.86-.86-1.36-1.74-1.65-2.41"/>
      <path class="cls-2" d="M173.1,110.63c-.07-.3-.3-.55-.6-.64-14.16-4.13-25.18-.67-29.83,4.6-.05.06-.1.13-.13.2-2.68.24-5.19.81-7.57,1.73,3.83-3.66,6.44-6.85,7.84-8.71.17,0,.34.02.5.02,5.49,0,11.02-2.91,15.68-8.27,4.82-5.55,8.19-13.11,9.48-21.3.04-.28-.05-.57-.26-.76-.21-.2-.5-.28-.77-.22-20.71,4.21-25.55,18.22-25.93,29.35-.54.72-1.28,1.66-2.22,2.77.18-2.53-.32-5.33-.81-7.39.04-.04.08-.08.11-.12,7.48-10.73,8.76-22.37,3.44-31.14-.14-.22-.36-.37-.62-.41-.26-.04-.52.05-.71.23-4.59,4.27-7.46,11.04-7.67,18.1-.17,5.47,1.38,10.33,4.23,13.33.1.11.23.18.37.23.05.23.11.45.17.67.51,2.29.93,5.27.48,7.69-2.42,2.73-5.84,6.19-10.26,9.71-.45.36-.89.7-1.32,1.03.94-2.41,1.07-4.82.83-6.29,1.09-.72,1.86-1.76,2.24-3.06.66-2.23.17-5.09-1.33-7.65-2.08-3.57-3.44-4.77-5.38-4.77-.96,0-2.18.86-3.11,2.2-.71,1.03-2.22,3.8-.89,7.36,1.28,3.41,3.53,5.54,6.68,6.32.03,0,.06.01.1.02.2,1.42,0,4.13-1.4,6.6-.46-1.79-1.74-3.39-3.57-4.32-2.01-5.85-4.96-9.99-7.92-11.13-1.34-.51-2.69-.41-3.92.29-1.66.95-2.59,2.43-2.69,4.29-.14,2.58,1.41,5.58,3.77,7.3,3.52,2.56,5.85,2.18,9.67,1.3.23-.05.42-.19.53-.38,1.79,1.01,2.8,2.88,2.53,4.68-4.16,2.82-7.83,4.68-12.42,7-3.02,1.53-6.45,3.27-10.65,5.6-.06.03-.11.06-.17.09.63-1.61,1.58-4.19,2.23-6.61,1.79-4.56,3.3-9.5,2.28-14.67-1.29-6.53-6.49-11.68-15.46-15.32-.29-.12-.61-.07-.86.12-.24.19-.37.5-.33.8,1.35,10,6.5,21.84,12.58,29.02-1.01,3.59-2.66,7.52-2.68,7.57-.05.13-.07.27-.06.4-5.16,3.02-8.75,5.73-12.07,9.37.27-.83.49-1.61.67-2.32.08-.08.15-.17.19-.28,1.67-4.09,3.19-8.89,1.87-13.54-1.46-5.1-6.05-9.23-14.05-12.62-.27-.11-.57-.08-.82.08-.24.16-.39.43-.39.72,0,10.04,5.7,19.78,11.51,25.22-.53,2.22-1.59,5.2-3.31,8.2-2.53,3.58-5.22,8.02-8.66,13.88-.24.41-.1.95.31,1.19.14.08.29.12.44.12.3,0,.59-.15.75-.43,3.41-5.81,6.08-10.2,8.57-13.73,5.29-6.3,9.99-10.16,16.58-9.74,4.57,5.77,19.86,11.42,28.92,13.17.05.01.11.02.16.02.24,0,.47-.1.64-.28.2-.22.28-.53.2-.82-1.99-7.2-5.59-12.08-10.71-14.53-5.25-2.51-11.95-2.25-18.89.72-2.5-.19-4.84.16-7.09,1.07,2.38-1.8,5.12-3.49,8.5-5.37,4.17-2.32,7.58-4.05,10.59-5.57,5.43-2.75,9.6-4.87,14.79-8.65,0,0,0,0,.01,0,1.46-.22,2.85.17,4.02,1.13,1.84,1.52,2.98,4.38,3.25,8.09-1.05.3-1.89.94-2.49,1.91-1.46,2.36-1.21,6.3-.48,9.2,1.07,4.3,2.79,6.47,5.09,6.47.16,0,.32,0,.48-.03.86-.11,1.62-.58,2.22-1.38,1.36-1.83,1.79-5.26,1.13-9.17-.57-3.45-1.56-5.6-3.01-6.58-.63-.42-1.34-.61-2.1-.56-.28-3.8-1.37-6.13-2.52-7.54,3.61,1.88,6.74,4.53,9.47,9.92-.44-.05-.86.23-.95.67-1.33,6.06,1.49,10.73,4.88,12.67,1.14.65,2.31.98,3.4.98,1.24,0,2.39-.42,3.29-1.25,1.63-1.5,2.11-3.87,1.3-6.32-1.12-3.37-4.8-7.03-10.48-7.62-.3-.03-.57.09-.75.3-.79-1.54-1.62-2.87-2.48-4.02,1.51.82,3.25,1.39,4.95,1.61,1.66,2.74,4.28,4.42,7.26,4.62.2.01.39.02.59.02,2.09,0,3.98-.76,4.92-2.02.97-1.29,1.27-2.83.84-4.35-.42-1.5-1.74-3.6-5.59-5.26-.24-1.91-1.23-3.48-2.89-4.53-3.37-2.12-8.9-1.71-13.16.99-.46.24-.85.61-1.13,1.06-2.58-.69-4.9-.7-7.05-.53.35-.27.7-.54,1.06-.83,1.41-1.12,2.71-2.23,3.92-3.31,2.81-1.39,5.79-2.25,9.03-2.6.08.1.2.17.33.17.03,0,.07,0,.1-.01.08-.02.17-.04.26-.06,3.13,2.93,6.88,4.43,11.04,4.43,1.71,0,3.49-.25,5.33-.76,6.44-1.79,11.75-6.2,13.74-8.01.23-.21.33-.53.26-.84M134.76,88.71c.19-6.19,2.54-12.12,6.34-16.11,4.11,7.69,2.99,17.59-3.04,26.97-.66-5.73.39-13.63,2.78-19.83.09-.22-.03-.47-.25-.56-.22-.08-.47.03-.56.25-2.33,6.06-3.41,13.74-2.89,19.54-1.64-2.65-2.48-6.26-2.36-10.26M166.55,79.25c-2.76,14.77-12.47,26.26-22.49,26.82.1-.17.14-.36.12-.55,5.85-5.47,12.02-11.89,16.01-19.08.12-.21.04-.47-.17-.59-.21-.12-.47-.04-.59.17-3.92,7.06-9.99,13.39-15.77,18.8-.09-.04-.19-.06-.29-.07.49-6.04,2.34-11.15,5.51-15.22,3.9-5.02,9.85-8.48,17.67-10.28M111.13,117.07c-1.88-1.37-3.16-3.8-3.05-5.8.07-1.26.68-2.22,1.82-2.87.45-.26.91-.39,1.38-.39.35,0,.7.07,1.07.21,2.39.91,5.05,4.78,6.84,9.91-3.47.79-5.18,1.02-8.05-1.06M120.7,108.5c-1.03-2.76.11-4.91.65-5.71.76-1.13,1.54-1.51,1.72-1.51.84,0,1.77.3,3.88,3.91,1.24,2.12,1.68,4.53,1.16,6.28-.31,1.04-.94,1.81-1.87,2.3-.02,0-.05-.01-.07-.02-.96-.24-3.87-.97-5.47-5.25M102.42,115.84c.69,3.51.08,6.97-.97,10.29-.43-6.43-2.61-11.61-6.07-17.83-.12-.21-.38-.28-.59-.17-.21.12-.29.38-.17.59,3.71,6.68,5.93,12.12,6.04,19.25-.02.02-.03.05-.04.08-4.57-5.84-9.51-15.88-11.18-25.65,7.52,3.35,11.88,7.87,12.98,13.44M74.49,120.85c6.72,3.05,10.59,6.65,11.81,10.95.88,3.08.35,6.23-.65,9.3-.91-5.85-3.47-10.35-5.92-14.03-.13-.2-.4-.25-.6-.12-.2.13-.25.4-.12.6,2.53,3.8,5.19,8.51,5.92,14.69-.15.11-.26.26-.31.44-4.99-5.03-9.68-13.25-10.13-21.84M117.36,143.35c4.32,2.06,7.47,6.11,9.38,12.05-8.47-1.88-20.83-6.62-25.6-11.29,0,0,.01-.02.02-.03,8.7.65,14.06,2.27,18.76,5.59.08.05.16.08.25.08.14,0,.27-.06.36-.18.14-.2.09-.47-.1-.61-4.7-3.31-9.99-4.97-18.4-5.68,5.69-1.97,11.07-1.96,15.33.07M135.28,135.06c.7.47,1.66,1.8,2.27,5.43.56,3.35.24,6.43-.81,7.85-.31.41-.66.65-1.04.7-1.92.24-3.06-2.66-3.68-5.14-.61-2.44-.9-5.96.27-7.86.41-.65.95-1.05,1.67-1.21.51-.11.93-.04,1.32.23M151.37,142.73c.6,1.82.3,3.46-.83,4.5-1.13,1.04-2.87,1.06-4.64.04-2.83-1.62-5.18-5.59-4.05-10.79,0-.02,0-.03,0-.04,0,0,.01,0,.02,0,.06,0,.13-.01.19-.04.07-.03.12-.08.16-.13.05.01.09.02.14.03,4.91.51,8.06,3.6,9.01,6.44M156.2,131.2c.28.98.08,1.99-.56,2.84-.54.72-2.03,1.44-4,1.3-1.26-.09-3.45-.59-5.22-2.81.36-.02.72-.06,1.07-.13,2.77-.51,4.47-2.28,4.8-4.97,0-.01,0-.03,0-.04,2.14,1.05,3.51,2.38,3.92,3.81M136.38,124.35c.11-.4.35-.72.67-.88.03-.01.05-.03.08-.04,2.15-1.37,4.73-2.09,7.05-2.09,1.63,0,3.14.35,4.29,1.08,1.62,1.02,2.34,2.68,2.09,4.8-.23,1.93-1.37,3.1-3.39,3.47-3.61.67-8.82-1.53-10.32-4.35-.01-.03-.03-.05-.05-.08-.43-.65-.58-1.32-.43-1.91M134.74,123.8s-.02.07-.03.11c-.23.85-.12,1.76.28,2.64-1.89-1.38-3.93-2.35-6.12-3.26,1.82-.1,3.76-.02,5.87.52M158.64,117.81c-5.31,1.47-9.93.65-13.76-2.44,5.35-1.03,11.27-1.5,14.93-1.5.24,0,.43-.19.43-.43s-.19-.43-.43-.43c-3.67,0-9.23.44-14.45,1.39,5.98-5.03,16.62-5.25,25.09-3.15-2.41,2.01-6.76,5.16-11.82,6.56"/>
      <path class="cls-2" d="M112.6,114.81c-1.59-1.06-2.63-3.2-2.15-4.4.09-.22-.02-.47-.24-.56-.22-.09-.48.02-.56.24-.64,1.59.52,4.14,2.48,5.44.07.05.16.07.24.07.14,0,.28-.07.36-.19.13-.2.08-.47-.12-.6"/>
      <path class="cls-2" d="M123.45,104.37c.11-.21.02-.48-.19-.58-.21-.11-.48-.02-.58.19-.98,1.96-.87,3.86.32,5.64.08.13.22.19.36.19.08,0,.17-.02.24-.07.2-.13.25-.4.12-.6-1.02-1.53-1.1-3.09-.26-4.77"/>
      <path class="cls-2" d="M139.27,125.15c.07,0,.13-.02.19-.05,2.18-1.09,4.93-1.1,6.82-.01.21.12.47.05.59-.16.12-.21.05-.47-.16-.59-2.14-1.22-5.21-1.23-7.64-.01-.21.11-.3.37-.19.58.08.15.23.24.39.24"/>
      <path class="cls-2" d="M133.63,139.42c-.31,2.49-.26,4.28.9,7.16.07.17.23.27.4.27.05,0,.11-.01.16-.03.22-.09.33-.34.24-.56-1.09-2.72-1.14-4.34-.84-6.73.03-.24-.14-.46-.38-.48-.24-.03-.45.14-.48.38"/>
      <path class="cls-2" d="M147.23,146.25s.09.02.14.02c.18,0,.35-.11.41-.3.08-.23-.05-.47-.27-.55-1.43-.48-2.87-3.62-3.18-5.17-.05-.23-.28-.39-.51-.34-.24.05-.39.28-.34.51.29,1.44,1.78,5.16,3.76,5.82"/>
      <path class="cls-2" d="M150.04,132.68c-.24-.03-.46.13-.49.37-.03.24.13.46.37.49.62.09,1.16.12,1.64.12,1.12,0,1.91-.2,2.61-.43.23-.08.35-.32.27-.55-.08-.23-.32-.35-.55-.27-.9.3-1.98.54-3.85.27"/>
      <path class="cls-2" d="M121.99,236.39c-62.58,0-113.5-50.92-113.5-113.5S59.4,9.39,121.99,9.39s113.5,50.92,113.5,113.5-50.92,113.5-113.5,113.5M121.99,10.51C60.02,10.51,9.61,60.92,9.61,122.89s50.41,112.38,112.38,112.38,112.38-50.41,112.38-112.38S183.95,10.51,121.99,10.51"/>
      <path class="cls-2" d="M49.33,65.08c-.86-.69-1.49-1.35-1.9-1.97-.41-.62-.68-1.33-.82-2.12-.14-.8-.16-1.6-.06-2.42.1-.82.21-1.3.34-1.46.09-.11.28-.04.59.21.04.03.06.17.06.41-.03,1.09.22,2.06.76,2.91s1.26,1.64,2.16,2.36l3.74,3.02c.09.07.19.05.28-.07.04-.05.14-.19.28-.42.14-.22.29-.43.44-.62.36-.44.68-.54.99-.29.15.12.21.29.18.5-.03.21-.13.42-.29.62-.59.73-.59,1.33,0,1.81l3.98,3.22c.38.31.64.46.79.47.14,0,.31,0,.5-.04.19-.03.46-.2.79-.53.34-.32.58-.5.72-.52.14-.02.28.02.4.12.3.24.28.59-.08,1.03-.21.26-.51.55-.9.88-.39.33-.75.69-1.06,1.08-.2.24-.44.62-.72,1.13-.28.51-.47.82-.56.93-.39.48-.75.58-1.08.31-.11-.09-.17-.19-.18-.32-.02-.13.09-.37.31-.73.22-.36.34-.66.36-.89.02-.24-.04-.43-.17-.58-.13-.15-.45-.43-.96-.84l-3.67-2.97c-.55-.44-1.1-.33-1.64.35-.42.52-.8.65-1.13.38-.3-.24-.24-.63.19-1.16.15-.19.31-.36.48-.52.16-.16.26-.25.29-.29.07-.09.06-.17-.03-.25l-3.37-2.72Z"/>
      <path class="cls-2" d="M55.96,56.35c.31-.32.7-.48,1.17-.48s.85.16,1.17.48c.29.28.42.64.39,1.06-.03.42-.19.79-.5,1.1-.31.31-.68.47-1.12.48-.44,0-.82-.14-1.12-.45-.29-.29-.44-.65-.43-1.09,0-.44.16-.81.45-1.1M65.92,64.54c.34.34.63.5.86.48.23-.02.46-.12.7-.3.24-.18.43-.28.57-.31.14-.03.3.04.48.22.24.23.15.55-.25.95-.17.17-.45.41-.84.72-.39.31-.66.54-.83.71-.17.17-.38.44-.64.81-.26.38-.47.64-.63.8-.16.16-.34.25-.55.27-.21.02-.38-.04-.53-.19-.09-.09-.14-.2-.15-.33,0-.13.1-.34.31-.64.21-.3.3-.56.28-.78-.03-.22-.28-.58-.76-1.05l-3.55-3.51c-.3-.3-.56-.43-.78-.4-.22.03-.48.14-.77.33-.29.19-.5.28-.64.26-.14-.02-.26-.08-.38-.2-.13-.13-.18-.28-.16-.46.02-.18.1-.34.23-.48.12-.12.31-.26.58-.43.27-.17.46-.3.56-.41.12-.12.28-.32.48-.6.2-.28.36-.48.48-.6.26-.26.6-.17,1.03.26.07.07.16.16.27.29.11.12.18.2.23.24l4.38,4.34Z"/>
      <path class="cls-2" d="M66.61,56.44c-.22-.29-.44-.46-.67-.52-.22-.06-.54.02-.94.23-.4.21-.71.19-.91-.08-.08-.11-.11-.27-.06-.47.04-.2.16-.38.37-.54.09-.07.26-.15.51-.26.26-.11.45-.22.59-.32.09-.07.26-.24.54-.52.27-.28.45-.45.52-.51.15-.12.31-.14.47-.06.16.08.4.31.7.7.51.64,1.05,1.32,1.62,2.06l2.5,3.4c.19.24.32.38.4.4.08.02.23.03.43,0,.21-.02.44-.1.71-.22.26-.12.45-.17.58-.13.13.04.23.11.32.22.2.26.1.55-.3.86-.28.21-.59.41-.92.58-.33.18-.64.37-.93.59-.23.18-.52.43-.85.76-.34.33-.59.56-.77.69-.4.3-.71.31-.93.02-.1-.13-.14-.26-.13-.39,0-.13.12-.3.34-.49.25-.22.38-.38.4-.49.03-.32.02-.57-.04-.75-.06-.18-.26-.48-.6-.92l-2.94-3.83ZM77.19,55.49c.26.34.48.52.68.53.19.02.46-.05.8-.2.34-.16.58-.14.72.04.19.25.14.48-.15.7-.05.04-.3.21-.73.49-.43.29-.79.54-1.07.75-.46.36-.83.69-1.11.99-.27.3-.46.49-.55.56-.14.11-.31.16-.5.16-.19,0-.34-.07-.44-.21-.08-.1-.1-.24-.07-.41.03-.17.11-.3.24-.4.25-.19.41-.43.5-.72.08-.29.01-.58-.21-.87-1.44-1.88-2.33-3.06-2.65-3.53-.32-.47-.5-.73-.54-.78-.47-.61-.98-.7-1.53-.28-.24.18-.44.63-.6,1.33-.16.71-.33,1.13-.52,1.27-.06.05-.16.06-.3.04-.14-.02-.24-.07-.31-.16-.21-.28-.18-.97.1-2.08.28-1.11.76-1.92,1.44-2.44.4-.31.83-.47,1.28-.49s.85.09,1.18.33c.34.24.72.64,1.16,1.22l.56.76,2.6,3.39Z"/>
      <path class="cls-2" d="M89.09,48.86c.24-.13.47.01.69.42.14.26-.12.83-.77,1.7-.65.88-1.45,1.57-2.41,2.08-1.57.84-3.17,1.07-4.8.7-1.63-.37-2.84-1.28-3.62-2.74-.69-1.3-.77-2.72-.23-4.27.53-1.55,1.54-2.71,3.01-3.5.79-.42,1.78-.74,2.96-.94,1.18-.21,1.85-.18,1.99.09.26.49.49.87.71,1.14.21.28.33.44.35.48.21.39.13.68-.22.87-.27.14-.62,0-1.05-.45-.43-.44-.97-.69-1.61-.74-.65-.05-1.32.11-2.03.49-.89.47-1.53,1.24-1.94,2.31-.41,1.07-.29,2.21.36,3.43.6,1.12,1.51,1.81,2.74,2.06,1.23.26,2.31.14,3.24-.35.34-.18.66-.41.98-.69.32-.28.62-.67.92-1.18.3-.51.55-.81.74-.91"/>
      <path class="cls-2" d="M100.51,44.17c.23.67.83.99,1.8.95.24,0,.43.01.57.06s.24.19.32.43c.04.12,0,.25-.11.39-.11.14-.25.24-.42.29-.18.06-.43.1-.76.11-.33.02-.59.06-.77.12-.21.07-.47.2-.76.4-.3.19-.5.31-.61.35-.13.04-.27.04-.43-.01-.16-.05-.25-.12-.28-.22-.05-.15-.12-.21-.21-.18-.06.02-.14.08-.22.18-.82,1.01-1.84,1.71-3.05,2.12-.57.19-1.26.26-2.07.2-.81-.06-1.53-.33-2.16-.81-.64-.48-1.11-1.17-1.42-2.09-.33-.97-.16-1.99.51-3.04.67-1.06,1.72-1.83,3.17-2.32.49-.17,1.07-.21,1.75-.13.68.08,1.07.26,1.16.55.05.14.02.27-.07.4-.09.13-.23.22-.4.28-.12.04-.38.04-.79-.01s-.8-.01-1.17.11c-.76.26-1.31.69-1.66,1.31-.35.62-.39,1.31-.14,2.06.3.88.81,1.45,1.54,1.73.73.28,1.47.29,2.22.04.67-.23,1.22-.66,1.64-1.3.42-.64.5-1.33.25-2.08l-1.28-3.8c-.19-.57-.53-.97-1.03-1.2-.49-.23-1.05-.24-1.68-.03-.8.27-1.5.79-2.08,1.56-.2.26-.34.41-.44.44-.22.08-.43.08-.63.02-.2-.06-.33-.19-.39-.38-.15-.46.13-.99.85-1.58.72-.6,1.57-1.06,2.55-1.39,1.21-.41,2.29-.43,3.24-.06.95.37,1.57.97,1.85,1.82l1.59,4.7Z"/>
      <path class="cls-2" d="M120.52,40.51c.04.48.17.91.39,1.3.23.38.6.64,1.12.78.52.14.82.24.91.32.08.07.13.16.14.26.03.43-.18.66-.62.7-.15.01-.35-.01-.62-.07-.27-.06-.61-.07-1.03-.04-.28.02-.59.08-.92.19-.33.1-.54.16-.63.17-.19.01-.35-.04-.48-.17-.14-.13-.22-.26-.25-.41-.03-.15-.06-.22-.11-.21l-.22.12c-1.41.96-2.62,1.48-3.63,1.56-1.44.11-2.78-.34-4.01-1.36-1.24-1.02-1.91-2.25-2.02-3.69-.13-1.64.35-3.04,1.43-4.19,1.08-1.15,2.4-1.79,3.94-1.91.65-.05,1.33.06,2.05.33.71.27,1.09.61,1.12,1.01,0,.13-.03.24-.11.33-.08.1-.19.15-.3.16-.15.01-.49-.08-1.04-.28-.55-.2-1.05-.28-1.49-.25-.98.08-1.78.55-2.39,1.43s-.88,1.89-.79,3.03c.08.98.46,1.92,1.15,2.82.69.91,1.57,1.32,2.64,1.24.57-.05,1.22-.26,1.94-.63.72-.38,1.16-.85,1.32-1.41.16-.56.2-1.4.11-2.51l-.98-12.68c-.06-.82-.24-1.37-.54-1.66-.3-.29-.71-.5-1.24-.62-.53-.12-.85-.21-.98-.28-.12-.07-.19-.2-.21-.38,0-.13.05-.25.19-.35.14-.11.34-.17.6-.19.11,0,.34,0,.69.02.36.02.64.02.85,0,.45-.03.84-.08,1.16-.15.32-.06.52-.1.59-.11.35-.03.59.06.73.25.13.19.21.47.24.82.05.65.1,1.17.14,1.56.04.39.07.74.1,1.05l1.1,14.09Z"/>
      <path class="cls-2" d="M133.18,38.79c.22.02.38,0,.46-.07.09-.07.14-.21.16-.41.07-.75-.15-1.48-.66-2.19-.51-.71-1.35-1.12-2.52-1.23-.81-.08-1.68.23-2.61.92-.93.69-1.47,1.75-1.61,3.17-.1,1.04.26,2.02,1.09,2.93.83.92,1.8,1.43,2.93,1.54.85.08,1.8-.1,2.84-.54.4-.17.65-.25.77-.24.17.02.31.08.4.19.09.11.13.24.12.39-.04.36-.61.74-1.74,1.15-1.12.41-2.25.55-3.39.44-1.68-.16-3.04-.88-4.07-2.15-1.03-1.27-1.47-2.71-1.31-4.31.14-1.46.89-2.65,2.25-3.57,1.36-.92,2.82-1.3,4.38-1.15,2.03.2,3.5.87,4.41,2.02.91,1.15,1.29,2.45,1.15,3.92-.03.31-.13.5-.29.56-.16.06-.45.07-.87.03l-6.68-.65c-.54-.05-.79-.28-.75-.69.04-.39.34-.55.9-.5l4.65.45Z"/>
      <path class="cls-2" d="M141.25,44.19c-.06.26-.05.5.04.71.09.21.35.41.79.6.44.19.69.35.76.49s.09.3.05.47c-.07.31-.34.41-.81.3-.29-.07-.7-.21-1.24-.41-.54-.21-.96-.34-1.24-.41-.27-.06-.66-.12-1.2-.17-.53-.05-.93-.11-1.2-.17-.38-.09-.62-.19-.7-.31-.09-.11-.11-.25-.08-.4.04-.16.11-.28.23-.36.12-.08.42-.11.92-.06.5.04.85-.04,1.05-.25.21-.21.35-.48.43-.8l3.69-15.52c.08-.34.07-.65-.02-.94-.09-.29-.36-.55-.81-.78-.45-.23-.7-.41-.76-.55-.06-.14-.08-.28-.04-.43.03-.14.14-.24.32-.29.18-.05.35-.06.52-.02.15.04.37.12.66.25.29.13.5.21.64.24.16.04.41.07.75.09.34.02.59.05.75.09.3.07.51.21.61.4.1.2.11.51,0,.93l-4.11,17.3Z"/>
      <path class="cls-2" d="M159.56,51.17c.25.11.28.38.09.8-.12.27-.73.41-1.82.42-1.09.01-2.13-.21-3.11-.66-1.62-.74-2.77-1.87-3.47-3.39-.7-1.52-.71-3.03-.02-4.54.61-1.34,1.7-2.26,3.25-2.78,1.55-.51,3.09-.42,4.61.27.82.37,1.67.97,2.55,1.78s1.26,1.36,1.13,1.64c-.23.5-.39.92-.48,1.26-.09.34-.14.53-.17.57-.18.4-.46.52-.83.35-.28-.13-.37-.5-.28-1.11.09-.61-.04-1.19-.39-1.73-.35-.55-.89-.99-1.62-1.32-.91-.42-1.92-.46-3.02-.14-1.1.33-1.93,1.11-2.51,2.36-.53,1.15-.52,2.3.03,3.43.55,1.14,1.29,1.92,2.24,2.36.35.16.73.28,1.14.36.41.08.91.09,1.5.02.59-.07.97-.06,1.17.03"/>
      <path class="cls-2" d="M170.25,57.41c-.4.59-.28,1.26.34,2.01.16.19.25.35.3.49.04.14,0,.31-.14.52-.07.11-.2.16-.38.15-.18,0-.34-.06-.49-.16-.15-.1-.34-.28-.55-.53-.21-.25-.4-.43-.56-.54-.19-.13-.45-.25-.78-.36-.33-.12-.55-.21-.64-.27-.11-.08-.2-.19-.25-.35-.05-.16-.05-.27,0-.36.09-.13.09-.22,0-.28-.06-.04-.15-.06-.28-.06-1.3-.04-2.48-.42-3.54-1.14-.5-.34-.97-.85-1.42-1.52-.44-.68-.67-1.42-.67-2.21,0-.8.26-1.59.8-2.4.57-.85,1.48-1.33,2.73-1.45,1.24-.11,2.5.26,3.77,1.11.43.29.82.73,1.17,1.31.35.59.44,1.01.27,1.26-.08.12-.2.18-.36.19-.15,0-.31-.05-.46-.15-.11-.07-.26-.28-.47-.64-.21-.35-.47-.64-.8-.86-.66-.45-1.35-.62-2.05-.52-.7.1-1.28.48-1.72,1.14-.52.77-.66,1.53-.44,2.28.22.75.66,1.35,1.32,1.79.59.4,1.27.57,2.03.51.76-.06,1.36-.41,1.8-1.07l2.24-3.33c.34-.5.44-1.01.33-1.55-.12-.53-.45-.98-1-1.35-.7-.47-1.54-.71-2.5-.7-.33,0-.54-.02-.62-.08-.19-.13-.33-.29-.39-.49-.07-.19-.05-.37.06-.54.27-.4.86-.5,1.77-.29.91.21,1.8.6,2.65,1.18,1.06.71,1.73,1.56,2.02,2.53.28.97.18,1.83-.32,2.58l-2.77,4.12Z"/>
      <path class="cls-2" d="M182.3,52.08c.74-.82,1.42-1.42,2.06-1.8.64-.37,1.36-.61,2.16-.71.8-.1,1.61-.07,2.42.06s1.29.27,1.45.41c.1.09.02.28-.24.57-.03.04-.17.05-.41.04-1.09-.09-2.07.12-2.95.61-.88.5-1.7,1.17-2.47,2.03l-3.2,3.58c-.08.09-.06.18.06.29.05.05.18.15.4.3.22.15.41.31.6.47.42.38.5.71.24,1-.13.14-.3.19-.51.15-.21-.04-.41-.15-.6-.32-.7-.63-1.3-.65-1.81-.08l-3.42,3.81c-.33.37-.5.62-.51.76,0,.14,0,.31,0,.5.02.19.18.47.48.82.31.35.47.6.48.75.01.15-.03.28-.14.4-.26.29-.6.25-1.02-.13-.25-.22-.53-.54-.83-.95-.31-.41-.65-.78-1.02-1.11-.23-.21-.6-.47-1.09-.78s-.79-.51-.9-.61c-.46-.41-.54-.78-.26-1.1.09-.1.2-.16.33-.17.13,0,.36.11.71.35.35.24.64.37.87.41.23.03.43-.02.59-.14.16-.13.46-.43.89-.91l3.15-3.52c.47-.53.38-1.08-.26-1.66-.5-.45-.61-.83-.32-1.15.26-.29.64-.21,1.15.25.18.16.35.33.49.5.15.17.24.27.28.31.09.08.17.07.25-.02l2.89-3.23Z"/>
      <path class="cls-2" d="M187.54,69.82c.15.17.27.26.38.27.11,0,.24-.05.4-.19.57-.49.92-1.17,1.04-2.03.12-.87-.2-1.75-.96-2.64-.53-.62-1.36-1-2.52-1.15-1.15-.15-2.27.24-3.36,1.16-.79.68-1.21,1.63-1.25,2.87s.3,2.28,1.04,3.14c.56.65,1.36,1.18,2.42,1.58.4.15.64.28.72.36.11.13.17.27.16.41,0,.14-.07.26-.19.36-.27.23-.96.11-2.05-.38-1.09-.49-2.01-1.16-2.75-2.03-1.1-1.28-1.58-2.74-1.44-4.37.14-1.63.82-2.97,2.04-4.01,1.12-.95,2.48-1.29,4.1-1.01,1.62.28,2.93,1.02,3.95,2.22,1.32,1.55,1.92,3.05,1.77,4.51-.14,1.46-.77,2.66-1.89,3.62-.24.21-.44.27-.6.2-.16-.07-.37-.26-.64-.58l-4.36-5.1c-.35-.42-.38-.75-.06-1.02.3-.25.63-.16,1,.27l3.03,3.55ZM196.12,60.57c.31.36.5.7.56,1.02.06.32,0,.56-.21.74-.48.41-.96.33-1.44-.23-.13-.16-.36-.28-.67-.37-.32-.09-.96-.15-1.94-.17-.98-.03-1.55-.14-1.71-.33-.15-.17-.14-.32,0-.45.33-.28,1.21-.51,2.64-.68,1.43-.17,2.35-.02,2.77.47"/>
    </g>
  </g>
</svg>