<?xml version="1.0" encoding="UTF-8"?>
<svg id="Capa_2" data-name="Capa 2" xmlns="http://www.w3.org/2000/svg" viewBox="0 0 103.01 35.38">
  <defs>
    <style>
      .cls-1 {
        fill: #2d2d2e;
        stroke-width: 0px;
      }
    </style>
  </defs>
  <g id="Paleta_de_color" data-name="Paleta de color">
    <g>
      <path class="cls-1" d="m6.97,32.38c.04.2-.51.21-.47,0,0,0,0-.75,0-.75.1-.65-.88-.65-.78,0,0,0,0,2.8,0,2.8,0,.31.07.49.39.49.6.04.33-.89.39-1.24-.04-.19.51-.2.47,0-.01.7.18,1.76-.86,1.69-.67,0-.86-.33-.86-.94v-2.8c-.2-1.25,1.92-1.25,1.72,0,0,0,0,.75,0,.75Z"/>
      <path class="cls-1" d="m9.74,30.49c-.14.09-.27-.23-.14-.3.09,0,.89-.78.95-.52.03.09.2.3.05.36,0,0-.86.46-.86.46Zm.38,4.71c.04.21-.51.2-.47,0,0,0,0-4.34,0-4.34,0-.09.04-.13.12-.13.11.02.36-.06.35.13,0,0,0,4.34,0,4.34Z"/>
      <path class="cls-1" d="m13.97,33.24l.64,1.92c.08.22-.22.18-.35.18-.16.11-.71-1.99-.77-2.04h-.22v1.9c.04.21-.51.2-.47,0,0,0,0-4.34,0-4.34-.04-.25.63-.09.75-.13.73,0,.93.36.93,1.02,0,.53.09,1.37-.51,1.49m-.41-.38c.61.04.44-.71.46-1.11.05-.52-.31-.62-.74-.57v1.68h.28Z"/>
      <path class="cls-1" d="m18.89,32.38c.04.2-.51.21-.47,0,0,0,0-.75,0-.75.1-.65-.88-.65-.78,0,0,0,0,2.8,0,2.8,0,.31.07.49.39.49.6.04.33-.89.39-1.24-.04-.19.51-.2.47,0-.01.7.18,1.76-.86,1.69-.67,0-.86-.33-.86-.94v-2.8c-.2-1.25,1.92-1.25,1.72,0,0,0,0,.75,0,.75Z"/>
      <path class="cls-1" d="m21.58,30.87c-.04-.2.51-.19.47,0,0,0,0,3.57,0,3.57,0,.31.07.49.39.49s.39-.18.39-.49v-3.57c-.04-.2.51-.19.47,0,0,0,0,3.57,0,3.57,0,.61-.19.94-.86.94s-.86-.33-.86-.94v-3.57Z"/>
      <path class="cls-1" d="m26.45,34.9c.11.05,1.09-.13,1.04.13,0,.1.03.32-.12.31-.11-.06-1.46.14-1.39-.14,0,0,0-4.34,0-4.34,0-.09.04-.13.12-.13.11.02.36-.06.35.13,0,0,0,4.03,0,4.03Z"/>
      <path class="cls-1" d="m31.7,31.64v2.8c0,.61-.19.94-.86.94s-.86-.33-.86-.94v-2.8c-.2-1.25,1.92-1.25,1.72,0m-1.25,0v2.8c0,.31.07.49.39.49s.39-.18.39-.49v-2.8c.1-.65-.88-.65-.78,0"/>
      <path class="cls-1" d="m37.82,35.34c-.08,0-.12-.05-.12-.14v-4.34c0-.09.04-.13.12-.13.82-.05,1.64,0,1.55,1.02,0,0,0,2.57,0,2.57.09,1.03-.73,1.08-1.55,1.03Zm.63-.45c.38,0,.46-.22.46-.58v-2.57c.05-.52-.31-.62-.74-.57v3.72h.28Z"/>
      <path class="cls-1" d="m43.45,30.73c.16-.01.12.2.12.31.05.28-.93.09-1.04.14v1.64h.7c.16-.01.12.2.12.31.04.27-.71.09-.83.14v1.64h.92c.16-.01.12.2.12.31.08.28-1.28.08-1.39.14-.08,0-.12-.05-.12-.14v-4.34c-.08-.27,1.29-.08,1.39-.13Z"/>
      <path class="cls-1" d="m50.79,30.73c.16-.01.12.2.12.31.05.28-.93.09-1.04.14v1.64h.7c.16-.01.12.2.12.31.04.27-.71.09-.83.14v1.64h.92c.16-.01.12.2.12.31.08.28-1.28.08-1.39.14-.08,0-.12-.05-.12-.14v-4.34c-.08-.27,1.29-.08,1.39-.13Z"/>
      <path class="cls-1" d="m54.49,33.04l.69,2.13c.08.22-.21.18-.34.18-.28-.14-.48-1.42-.6-1.74h-.03c-.1.42-.34,1.24-.48,1.64-.04.16-.56.15-.46-.08,0,0,.69-2.13.69-2.13l-.69-2.13c-.07-.22.21-.18.34-.18.28.14.48,1.42.6,1.74h.03c.1-.42.34-1.24.48-1.64.03-.15.26-.08.36-.1.35-.07-.64,2.22-.6,2.3Z"/>
      <path class="cls-1" d="m58.18,33.48v1.72c.04.21-.51.2-.47,0,0,0,0-4.34,0-4.34-.04-.25.62-.09.73-.13,1.08-.07.93.98.93,1.73.05.8-.43,1.1-1.2,1.03Zm.26-.45c.67.04.42-.88.46-1.29.05-.51-.3-.62-.73-.57v1.86h.26Z"/>
      <path class="cls-1" d="m63.34,30.73c.16-.01.12.2.12.31.05.28-.93.09-1.04.14v1.64h.7c.16-.01.12.2.12.31.04.27-.71.09-.83.14v1.64h.92c.16-.01.12.2.12.31.08.28-1.28.08-1.39.14-.08,0-.12-.05-.12-.14v-4.34c-.08-.27,1.29-.08,1.39-.13Z"/>
      <path class="cls-1" d="m67.14,33.24l.64,1.92c.08.22-.22.18-.35.18-.16.11-.71-1.99-.77-2.04h-.22v1.9c.04.21-.51.2-.47,0,0,0,0-4.34,0-4.34-.04-.25.63-.09.75-.13.73,0,.93.36.93,1.02,0,.53.09,1.37-.51,1.49m-.41-.38c.61.04.44-.71.46-1.11.05-.52-.31-.62-.74-.57v1.68h.28Z"/>
      <path class="cls-1" d="m70.81,35.2c.04.21-.51.2-.47,0,0,0,0-4.34,0-4.34,0-.09.04-.13.12-.13.11.02.36-.06.35.13,0,0,0,4.34,0,4.34Z"/>
      <path class="cls-1" d="m74.88,30.73c.16-.01.12.2.12.31.05.28-.93.09-1.04.14v1.64h.7c.16-.01.12.2.12.31.04.27-.71.09-.83.14v1.64h.92c.16-.01.12.2.12.31.08.28-1.28.08-1.39.14-.08,0-.12-.05-.12-.14v-4.34c-.08-.27,1.29-.08,1.39-.13Z"/>
      <path class="cls-1" d="m78.8,30.87c-.04-.2.49-.19.45,0,0,0,0,4.34,0,4.34.02.22-.3.12-.41.14-.08,0-.11-.04-.13-.12-.15-.66-.64-2.69-.75-3.32h-.03c.06.64.05,2.64.04,3.3.02.19-.22.13-.33.14-.28.05-.05-4.36-.12-4.48-.02-.21.3-.11.41-.13.08,0,.11.04.13.12.15.66.64,2.69.75,3.32h.03c-.06-.64-.05-2.65-.04-3.31Z"/>
      <path class="cls-1" d="m83.66,32.38c.04.2-.51.21-.47,0,0,0,0-.75,0-.75.1-.65-.88-.65-.78,0,0,0,0,2.8,0,2.8,0,.31.07.49.39.49.6.04.33-.89.39-1.24-.04-.19.51-.2.47,0-.01.7.18,1.76-.86,1.69-.67,0-.86-.33-.86-.94v-2.8c-.2-1.25,1.92-1.25,1.72,0,0,0,0,.75,0,.75Z"/>
      <path class="cls-1" d="m86.81,35.2c.04.21-.51.2-.47,0,0,0,0-4.34,0-4.34,0-.09.04-.13.12-.13.11.02.36-.06.35.13,0,0,0,4.34,0,4.34Z"/>
      <path class="cls-1" d="m90.8,35.22l-.12-.87h-.78c-.05.1-.03,1.03-.23,1-.12-.01-.38.06-.34-.16,0,0,.58-4.31.58-4.31,0-.25.51-.1.64-.14.08,0,.12.04.13.14l.58,4.31c.07.23-.48.22-.46.03m-.84-1.32h.67c-.09-.67-.26-2.05-.32-2.72h-.03c-.06.67-.23,2.05-.32,2.72Z"/>
      <path class="cls-1" d="m94.54,32.53l.58.69c.46.42.71,2.28-.49,2.15-.97.06-.86-.86-.86-1.54-.02-.2.23-.13.35-.14.22-.02.08.63.12.74,0,.31.07.49.39.49.66-.03.42-1.05.1-1.38-.48-.64-.99-.88-.95-1.91-.2-1.26,1.91-1.25,1.72,0,0,0,0,.6,0,.6.02.2-.24.12-.35.13-.22.02-.08-.63-.12-.74,0-.31-.08-.49-.4-.49-.66.03-.41,1.07-.09,1.38"/>
      <path class="cls-1" d="m49.13,23.21c0,1.83,1.25,1.3,1.75,2.1.02.99-1.6-.04-2.91.48-.67-.01-.34-.84-.76-.56-2.91,2.12-6.87.28-7-3.13-.1-2.91,3.25-5.08,5.86-3.82.67.27,1.13.96.44,1.15-.35-.04-1.4-.62-1.85-.54-1.56-.02-2.67,1.6-2.63,3.11,0,3.07,3.31,4.44,5.13,1.89.47-1,.14-9.97.23-11.24.11-2.16-1.62-1.37-2.03-2.33.18-.66,1.28-.19,1.78-.25.64.08,1.45-.33,1.84.14.38,1.65.04,11.12.15,13Z"/>
      <path class="cls-1" d="m58.22,21.33c.93-.1.21-1.48-.22-1.96-1.69-1.78-5.03-.04-4.8,2.58-.05,1.57,1.76,3.06,3.31,3,.74.09,1.88-.55,2.63-.83.93.26.24.91-.78,1.36-6.84,3.13-10.28-7.15-2.37-7.74,1.52,0,2.66.39,3.42,1.17.74.79,1.5,2.22.96,3.23-.22.17-5.27.04-5.65.08-.82.06-.83-.96.02-.89,0,0,3.49,0,3.49,0Z"/>
      <path class="cls-1" d="m64.52,24.1c-.14.81,1.08.73,1.47,1.02.49.86-.71.71-1.4.61-.73-.39-4.05.75-3.36-.59.57-.29,1.65-.19,1.55-1.21,0,0,0-11.79,0-11.79-.02-.59-.23-.94-.9-1.09-.6-.11-1.02-.44-.57-.83.37-.25,1.02.04,1.41.03.71-.05,1.91-.48,1.8.72,0,0,0,13.14,0,13.14Z"/>
      <path class="cls-1" d="m74.07,24.15c1.36.95-2.26,1.99-3.12,1.87-6.18-.02-6.5-8.09-.27-8.35.73-.04,3.34.47,3.56,1.17-.14.71.57,1.81-.32,1.92-.23,0-.41-.22-.54-.66-.59-1.78-3.13-1.81-4.41-.6-2.19,1.9-.41,5.64,2.37,5.55.88.14,1.96-.7,2.72-.9"/>
      <path class="cls-1" d="m83.22,23.75c-.1,1.14,1.53.82,1.56,1.64-.13.46-.67.38-1.1.26-.68-.34-1.42.3-2.02-.01-.21-.09-.08-.37-.26-.39-5.58,3.51-9.56-4.76-2.34-5.27,1.97,0,2.76,1.87.91,1.15-2.15-1.04-4.01,1.8-2.25,3.32,1.22,1.11,3.72.46,3.71-1.37,0,0,0-2.96,0-2.96-.02-1.82-2.3-1.79-3.47-.9-.42.37-.99.21-1.05-.28.63-1.62,4.23-1.62,5.42-.56,1.44.88.71,4.06.87,5.38Z"/>
      <path class="cls-1" d="m87.1,15c.02-1.49.19-2.41,1.1-3.46.36-.42,2.63-2.44,2.54-1.21-2.47,1.65-1.83,5.33-1.9,7.9.12.31.81,0,1.12.07.59-.05.86.47.43.76-.64.22-1.63.09-1.54.97.13.68-.35,4.34.36,4.72.12.2,1.19.23,1.32.39.3.34.04.76-.52.72-1.14-.19-2.7-.28-3.86,0-.57.03-.87-.35-.59-.73.35-.24,1.45-.11,1.51-.74.07-.48.03-3.83.04-4.43,0-.52-.32-.78-.97-.78-1.39-.1-.81-1.25.84-.84.29.14.07-3.27.13-3.33Z"/>
      <path class="cls-1" d="m98.39,21.33c.93-.1.21-1.48-.22-1.96-1.69-1.78-5.03-.04-4.8,2.58-.05,1.57,1.76,3.06,3.31,3,.74.09,1.88-.55,2.63-.83.93.26.24.91-.78,1.36-6.84,3.13-10.28-7.15-2.37-7.74,1.52,0,2.66.39,3.42,1.17.74.79,1.5,2.22.96,3.23-.22.17-5.27.04-5.65.08-.41,0-.61-.15-.61-.45-.21-.81,3.74-.29,4.12-.43Z"/>
      <path class="cls-1" d="m1.75,15c.02-1.49.19-2.41,1.1-3.46.36-.42,2.63-2.44,2.54-1.21-2.47,1.65-1.83,5.33-1.9,7.9.12.31.81,0,1.12.07.59-.05.86.47.43.76-.64.22-1.63.09-1.54.97.13.68-.35,4.34.36,4.72.12.2,1.19.23,1.32.39.3.34.04.76-.52.72-1.14-.19-2.7-.28-3.86,0-.57.03-.87-.35-.59-.73.35-.24,1.45-.11,1.51-.74.07-.48.03-3.83.04-4.43,0-.52-.32-.78-.97-.78-1.39-.1-.81-1.25.84-.84.29.14.07-3.27.13-3.33Z"/>
      <path class="cls-1" d="m9.63,23.9c-.1.9.64.83,1.19,1.05.57.78-.64.81-1.32.67-.97-.28-1.92.36-2.77-.03-.71-.8.65-.68.98-1.06.32-.45.09-4.02.16-4.64.12-.88-.82-.72-1.25-1.05-.47-1.01.97-.7,1.49-.59,1.08-.11,1.73-.43,1.52,1.09,0,0,0,4.56,0,4.56Z"/>
      <path class="cls-1" d="m13.57,19.9c.15-1.11-1.2-.59-1.32-1.35.13-.72,1.07-.33,1.56-.3.3.05,1.24-.35,1.4.05.19.73.08,1.79.12,2.66.03.26-.14,3.37-.01,3.53.19.31.94.34,1.18.56.22.34.04.66-.48.64-1.03-.13-2.23-.16-3.26-.02-.51.03-.7-.37-.46-.7.09-.16.81-.12.89-.24.75-.6.24-3.95.38-4.83Zm6.7,4.2c-.15,1.01.94.59,1.14,1.21-.09.53-.44.3-1.06.31-.92-.09-1.89,0-2.66.13-.61.03-.73-.84-.07-.85.47,0,.91-.28.9-.81,0-2.26.01-2.86.07-3.96-.34-2.47-2.63,1.2-2.93-.17.42-1.37,3.77-3.07,4.5-.95.28,1.1.06,3.89.13,5.09Z"/>
      <path class="cls-1" d="m29.5,24.15c1.36.95-2.26,1.99-3.12,1.87-6.18-.02-6.5-8.09-.27-8.35.73-.04,3.34.47,3.56,1.17-.14.71.57,1.81-.32,1.92-.23,0-.41-.22-.54-.66-.59-1.78-3.13-1.81-4.41-.6-2.19,1.89-.41,5.64,2.37,5.55.88.14,1.96-.7,2.72-.9"/>
      <path class="cls-1" d="m38.65,23.75c-.1,1.14,1.53.82,1.56,1.64-.13.46-.67.38-1.1.26-.68-.34-1.42.3-2.02-.01-.21-.09-.08-.37-.26-.39-5.58,3.51-9.56-4.76-2.34-5.27,1.99,0,2.75,1.87.91,1.15-2.15-1.04-4.01,1.8-2.25,3.32,1.22,1.11,3.72.46,3.71-1.37,0,0,0-2.96,0-2.96-.02-1.82-2.3-1.79-3.47-.9-.42.37-.99.21-1.05-.28.63-1.62,4.23-1.62,5.42-.56,1.44.88.71,4.06.87,5.38Z"/>
      <path class="cls-1" d="m9.64,14.01c-.02,1.67,2.6,1.67,2.58,0,.02-1.67-2.6-1.67-2.58,0"/>
      <path class="cls-1" d="m9.64,11.09c-.02,1.67,2.6,1.67,2.58,0,.02-1.67-2.6-1.67-2.58,0"/>
      <path class="cls-1" d="m9.64,16.94c-.02,1.67,2.6,1.67,2.58,0,.02-1.67-2.6-1.67-2.58,0"/>
      <path class="cls-1" d="m12.78,11.41c-1.45.84-.1,3.09,1.32,2.21,1.45-.84.1-3.09-1.32-2.21"/>
      <path class="cls-1" d="m7.76,14.41c-1.45.84-.1,3.09,1.32,2.21,1.45-.84.1-3.09-1.32-2.21"/>
      <path class="cls-1" d="m9.09,11.41c1.45.84.1,3.09-1.32,2.21-1.45-.84-.1-3.09,1.32-2.21"/>
      <path class="cls-1" d="m14.1,14.41c1.45.84.1,3.09-1.32,2.21-1.45-.84-.1-3.09,1.32-2.21"/>
      <path class="cls-1" d="m99.03,9.95c.38,3.62-4.42,4.5-5.67,7.28-.08-3.48,4.69-4.28,5.67-7.28"/>
      <path class="cls-1" d="m92.84,9.29c1.26,3.47,6.91,4.46,6.71,8.6-1.59-3.21-7.26-4.29-6.71-8.6"/>
      <path class="cls-1" d="m99.03.66c.38,3.62-4.42,4.5-5.67,7.28-.08-3.48,4.69-4.28,5.67-7.28"/>
      <path class="cls-1" d="m92.84,0c1.26,3.47,6.91,4.46,6.71,8.6-1.59-3.21-7.26-4.29-6.71-8.6"/>
      <path class="cls-1" d="m101.9,24.01c1.48-.06,1.48,2.31,0,2.26-1.47.06-1.48-2.31,0-2.26m0,2.06c1.2.05,1.2-1.92,0-1.87-1.2-.05-1.2,1.92,0,1.87m-.04-.85h-.08s.06.64-.06.61c-.05,0-.16.02-.15-.06.03-.03-.07-1.42.06-1.36.3-.02.7,0,.65.37,0,.19-.02.37-.2.41l.24.55c.04.1-.1.08-.16.08-.08.02-.26-.57-.3-.61Zm-.08-.18c.19.03.32-.05.29-.26.02-.19-.13-.21-.29-.2v.45Z"/>
    </g>
  </g>
</svg>