<?xml version="1.0" encoding="UTF-8"?>
<svg id="Capa_2" data-name="Capa 2" xmlns="http://www.w3.org/2000/svg" viewBox="0 0 74.72 21.1">
  <defs>
    <style>
      .cls-1 {
        fill: #e5d6c5;
      }

      .cls-1, .cls-2 {
        stroke-width: 0px;
      }

      .cls-2 {
        fill: #c0985a;
      }
    </style>
  </defs>
  <g id="Head_página" data-name="Head página">
    <g>
      <rect class="cls-2" x="0" y="0" width="74.72" height="21.1" rx="8.1" ry="8.1"/>
      <g>
        <path class="cls-1" d="m13.36,5.44c2.06,0,3.08,1.19,3.08,2.6,0,1.03-.55,2.13-2.01,2.49l2.15,3.6h-1.7l-2-3.48h-1.09v3.48h-1.43V5.44h3Zm0,1.16h-1.58v2.91h1.58c1.11,0,1.61-.61,1.61-1.48s-.5-1.44-1.61-1.44Z"/>
        <path class="cls-1" d="m21.23,14.25c-1.98,0-3.44-1.4-3.44-3.56s1.4-3.55,3.44-3.55,3.35,1.36,3.35,3.39c0,.24-.01.46-.05.7h-5.27c.1,1.14.91,1.83,1.96,1.83.88,0,1.36-.43,1.63-.96h1.54c-.39,1.2-1.48,2.16-3.16,2.16Zm-1.95-4.18h3.82c-.02-1.06-.86-1.74-1.93-1.74-.96,0-1.74.65-1.89,1.74Z"/>
        <path class="cls-1" d="m25.61,12.02h1.48c.05.56.59,1.03,1.38,1.03s1.26-.35,1.26-.83c0-1.35-4-.58-4-3.1,0-1.1,1.03-1.99,2.65-1.99s2.59.84,2.66,2.21h-1.43c-.05-.6-.51-1.01-1.29-1.01s-1.16.31-1.16.78c0,1.39,3.89.61,3.97,3.1,0,1.16-1.01,2.04-2.64,2.04s-2.81-.98-2.88-2.23Z"/>
        <path class="cls-1" d="m35.63,14.25c-1.98,0-3.44-1.4-3.44-3.56s1.4-3.55,3.44-3.55,3.35,1.36,3.35,3.39c0,.24-.01.46-.05.7h-5.27c.1,1.14.91,1.83,1.96,1.83.88,0,1.36-.43,1.63-.96h1.54c-.39,1.2-1.48,2.16-3.16,2.16Zm-1.95-4.18h3.82c-.02-1.06-.86-1.74-1.93-1.74-.96,0-1.74.65-1.89,1.74Z"/>
        <path class="cls-1" d="m40.38,7.24h1.43v1c.4-.69,1.09-1.11,2.06-1.11v1.48h-.36c-1.05,0-1.7.44-1.7,1.9v3.63h-1.43v-6.89Z"/>
        <path class="cls-1" d="m45.9,7.24l1.95,5.62,1.95-5.62h1.51l-2.63,6.89h-1.7l-2.61-6.89h1.53Z"/>
        <path class="cls-1" d="m55.16,7.13c1.16,0,1.96.55,2.39,1.11v-1h1.44v6.89h-1.44v-1.03c-.44.59-1.26,1.14-2.41,1.14-1.79,0-3.23-1.46-3.23-3.59s1.44-3.53,3.25-3.53Zm.3,1.24c-1.06,0-2.09.8-2.09,2.29s1.03,2.35,2.09,2.35,2.09-.84,2.09-2.33-1.01-2.31-2.09-2.31Z"/>
        <path class="cls-1" d="m60.87,7.24h1.43v1c.4-.69,1.09-1.11,2.06-1.11v1.48h-.36c-1.05,0-1.7.44-1.7,1.9v3.63h-1.43v-6.89Z"/>
      </g>
    </g>
  </g>
</svg>