<?xml version="1.0" encoding="UTF-8"?>
<svg id="Capa_2" data-name="Capa 2" xmlns="http://www.w3.org/2000/svg" viewBox="0 0 40.05 36.24">
  <defs>
    <style>
      .cls-1 {
        fill: #607d83;
      }

      .cls-1, .cls-2, .cls-3 {
        stroke-width: 0px;
      }

      .cls-2 {
        fill: #37474f;
      }

      .cls-3 {
        fill: #e4e7e9;
      }
    </style>
  </defs>
  <g id="Footer">
    <g>
      <path class="cls-2" d="m22.89,31.47C5.82,31.47,2.1,26.89.57,24.89c-.38-.38-.57-.95-.57-1.53,0-1.33,1.05-2.38,2.38-2.38.86,0,3.34,0,3.34-4.67v-.57C5.72,7.06,13.45,0,22.89,0s17.16,7.06,17.16,15.73-7.72,15.73-17.16,15.73Z"/>
      <path class="cls-3" d="m22.89,29.56c8.39,0,15.26-6.2,15.26-13.83S31.28,1.91,22.89,1.91,7.63,8.11,7.63,15.73v.57c0,5.91-3.62,6.58-5.24,6.58-.29,0-.48.19-.48.48,0,.1,0,.19.1.29,1.43,1.81,4.67,5.91,20.88,5.91Z"/>
      <path class="cls-2" d="m27.65,10.49c-1.05,0-1.91.85-1.91,1.91s.85,1.91,1.91,1.91,1.91-.85,1.91-1.91-.85-1.91-1.91-1.91Zm-9.54,0c-1.05,0-1.91.85-1.91,1.91s.85,1.91,1.91,1.91,1.91-.85,1.91-1.91-.85-1.91-1.91-1.91Zm4.77,12.4c-4.58,0-6.39-3.34-6.67-5.05-.1-.48.29-1.05.76-1.14s1.05.29,1.14.76c0,.1.67,3.53,4.77,3.53s4.77-3.34,4.77-3.53c.1-.48.57-.86,1.14-.76.48.1.86.57.76,1.05-.29,1.81-2.1,5.15-6.67,5.15Zm-10.01,4.77c-2.37,0-4.29,1.92-4.29,4.29s1.92,4.29,4.29,4.29,4.29-1.92,4.29-4.29-1.92-4.29-4.29-4.29Z"/>
      <path class="cls-1" d="m12.87,30.51c-.79,0-1.43.64-1.43,1.43s.64,1.43,1.43,1.43,1.43-.64,1.43-1.43-.64-1.43-1.43-1.43Z"/>
      <path class="cls-2" d="m28.13,27.65c-2.37,0-4.29,1.92-4.29,4.29s1.92,4.29,4.29,4.29,4.29-1.92,4.29-4.29-1.92-4.29-4.29-4.29Z"/>
      <path class="cls-1" d="m28.13,30.51c-.79,0-1.43.64-1.43,1.43s.64,1.43,1.43,1.43,1.43-.64,1.43-1.43-.64-1.43-1.43-1.43Z"/>
    </g>
  </g>
</svg>